{
.appVersion = "3151";
.formatVersion = 3;
axes = (
{
name = Weight;
tag = wght;
},
{
name = Width;
tag = wdth;
},
{
name = Slant;
tag = slnt;
}
);
classes = (
{
code = "zero one two three four five six seven eight nine ";
name = Num;
},
{
code = "zero.canadian one.canadian two.canadian three.canadian four.canadian five.canadian six.canadian seven.canadian eight.canadian nine.canadian 
";
name = Num_can;
},
{

glyphs = (
{
glyphname = idotless;
lastChange = "2023-01-13 15:54:43 +0000";
layers = (
{
layerId = "C6C6CC8B-76AD-4983-B2A6-35FF5D496205";
shapes = (
{
closed = 1;
nodes = (
(136,516,l),
(75,516,l),
(75,0,l),
(136,0,l)
);
}
);
width = 212;
}
);
note = dotlessi;
unicode = 305;
},
{
glyphname = "acuteFinal-canadian";
lastChange = "2023-01-13 15:54:47 +0000";
layers = (
{
layerId = "C6C6CC8B-76AD-4983-B2A6-35FF5D496205";
shapes = (
{
closed = 1;
nodes = (
(97,345,l),
(250,690,l),
(199,690,l),
(46,345,l)
);
}
);
width = 296;
}
);
metricRight = "=|";
note = uni141F;
unicode = 5151;
},
{
glyphname = "graveFinal-canadian";
kernLeft = mwestleft;
kernRight = mwestright;
lastChange = "2023-01-13 15:54:47 +0000";
layers = (
{
layerId = "C6C6CC8B-76AD-4983-B2A6-35FF5D496205";
shapes = (
{
closed = 1;
nodes = (
(250,345,l),
(97,690,l),
(46,690,l),
(199,345,l)
);
}
);
width = 296;
}
);
metricLeft = "=|acuteFinal-canadian";
metricRight = "=|acuteFinal-canadian";
note = uni1420;
unicode = 5152;
},
{
glyphname = "ringBottomhalfFinal-canadian";
kernLeft = mwestleft;
kernRight = mwestright;
lastChange = "2023-01-13 15:54:43 +0000";
layers = (
{
layerId = "C6C6CC8B-76AD-4983-B2A6-35FF5D496205";
shapes = (
{
closed = 1;
nodes = (
(291,339,o),
(343,394,o),
(343,495,cs),
(343,690,l),
(297,690,l),
(297,494,ls),
(297,416,o),
(265,382,o),
(206,382,cs),
(147,382,o),
(114,418,o),
(114,494,cs),
(114,690,l),
(68,690,l),
(68,493,ls),
(68,395,o),
(121,339,o),
(205,339,cs)
);
}
);
width = 411;
}
);
metricLeft = "ai-canadian";
metricRight = "==|ai-canadian";
note = uni1421;
unicode = 5153;
},
{
glyphname = "ringTophalfFinal-canadian";
lastChange = "2023-01-13 15:54:43 +0000";
layers = (
{
layerId = "C6C6CC8B-76AD-4983-B2A6-35FF5D496205";
shapes = (
{
closed = 1;
nodes = (
(114,345,l),
(114,541,ls),
(114,616,o),
(147,653,o),
(206,653,cs),
(265,653,o),
(297,618,o),
(297,541,cs),
(297,345,l),
(343,345,l),
(343,540,ls),
(343,640,o),
(291,696,o),
(205,696,cs),
(121,696,o),
(68,639,o),
(68,542,cs),
(68,345,l)
);
}
);
width = 411;
}
);
metricLeft = "ai-canadian";
metricRight = "==|ai-canadian";
note = uni1422;
unicode = 5154;
},
{
glyphname = "ringRighthalfFinal-canadian";
kernLeft = mwestleft;
kernRight = mwestright;
lastChange = "2023-01-13 15:54:47 +0000";
layers = (
{
layerId = "C6C6CC8B-76AD-4983-B2A6-35FF5D496205";
shapes = (
{
closed = 1;
nodes = (
(128,345,ls),
(235,345,o),
(295,411,o),
(295,517,cs),
(295,624,o),
(235,690,o),
(127,690,cs),
(63,690,l),
(63,647,l),
(126,647,ls),
(207,647,o),
(248,600,o),
(248,517,cs),
(248,434,o),
(207,387,o),
(126,387,cs),
(63,387,l),
(63,345,l)
);
}
);
width = 361;
}
);
metricLeft = "=|t-canadian";
metricWidth = "t-canadian";
note = uni1423;
unicode = 5155;
},
{
glyphname = "ringFinal-canadian";
kernLeft = mwestleft;
kernRight = mwestright;
lastChange = "2023-01-13 15:54:43 +0000";
layers = (
{
layerId = "C6C6CC8B-76AD-4983-B2A6-35FF5D496205";
shapes = (
{
closed = 1;
nodes = (
(334,359,o),
(407,431,o),
(407,527,cs),
(407,624,o),
(333,696,o),
(236,696,cs),
(139,696,o),
(66,624,o),
(66,527,cs),
(66,431,o),
(137,359,o),
(236,359,cs)
);
},
{
closed = 1;
nodes = (
(161,399,o),
(109,453,o),
(109,527,cs),
(109,602,o),
(162,655,o),
(236,655,cs),
(309,655,o),
(363,602,o),
(363,527,cs),
(363,453,o),
(310,399,o),
(236,399,cs)
);
}
);
width = 472;
}
);
note = uni1424;
unicode = 5156;
},
{
glyphname = "doubleacuteFinal-canadian";
lastChange = "2023-01-13 15:54:43 +0000";
layers = (
{
layerId = "C6C6CC8B-76AD-4983-B2A6-35FF5D496205";
shapes = (
{
closed = 1;
nodes = (
(250,690,l),
(199,690,l),
(46,345,l),
(97,345,l)
);
},
{
closed = 1;
nodes = (
(381,690,l),
(330,690,l),
(178,345,l),
(228,345,l)
);
}
);
width = 427;
}
);
metricLeft = "acuteFinal-canadian";
metricRight = "=|";
note = uni1425;
unicode = 5157;
},
{
glyphname = "doubleshortverticalstrokesFinal-canadian";
kernLeft = mwestleft;
kernRight = mwestright;
lastChange = "2023-01-13 15:54:47 +0000";
layers = (
{
layerId = "C6C6CC8B-76AD-4983-B2A6-35FF5D496205";
shapes = (
{
closed = 1;
nodes = (
(114,690,l),
(68,690,l),
(68,345,l),
(114,345,l)
);
},
{
closed = 1;
nodes = (
(232,690,l),
(185,690,l),
(185,345,l),
(232,345,l)
);
}
);
width = 300;
}
);
metricLeft = "pWestCree-canadian";
metricRight = "pWestCree-canadian";
note = uni1426;
unicode = 5158;
},
{
glyphname = "middledotFinal-canadian";
lastChange = "2023-01-13 15:54:43 +0000";
layers = (
{
layerId = "C6C6CC8B-76AD-4983-B2A6-35FF5D496205";
shapes = (
{
closed = 1;
nodes = (
(130,311,o),
(150,330,o),
(150,355,cs),
(150,379,o),
(130,398,o),
(106,398,cs),
(82,398,o),
(64,379,o),
(64,355,cs),
(64,330,o),
(82,311,o),
(106,311,cs)
);
}
);
width = 213;
}
);
note = uni1427;
unicode = 5159;
},
{
glyphname = "shorthorizontalstrokeFinal-canadian";
kernLeft = mwestleft;
kernRight = mwestright;
lastChange = "2023-01-13 15:54:47 +0000";
layers = (
{
layerId = "C6C6CC8B-76AD-4983-B2A6-35FF5D496205";
shapes = (
{
closed = 1;
nodes = (
(376,498,l),
(376,544,l),
(66,544,l),
(66,498,l)
);
}
);
width = 442;
}
);
metricRight = "=|";
note = uni1428;
unicode = 5160;
},
{
glyphname = "plusFinal-canadian";
kernLeft = mwestleft;
kernRight = mwestright;
lastChange = "2023-01-13 15:54:47 +0000";
layers = (
{
layerId = "C6C6CC8B-76AD-4983-B2A6-35FF5D496205";
shapes = (
{
closed = 1;
nodes = (
(243,366,l),
(243,507,l),
(376,507,l),
(376,552,l),
(243,552,l),
(243,690,l),
(199,690,l),
(199,552,l),
(66,552,l),
(66,507,l),
(199,507,l),
(199,366,l)
);
}
);
width = 442;
}
);
metricLeft = "shorthorizontalstrokeFinal-canadian";
metricRight = "shorthorizontalstrokeFinal-canadian";
note = uni1429;
unicode = 5161;
},
{
glyphname = "downtackFinal-canadian";
kernLeft = mwestleft;
kernRight = mwestright;
lastChange = "2023-01-13 15:54:47 +0000";
layers = (
{
layerId = "C6C6CC8B-76AD-4983-B2A6-35FF5D496205";
shapes = (
{
closed = 1;
nodes = (
(244,345,l),
(244,646,l),
(376,646,l),
(376,690,l),
(66,690,l),
(66,646,l),
(198,646,l),
(198,345,l)
);
}
);
width = 442;
}
);
metricLeft = "shorthorizontalstrokeFinal-canadian";
metricRight = "shorthorizontalstrokeFinal-canadian";
note = uni142A;
unicode = 5162;
},
{
glyphname = "thFinalWoodScree-canadian";
lastChange = "2023-01-13 15:54:47 +0000";
layers = (
{
layerId = "C6C6CC8B-76AD-4983-B2A6-35FF5D496205";
shapes = (
{
closed = 1;
nodes = (
(246,345,l),
(246,430,l),
(378,430,l),
(378,469,l),
(246,469,l),
(246,565,l),
(378,565,l),
(378,605,l),
(246,605,l),
(246,690,l),
(201,690,l),
(201,605,l),
(68,605,l),
(68,565,l),
(201,565,l),
(201,469,l),
(68,469,l),
(68,430,l),
(201,430,l),
(201,345,l)
);
}
);
width = 446;
}
);
metricLeft = "hyphen-canadian";
metricRight = "hyphen-canadian";
note = uni167E;
unicode = 5758;
},
{
glyphname = "ringSmallFinal-canadian";
kernLeft = mwestleft;
kernRight = mwestright;
lastChange = "2023-01-13 15:54:43 +0000";
layers = (
{
layerId = "C6C6CC8B-76AD-4983-B2A6-35FF5D496205";
shapes = (
{
closed = 1;
nodes = (
(217,511,o),
(261,551,o),
(261,607,cs),
(261,663,o),
(217,702,o),
(164,702,cs),
(111,702,o),
(68,663,o),
(68,607,cs),
(68,551,o),
(111,511,o),
(164,511,cs)
);
},
{
closed = 1;
nodes = (
(127,545,o),
(102,571,o),
(102,607,cs),
(102,642,o),
(128,669,o),
(164,669,cs),
(201,669,o),
(225,642,o),
(225,607,cs),
(225,571,o),
(202,545,o),
(164,545,cs)
);
}
);
width = 328;
}
);
note = g725;
unicode = 6366;
},
{
glyphname = "raiseddotFinal-canadian";
kernLeft = mwestleft;
kernRight = mwestright;
lastChange = "2023-01-13 15:54:43 +0000";
layers = (
{
layerId = "C6C6CC8B-76AD-4983-B2A6-35FF5D496205";
shapes = (
{
closed = 1;
nodes = (
(132,615,o),
(151,635,o),
(151,659,cs),
(151,683,o),
(132,702,o),
(108,702,cs),
(83,702,o),
(65,683,o),
(65,659,cs),
(65,635,o),
(83,615,o),
(108,615,cs)
);
}
);
width = 215;
}
);
note = g725;
unicode = 6367;
},
{
glyphname = "plusFinal-canadian.base";
lastChange = "2023-01-13 15:54:47 +0000";
layers = (
{
layerId = "C6C6CC8B-76AD-4983-B2A6-35FF5D496205";
shapes = (
{
closed = 1;
nodes = (
(243,0,l),
(243,141,l),
(376,141,l),
(376,185,l),
(243,185,l),
(243,324,l),
(199,324,l),
(199,185,l),
(66,185,l),
(66,141,l),
(199,141,l),
(199,0,l)
);
}
);
width = 442;
}
);
metricLeft = "shorthorizontalstrokeFinal-canadian";
metricRight = "shorthorizontalstrokeFinal-canadian";
note = uni1429;
},
{
glyphname = "e-canadian";
kernLeft = ecanleft;
kernRight = ecanright;
lastChange = "2023-01-13 15:54:43 +0000";
layers = (
{
anchors = (
{
name = middle_center_can;
pos = (342,454);
},
{
name = top_center_can;
pos = (342,690);
},
{
name = top_left_can;
pos = (121,690);
},
{
name = top_right_can;
pos = (564,690);
}
);
layerId = "C6C6CC8B-76AD-4983-B2A6-35FF5D496205";
shapes = (
{
closed = 1;
nodes = (
(359,0,l),
(655,670,l),
(655,690,l),
(36,690,l),
(36,670,l),
(331,0,l)
);
},
{
closed = 1;
nodes = (
(356,71,l),
(105,654,l),
(99,638,l),
(592,638,l),
(587,654,l),
(336,71,l)
);
}
);
width = 691;
}
);
metricRight = "=|";
note = uni1401;
unicode = 5121;
},
{
glyphname = "i-canadian";
kernLeft = icanleft;
kernRight = icanright;
lastChange = "2023-01-13 15:54:43 +0000";
layers = (
{
anchors = (
{
name = middle_center_can;
pos = (345,403);
},
{
name = top_center_can;
pos = (346,690);
},
{
name = top_left_can;
pos = (122,690);
},
{
name = top_right_can;
pos = (564,690);
}
);
layerId = "C6C6CC8B-76AD-4983-B2A6-35FF5D496205";
shapes = (
{
closed = 1;
nodes = (
(655,0,l),
(655,19,l),
(359,690,l),
(331,690,l),
(36,19,l),
(36,0,l)
);
},
{
closed = 1;
nodes = (
(355,619,l),
(334,619,l),
(586,36,l),
(592,52,l),
(99,52,l),
(103,36,l)
);
}
);
width = 691;
}
);
metricLeft = "e-canadian";
metricWidth = "e-canadian";
note = uni1403;
unicode = 5123;
},
{
glyphname = "o-canadian";
kernLeft = ocanleft;
kernRight = ocanright;
lastChange = "2023-01-13 15:54:43 +0000";
layers = (
{
anchors = (
{
name = middle_center_can;
pos = (269,345);
},
{
name = top_center_can;
pos = (354,690);
},
{
name = top_double;
pos = (439,690);
},
{
name = top_left_can;
pos = (107,690);
},
{
name = top_right_can;
pos = (592,690);
}
);
layerId = "C6C6CC8B-76AD-4983-B2A6-35FF5D496205";
shapes = (
{
closed = 1;
nodes = (
(99,0,l),
(629,331,l),
(629,358,l),
(99,690,l),
(80,690,l),
(80,0,l)
);
},
{
closed = 1;
nodes = (
(134,620,l),
(117,618,l),
(569,334,l),
(569,356,l),
(117,72,l),
(134,70,l)
);
}
);
width = 665;
}
);
metricLeft = "nunavuth-canadian";
note = uni1405;
unicode = 5125;
},
{
glyphname = "eeCarrier-canadian";
lastChange = "2023-01-13 15:54:43 +0000";
layers = (
{
layerId = "C6C6CC8B-76AD-4983-B2A6-35FF5D496205";
shapes = (
{
closed = 1;
nodes = (
(99,0,l),
(629,331,l),
(629,358,l),
(99,690,l),
(80,690,l),
(80,0,l)
);
},
{
closed = 1;
nodes = (
(133,620,l),
(117,619,l),
(569,336,l),
(569,355,l),
(117,71,l),
(133,70,l)
);
},
{
closed = 1;
nodes = (
(283,439,l),
(253,439,l),
(253,251,l),
(283,251,l)
);
}
);
width = 665;
}
);
metricLeft = "nunavuth-canadian";
metricRight = "o-canadian";
note = uni1408;
unicode = 5128;
},
{
glyphname = "a-canadian";
kernLeft = acanleft;
kernRight = acanright;
lastChange = "2023-01-13 15:54:47 +0000";
layers = (
{
anchors = (
{
name = middle_center_can;
pos = (390,345);
},
{
name = top_center_can;
pos = (307,690);
},
{
name = top_left_can;
pos = (65,690);
},
{
name = top_right_can;
pos = (557,690);
}
);
layerId = "C6C6CC8B-76AD-4983-B2A6-35FF5D496205";
shapes = (
{
closed = 1;
nodes = (
(584,0,l),
(584,690,l),
(565,690,l),
(37,358,l),
(37,331,l),
(565,0,l)
);
},
{
closed = 1;
nodes = (
(548,71,l),
(96,355,l),
(96,334,l),
(547,618,l),
(530,621,l),
(530,69,l)
);
}
);
width = 664;
}
);
metricRight = "nunavuth-canadian";
note = uni140A;
unicode = 5130;
},
{
glyphname = "ai-canadian";
lastChange = "2023-01-13 15:54:47 +0000";
layers = (
{
layerId = "C6C6CC8B-76AD-4983-B2A6-35FF5D496205";
shapes = (
{
closed = 1;
nodes = (
(261,339,o),
(301,374,o),
(317,439,c),
(300,439,l),
(317,373,o),
(359,339,o),
(420,339,cs),
(499,339,o),
(551,390,o),
(551,493,cs),
(551,690,l),
(506,690,l),
(506,493,ls),
(506,411,o),
(472,380,o),
(419,380,cs),
(366,380,o),
(331,412,o),
(331,492,cs),
(331,690,l),
(287,690,l),
(287,493,ls),
(287,411,o),
(252,380,o),
(199,380,cs),
(146,380,o),
(112,412,o),
(112,492,cs),
(112,690,l),
(68,690,l),
(68,491,ls),
(68,390,o),
(121,339,o),
(198,339,cs)
);
}
);
width = 619;
}
);
metricRight = "=|";
note = uni141C;
unicode = 5148;
},
{
glyphname = "ycreew-canadian";
lastChange = "2023-01-13 15:54:47 +0000";
layers = (
{
layerId = "C6C6CC8B-76AD-4983-B2A6-35FF5D496205";
shapes = (
{
closed = 1;
nodes = (
(345,510,o),
(381,549,o),
(381,603,cs),
(381,658,o),
(345,696,o),
(297,696,cs),
(249,696,o),
(213,658,o),
(213,603,cs),
(213,549,o),
(249,510,o),
(297,510,cs)
);
},
{
closed = 1;
nodes = (
(198,339,o),
(234,378,o),
(234,432,cs),
(234,487,o),
(198,525,o),
(151,525,cs),
(102,525,o),
(67,487,o),
(67,432,cs),
(67,378,o),
(102,339,o),
(150,339,cs)
);
},
{
closed = 1;
nodes = (
(118,367,o),
(96,393,o),
(96,432,cs),
(96,470,o),
(118,497,o),
(150,497,cs),
(182,497,o),
(204,470,o),
(204,432,cs),
(204,393,o),
(182,367,o),
(150,367,cs)
);
},
{
closed = 1;
nodes = (
(265,538,o),
(242,564,o),
(242,603,cs),
(242,641,o),
(265,668,o),
(297,668,cs),
(328,668,o),
(351,641,o),
(351,603,cs),
(351,564,o),
(328,538,o),
(297,538,cs)
);
}
);
width = 448;
}
);
metricRight = "=|";
note = uni141D;
unicode = 5149;
},
{
glyphname = "glottalstop-canadian";
lastChange = "2023-01-13 15:54:43 +0000";
layers = (
{
layerId = "C6C6CC8B-76AD-4983-B2A6-35FF5D496205";
shapes = (
{
closed = 1;
nodes = (
(371,345,l),
(371,356,l),
(224,690,l),
(209,690,l),
(61,356,l),
(61,345,l)
);
},
{
closed = 1;
nodes = (
(229,649,l),
(204,649,l),
(327,363,l),
(338,382,l),
(95,382,l),
(104,363,l)
);
}
);
width = 432;
}
);
metricRight = "=|";
note = uni141E;
unicode = 5150;
},
{
glyphname = "pe-canadian";
kernLeft = ecanleft;
kernRight = ecanright;
lastChange = "2023-01-13 15:54:43 +0000";
layers = (
{
anchors = (
{
name = middle_center_can;
pos = (342,454);
},
{
name = top_center_can;
pos = (342,690);
},
{
name = top_left_can;
pos = (121,690);
},
{
name = top_right_can;
pos = (564,690);
}
);
layerId = "C6C6CC8B-76AD-4983-B2A6-35FF5D496205";
shapes = (
{
closed = 1;
nodes = (
(359,0,l),
(655,670,l),
(655,690,l),
(599,690,l),
(331,72,l),
(361,72,l),
(94,690,l),
(36,690,l),
(36,670,l),
(331,0,l)
);
}
);
width = 691;
}
);
metricLeft = "e-canadian";
metricRight = "e-canadian";
note = uni142F;
unicode = 5167;
},
{
glyphname = "pi-canadian";
kernLeft = icanleft;
kernRight = icanright;
lastChange = "2023-01-13 15:54:43 +0000";
layers = (
{
anchors = (
{
name = middle_center_can;
pos = (343,403);
},
{
name = top_center_can;
pos = (346,690);
},
{
name = top_left_can;
pos = (124,690);
},
{
name = top_right_can;
pos = (567,690);
}
);
layerId = "C6C6CC8B-76AD-4983-B2A6-35FF5D496205";
shapes = (
{
closed = 1;
nodes = (
(92,0,l),
(360,617,l),
(330,617,l),
(597,0,l),
(655,0,l),
(655,19,l),
(359,690,l),
(331,690,l),
(36,19,l),
(36,0,l)
);
}
);
width = 691;
}
);
metricLeft = "e-canadian";
metricRight = "e-canadian";
note = uni1431;
unicode = 5169;
},
{
glyphname = "po-canadian";
kernLeft = ocanleft;
kernRight = ocanright;
lastChange = "2023-01-13 15:54:43 +0000";
layers = (
{
anchors = (
{
name = middle_center_can;
pos = (220,345);
},
{
name = top_center_can;
pos = (327,690);
},
{
name = top_double;
pos = (418,690);
},
{
name = top_left_can;
pos = (85,690);
},
{
name = top_right_can;
pos = (563,690);
}
);
layerId = "C6C6CC8B-76AD-4983-B2A6-35FF5D496205";
shapes = (
{
closed = 1;
nodes = (
(76,0,l),
(599,331,l),
(599,358,l),
(76,690,l),
(57,690,l),
(57,635,l),
(536,330,l),
(536,359,l),
(57,56,l),
(57,0,l)
);
}
);
width = 635;
}
);
metricRight = "o-canadian";
note = uni1433;
unicode = 5171;
},
{
glyphname = "pa-canadian";
kernLeft = acanleft;
kernRight = acanright;
lastChange = "2023-01-13 15:54:43 +0000";
layers = (
{
anchors = (
{
name = middle_center_can;
pos = (281,345);
},
{
name = top_center_can;
pos = (308,690);
},
{
name = top_left_can;
pos = (65,690);
},
{
name = top_right_can;
pos = (551,690);
}
);
layerId = "C6C6CC8B-76AD-4983-B2A6-35FF5D496205";
shapes = (
{
closed = 1;
nodes = (
(578,0,l),
(578,55,l),
(99,359,l),
(99,330,l),
(578,634,l),
(578,690,l),
(559,690,l),
(37,358,l),
(37,331,l),
(559,0,l)
);
}
);
width = 635;
}
);
metricRight = "=|po-canadian";
note = uni1438;
unicode = 5176;
},
{
glyphname = "p-canadian";
kernLeft = mwestleft;
kernRight = mwestright;
lastChange = "2023-01-13 15:54:43 +0000";
layers = (
{
layerId = "C6C6CC8B-76AD-4983-B2A6-35FF5D496205";
shapes = (
{
closed = 1;
nodes = (
(337,345,l),
(337,385,l),
(106,533,l),
(106,502,l),
(337,648,l),
(337,690,l),
(325,690,l),
(68,526,l),
(68,509,l),
(325,345,l)
);
}
);
width = 405;
}
);
note = uni1449;
unicode = 5193;
},
{
glyphname = "pWestCree-canadian";
kernLeft = mwestleft;
kernRight = mwestright;
lastChange = "2023-01-13 15:54:43 +0000";
layers = (
{
layerId = "C6C6CC8B-76AD-4983-B2A6-35FF5D496205";
shapes = (
{
closed = 1;
nodes = (
(114,345,l),
(114,690,l),
(68,690,l),
(68,345,l)
);
}
);
width = 182;
}
);
metricRight = "=|";
note = uni144A;
unicode = 5194;
},
{
color = 6;
glyphname = "hCarrier-canadian";
lastChange = "2023-01-13 15:54:43 +0000";
layers = (
{
layerId = "C6C6CC8B-76AD-4983-B2A6-35FF5D496205";
shapes = (
{
closed = 1;
nodes = (
(114,183,l),
(114,319,ls),
(114,365,o),
(141,392,o),
(185,392,cs),
(224,392,o),
(245,367,o),
(245,316,cs),
(245,183,l),
(292,183,l),
(292,325,ls),
(292,396,o),
(249,434,o),
(191,434,cs),
(142,434,o),
(104,404,o),
(99,360,c),
(114,355,l),
(114,527,l),
(68,527,l),
(68,183,l)
);
}
);
width = 338;
}
);
metricLeft = "pWestCree-canadian";
note = uni144B;
unicode = 5195;
},
{
glyphname = "te-canadian";
lastChange = "2023-01-13 15:54:47 +0000";
layers = (
{
anchors = (
{
name = middle_center_can;
pos = (344,345);
},
{
name = top_center_can;
pos = (344,690);
},
{
name = top_left_can;
pos = (104,690);
},
{
name = top_right_can;
pos = (584,690);
}
);
layerId = "C6C6CC8B-76AD-4983-B2A6-35FF5D496205";
shapes = (
{
closed = 1;
nodes = (
(512,-13,o),
(615,99,o),
(615,293,cs),
(615,690,l),
(554,690,l),
(554,290,ls),
(554,129,o),
(477,45,o),
(344,45,cs),
(214,45,o),
(135,130,o),
(135,290,cs),
(135,690,l),
(73,690,l),
(73,289,ls),
(73,98,o),
(179,-13,o),
(344,-13,cs)
);
}
);
width = 688;
}
);
metricRight = "=|";
note = uni144C;
unicode = 5196;
},
{
glyphname = "ti-canadian";
lastChange = "2023-01-13 15:54:47 +0000";
layers = (
{
anchors = (
{
name = middle_center_can;
pos = (344,345);
},
{
name = middle_right_can;
pos = (774,345);
},
{
name = top_center_can;
pos = (344,690);
},
{
name = top_left_can;
pos = (104,690);
},
{
name = top_right_can;
pos = (584,690);
}
);
layerId = "C6C6CC8B-76AD-4983-B2A6-35FF5D496205";
shapes = (
{
closed = 1;
nodes = (
(135,0,l),
(135,400,ls),
(135,560,o),
(213,644,o),
(345,644,cs),
(474,644,o),
(554,559,o),
(554,400,cs),
(554,0,l),
(615,0,l),
(615,401,ls),
(615,591,o),
(511,702,o),
(346,702,cs),
(178,702,o),
(73,592,o),
(73,397,cs),
(73,0,l)
);
}
);
width = 688;
}
);
metricLeft = "te-canadian";
metricRight = "te-canadian";
note = uni144E;
unicode = 5198;
},
{
glyphname = "to-canadian";
kernLeft = toleft;
lastChange = "2023-01-13 15:54:43 +0000";
layers = (
{
anchors = (
{
name = middle_center_can;
pos = (259,345);
},
{
name = middle_right_can;
pos = (676,345);
},
{
name = top_center_can;
pos = (264,690);
},
{
name = top_double;
pos = (318,690);
},
{
name = top_left_can;
pos = (87,690);
},
{
name = top_right_can;
pos = (491,690);
}
);
layerId = "C6C6CC8B-76AD-4983-B2A6-35FF5D496205";
shapes = (
{
closed = 1;
nodes = (
(203,0,ls),
(406,0,o),
(519,129,o),
(519,346,cs),
(519,562,o),
(406,690,o),
(199,690,cs),
(59,690,l),
(59,634,l),
(199,634,ls),
(369,634,o),
(457,530,o),
(457,346,cs),
(457,161,o),
(369,56,o),
(201,56,cs),
(59,56,l),
(59,0,l)
);
}
);
width = 585;
}
);
note = uni1450;
unicode = 5200;
},
{
glyphname = "ta-canadian";
kernRight = taright;
lastChange = "2023-01-13 15:54:47 +0000";
layers = (
{
anchors = (
{
name = middle_center_can;
pos = (326,345);
},
{
name = top_center_can;
pos = (322,690);
},
{
name = top_left_can;
pos = (94,690);
},
{
name = top_right_can;
pos = (497,690);
}
);
layerId = "C6C6CC8B-76AD-4983-B2A6-35FF5D496205";
shapes = (
{
closed = 1;
nodes = (
(525,0,l),
(525,56,l),
(385,56,ls),
(215,56,o),
(127,160,o),
(127,345,cs),
(127,529,o),
(215,634,o),
(384,634,cs),
(525,634,l),
(525,690,l),
(384,690,ls),
(179,690,o),
(66,561,o),
(66,345,cs),
(66,128,o),
(179,0,o),
(383,0,cs)
);
}
);
width = 584;
}
);
metricLeft = "=|to-canadian";
metricRight = "=|to-canadian";
note = uni1455;
unicode = 5205;
},
{
glyphname = "t-canadian";
kernLeft = mwestleft;
kernRight = mwestright;
lastChange = "2023-01-13 15:54:43 +0000";
layers = (
{
layerId = "C6C6CC8B-76AD-4983-B2A6-35FF5D496205";
shapes = (
{
closed = 1;
nodes = (
(298,345,l),
(298,387,l),
(235,387,ls),
(154,387,o),
(112,433,o),
(112,517,cs),
(112,600,o),
(154,647,o),
(235,647,cs),
(298,647,l),
(298,690,l),
(231,690,ls),
(126,690,o),
(66,624,o),
(66,517,cs),
(66,410,o),
(126,345,o),
(233,345,cs)
);
}
);
width = 361;
}
);
note = uni1466;
unicode = 5222;
},
{
glyphname = "ke-canadian";
lastChange = "2023-01-13 15:54:43 +0000";
layers = (
{
anchors = (
{
name = middle_center_can;
pos = (302,441);
},
{
name = top_center_can;
pos = (281,690);
},
{
name = top_left_can;
pos = (99,690);
},
{
name = top_right_can;
pos = (464,690);
}
);
layerId = "C6C6CC8B-76AD-4983-B2A6-35FF5D496205";
shapes = (
{
closed = 1;
nodes = (
(495,0,l),
(495,448,ls),
(495,607,o),
(414,702,o),
(283,702,cs),
(152,702,o),
(68,607,o),
(68,451,cs),
(68,300,o),
(151,206,o),
(275,206,cs),
(361,206,o),
(425,257,o),
(440,327,c),
(433,341,l),
(433,0,l)
);
},
{
closed = 1;
nodes = (
(187,260,o),
(128,330,o),
(128,454,cs),
(128,578,o),
(186,648,o),
(281,648,cs),
(378,648,o),
(434,579,o),
(434,454,cs),
(434,330,o),
(376,260,o),
(281,260,cs)
);
}
);
width = 568;
}
);
metricRight = "te-canadian";
note = uni146B;
unicode = 5227;
},
{
glyphname = "ki-canadian";
lastChange = "2023-01-13 15:54:43 +0000";
layers = (
{
anchors = (
{
name = middle_center_can;
pos = (307,441);
},
{
name = top_center_can;
pos = (286,690);
},
{
name = top_left_can;
pos = (104,690);
},
{
name = top_right_can;
pos = (469,690);
}
);
layerId = "C6C6CC8B-76AD-4983-B2A6-35FF5D496205";
shapes = (
{
closed = 1;
nodes = (
(135,0,l),
(135,341,l),
(128,327,l),
(143,257,o),
(207,206,o),
(293,206,cs),
(417,206,o),
(500,301,o),
(500,453,cs),
(500,607,o),
(416,702,o),
(287,702,cs),
(155,702,o),
(73,607,o),
(73,448,cs),
(73,0,l)
);
},
{
closed = 1;
nodes = (
(192,260,o),
(134,330,o),
(134,454,cs),
(134,579,o),
(190,648,o),
(286,648,cs),
(382,648,o),
(440,578,o),
(440,454,cs),
(440,330,o),
(381,260,o),
(286,260,cs)
);
}
);
width = 568;
}
);
metricLeft = "te-canadian";
metricRight = "=|ke-canadian";
note = uni146D;
unicode = 5229;
},
{
glyphname = "ko-canadian";
lastChange = "2023-01-13 15:54:43 +0000";
layers = (
{
anchors = (
{
name = middle_center_can;
pos = (302,397);
},
{
name = top_center_can;
pos = (281,690);
},
{
name = top_double;
pos = (465,690);
},
{
name = top_left_can;
pos = (99,690);
},
{
name = top_right_can;
pos = (464,690);
}
);
layerId = "C6C6CC8B-76AD-4983-B2A6-35FF5D496205";
shapes = (
{
closed = 1;
nodes = (
(414,-13,o),
(495,83,o),
(495,242,cs),
(495,690,l),
(433,690,l),
(433,349,l),
(440,363,l),
(425,433,o),
(361,484,o),
(275,484,cs),
(151,484,o),
(68,387,o),
(68,236,cs),
(68,82,o),
(150,-13,o),
(281,-13,cs)
);
},
{
closed = 1;
nodes = (
(186,42,o),
(128,112,o),
(128,236,cs),
(128,359,o),
(187,430,o),
(281,430,cs),
(376,430,o),
(434,359,o),
(434,236,cs),
(434,111,o),
(378,42,o),
(281,42,cs)
);
}
);
width = 568;
}
);
metricLeft = "ke-canadian";
metricRight = "te-canadian";
note = uni146F;
unicode = 5231;
},
{
glyphname = "ka-canadian";
lastChange = "2023-01-13 15:54:43 +0000";
layers = (
{
anchors = (
{
name = middle_center_can;
pos = (307,398);
},
{
name = top_center_can;
pos = (287,690);
},
{
name = top_left_can;
pos = (104,690);
},
{
name = top_right_can;
pos = (469,690);
}
);
layerId = "C6C6CC8B-76AD-4983-B2A6-35FF5D496205";
shapes = (
{
closed = 1;
nodes = (
(416,-13,o),
(500,83,o),
(500,238,cs),
(500,388,o),
(417,484,o),
(294,484,cs),
(208,484,o),
(143,433,o),
(128,363,c),
(135,349,l),
(135,690,l),
(73,690,l),
(73,242,ls),
(73,83,o),
(153,-13,o),
(285,-13,cs)
);
},
{
closed = 1;
nodes = (
(190,42,o),
(134,111,o),
(134,236,cs),
(134,359,o),
(192,430,o),
(286,430,cs),
(381,430,o),
(440,359,o),
(440,236,cs),
(440,112,o),
(382,42,o),
(286,42,cs)
);
}
);
width = 568;
}
);
metricLeft = "te-canadian";
metricRight = "==|ke-canadian";
note = uni1472;
unicode = 5234;
},
{
glyphname = "k-canadian";
kernLeft = mwestleft;
kernRight = mwestright;
lastChange = "2023-01-13 15:54:43 +0000";
layers = (
{
layerId = "C6C6CC8B-76AD-4983-B2A6-35FF5D496205";
shapes = (
{
closed = 1;
nodes = (
(252,339,o),
(303,388,o),
(303,471,cs),
(303,552,o),
(255,601,o),
(192,601,cs),
(145,601,o),
(108,568,o),
(101,523,c),
(114,517,l),
(114,690,l),
(68,690,l),
(68,471,ls),
(68,388,o),
(115,339,o),
(186,339,cs)
);
},
{
closed = 1;
nodes = (
(139,376,o),
(110,408,o),
(110,470,cs),
(110,530,o),
(142,564,o),
(185,564,cs),
(230,564,o),
(261,530,o),
(261,471,cs),
(261,411,o),
(231,376,o),
(186,376,cs)
);
}
);
width = 361;
}
);
note = uni1483;
unicode = 5251;
},
{
glyphname = "kw-canadian";
kernLeft = mwestleft;
kernRight = mwestright;
lastChange = "2023-01-13 15:54:47 +0000";
layers = (
{
layerId = "C6C6CC8B-76AD-4983-B2A6-35FF5D496205";
shapes = (
{
closed = 1;
nodes = (
(245,339,o),
(294,388,o),
(294,471,cs),
(294,690,l),
(247,690,l),
(247,517,l),
(260,523,l),
(253,568,o),
(216,601,o),
(169,601,cs),
(105,601,o),
(58,552,o),
(58,471,cs),
(58,388,o),
(108,339,o),
(175,339,cs)
);
},
{
closed = 1;
nodes = (
(130,376,o),
(100,411,o),
(100,471,cs),
(100,530,o),
(131,564,o),
(176,564,cs),
(219,564,o),
(250,530,o),
(250,470,cs),
(250,408,o),
(222,376,o),
(175,376,cs)
);
}
);
width = 362;
}
);
metricLeft = "=|k-canadian";
metricRight = "=|k-canadian";
note = uni1484;
unicode = 5252;
},
{
glyphname = "ce-canadian";
kernLeft = celeft;
lastChange = "2023-01-13 15:54:43 +0000";
layers = (
{
anchors = (
{
name = middle_center_can;
pos = (300,419);
},
{
name = top_center_can;
pos = (281,690);
},
{
name = top_left_can;
pos = (99,690);
},
{
name = top_right_can;
pos = (461,690);
}
);
layerId = "C6C6CC8B-76AD-4983-B2A6-35FF5D496205";
shapes = (
{
closed = 1;
nodes = (
(492,0,l),
(492,456,ls),
(492,610,o),
(412,702,o),
(282,702,cs),
(148,702,o),
(68,610,o),
(68,458,cs),
(68,391,l),
(128,391,l),
(128,463,ls),
(128,579,o),
(184,647,o),
(281,647,cs),
(375,647,o),
(430,579,o),
(430,462,cs),
(430,0,l)
);
}
);
width = 565;
}
);
metricRight = "te-canadian";
note = uni1489;
unicode = 5257;
},
{
glyphname = "ci-canadian";
kernRight = ciright;
lastChange = "2023-01-13 15:54:47 +0000";
layers = (
{
anchors = (
{
name = middle_center_can;
pos = (303,419);
},
{
name = top_center_can;
pos = (287,690);
},
{
name = top_left_can;
pos = (104,690);
},
{
name = top_right_can;
pos = (468,690);
}
);
layerId = "C6C6CC8B-76AD-4983-B2A6-35FF5D496205";
shapes = (
{
closed = 1;
nodes = (
(135,0,l),
(135,462,ls),
(135,579,o),
(189,647,o),
(286,647,cs),
(383,647,o),
(436,580,o),
(436,463,cs),
(436,391,l),
(497,391,l),
(497,458,ls),
(497,609,o),
(419,702,o),
(287,702,cs),
(152,702,o),
(73,609,o),
(73,455,cs),
(73,0,l)
);
}
);
width = 565;
}
);
metricLeft = "te-canadian";
metricRight = "=|ce-canadian";
note = uni148B;
unicode = 5259;
},
{
glyphname = "co-canadian";
kernLeft = coleft;
lastChange = "2023-01-13 15:54:43 +0000";
layers = (
{
anchors = (
{
name = middle_center_can;
pos = (300,419);
},
{
name = top_center_can;
pos = (280,690);
},
{
name = top_double;
pos = (461,690);
},
{
name = top_left_can;
pos = (99,690);
},
{
name = top_right_can;
pos = (461,690);
}
);
layerId = "C6C6CC8B-76AD-4983-B2A6-35FF5D496205";
shapes = (
{
closed = 1;
nodes = (
(412,-13,o),
(492,78,o),
(492,235,cs),
(492,690,l),
(430,690,l),
(430,228,ls),
(430,108,o),
(375,43,o),
(281,43,cs),
(182,43,o),
(128,110,o),
(128,230,cs),
(128,298,l),
(68,298,l),
(68,231,ls),
(68,80,o),
(145,-13,o),
(282,-13,cs)
);
}
);
width = 565;
}
);
metricLeft = "ce-canadian";
metricRight = "te-canadian";
note = uni148D;
unicode = 5261;
},
{
glyphname = "ca-canadian";
kernRight = caright;
lastChange = "2023-01-13 15:54:47 +0000";
layers = (
{
anchors = (
{
name = middle_center_can;
pos = (303,419);
},
{
name = top_center_can;
pos = (287,690);
},
{
name = top_left_can;
pos = (104,690);
},
{
name = top_right_can;
pos = (468,690);
}
);
layerId = "C6C6CC8B-76AD-4983-B2A6-35FF5D496205";
shapes = (
{
closed = 1;
nodes = (
(419,-13,o),
(497,79,o),
(497,232,cs),
(497,298,l),
(436,298,l),
(436,229,ls),
(436,108,o),
(384,43,o),
(286,43,cs),
(188,43,o),
(135,110,o),
(135,229,cs),
(135,690,l),
(73,690,l),
(73,234,ls),
(73,78,o),
(151,-13,o),
(286,-13,cs)
);
}
);
width = 565;
}
);
metricLeft = "te-canadian";
metricRight = "=|ce-canadian";
note = uni1490;
unicode = 5264;
},
{
glyphname = "c-canadian";
kernLeft = mwestleft;
kernRight = mwestright;
lastChange = "2023-01-13 15:54:43 +0000";
layers = (
{
layerId = "C6C6CC8B-76AD-4983-B2A6-35FF5D496205";
shapes = (
{
closed = 1;
nodes = (
(255,339,o),
(304,384,o),
(304,465,cs),
(304,485,l),
(261,485,l),
(261,460,ls),
(261,406,o),
(232,378,o),
(186,378,cs),
(140,378,o),
(114,406,o),
(114,468,cs),
(114,690,l),
(68,690,l),
(68,472,ls),
(68,384,o),
(113,339,o),
(186,339,cs)
);
}
);
width = 352;
}
);
note = uni14A1;
unicode = 5281;
},
{
glyphname = "thSayisi-canadian";
lastChange = "2023-01-13 15:54:47 +0000";
layers = (
{
layerId = "C6C6CC8B-76AD-4983-B2A6-35FF5D496205";
shapes = (
{
closed = 1;
nodes = (
(240,339,o),
(285,384,o),
(285,472,cs),
(285,690,l),
(239,690,l),
(239,468,ls),
(239,406,o),
(213,378,o),
(166,378,cs),
(121,378,o),
(92,406,o),
(92,460,cs),
(92,485,l),
(48,485,l),
(48,465,ls),
(48,384,o),
(98,339,o),
(166,339,cs)
);
}
);
width = 353;
}
);
metricLeft = "=|c-canadian";
metricRight = "=|c-canadian";
note = uni14A2;
unicode = 5282;
},
{
glyphname = "me-canadian";
kernLeft = meleft;
lastChange = "2023-01-13 15:54:43 +0000";
layers = (
{
anchors = (
{
name = middle_center_can;
pos = (201,345);
},
{
name = top_center_can;
pos = (233,690);
},
{
name = top_left_can;
pos = (72,690);
},
{
name = top_right_can;
pos = (391,690);
}
);
layerId = "C6C6CC8B-76AD-4983-B2A6-35FF5D496205";
shapes = (
{
closed = 1;
nodes = (
(422,0,l),
(422,690,l),
(42,690,l),
(42,634,l),
(360,634,l),
(360,0,l)
);
}
);
width = 502;
}
);
metricRight = "nunavuth-canadian";
note = uni14A3;
unicode = 5283;
},
{
glyphname = "mi-canadian";
kernRight = miright;
lastChange = "2023-01-13 15:54:47 +0000";
layers = (
{
anchors = (
{
name = middle_center_can;
pos = (302,345);
},
{
name = top_center_can;
pos = (270,690);
},
{
name = top_left_can;
pos = (112,690);
},
{
name = top_right_can;
pos = (430,690);
}
);
layerId = "C6C6CC8B-76AD-4983-B2A6-35FF5D496205";
shapes = (
{
closed = 1;
nodes = (
(142,0,l),
(142,634,l),
(461,634,l),
(461,690,l),
(80,690,l),
(80,0,l)
);
}
);
width = 503;
}
);
metricLeft = "nunavuth-canadian";
metricRight = "=|me-canadian";
note = uni14A5;
unicode = 5285;
},
{
glyphname = "mo-canadian";
kernLeft = moleft;
lastChange = "2023-01-13 15:54:43 +0000";
layers = (
{
anchors = (
{
name = middle_center_can;
pos = (201,345);
},
{
name = top_center_can;
pos = (233,690);
},
{
name = top_double;
pos = (391,690);
},
{
name = top_left_can;
pos = (72,690);
},
{
name = top_right_can;
pos = (391,690);
}
);
layerId = "C6C6CC8B-76AD-4983-B2A6-35FF5D496205";
shapes = (
{
closed = 1;
nodes = (
(422,0,l),
(422,690,l),
(360,690,l),
(360,56,l),
(42,56,l),
(42,0,l)
);
}
);
width = 502;
}
);
metricLeft = "me-canadian";
metricRight = "nunavuth-canadian";
note = uni14A7;
unicode = 5287;
},
{
glyphname = "ma-canadian";
kernRight = maright;
lastChange = "2023-01-13 15:54:47 +0000";
layers = (
{
anchors = (
{
name = middle_center_can;
pos = (302,345);
},
{
name = top_center_can;
pos = (270,690);
},
{
name = top_left_can;
pos = (112,690);
},
{
name = top_right_can;
pos = (430,690);
}
);
layerId = "C6C6CC8B-76AD-4983-B2A6-35FF5D496205";
shapes = (
{
closed = 1;
nodes = (
(461,0,l),
(461,56,l),
(142,56,l),
(142,690,l),
(80,690,l),
(80,0,l)
);
}
);
width = 503;
}
);
metricLeft = "nunavuth-canadian";
metricRight = "=|me-canadian";
note = uni14AA;
unicode = 5290;
},
{
glyphname = "m-canadian";
kernLeft = mwestleft;
kernRight = mwestright;
lastChange = "2023-01-13 15:54:43 +0000";
layers = (
{
layerId = "C6C6CC8B-76AD-4983-B2A6-35FF5D496205";
shapes = (
{
closed = 1;
nodes = (
(276,387,l),
(114,387,l),
(114,690,l),
(68,690,l),
(68,345,l),
(276,345,l)
);
}
);
width = 326;
}
);
metricLeft = "pWestCree-canadian";
note = uni14BB;
unicode = 5307;
},
{
glyphname = "mh-canadian";
kernLeft = mwestleft;
kernRight = mwestright;
lastChange = "2023-01-13 15:54:47 +0000";
layers = (
{
layerId = "C6C6CC8B-76AD-4983-B2A6-35FF5D496205";
shapes = (
{
closed = 1;
nodes = (
(260,345,l),
(260,690,l),
(214,690,l),
(214,387,l),
(50,387,l),
(50,345,l)
);
}
);
width = 328;
}
);
metricLeft = "=|m-canadian";
metricRight = "=|m-canadian";
note = uni14BD;
unicode = 5309;
},
{
glyphname = "mAthapascan-canadian";
lastChange = "2023-01-13 15:54:43 +0000";
layers = (
{
layerId = "C6C6CC8B-76AD-4983-B2A6-35FF5D496205";
shapes = (
{
closed = 1;
nodes = (
(294,345,l),
(294,384,l),
(121,384,l),
(121,362,l),
(230,482,ls),
(265,522,o),
(275,555,o),
(275,595,cs),
(275,655,o),
(235,696,o),
(170,696,cs),
(100,696,o),
(59,649,o),
(59,574,c),
(100,574,l),
(100,632,o),
(125,659,o),
(170,659,cs),
(212,659,o),
(234,636,o),
(234,594,cs),
(234,559,o),
(225,535,o),
(191,497,cs),
(72,366,l),
(72,345,l)
);
}
);
width = 345;
}
);
note = uni14BE;
unicode = 5310;
},
{
glyphname = "ne-canadian";
kernLeft = neleft;
lastChange = "2023-01-13 15:54:47 +0000";
layers = (
{
anchors = (
{
name = middle_center_can;
pos = (500,245);
},
{
name = top_center_can;
pos = (492,490);
},
{
name = top_left_can;
pos = (93,490);
},
{
name = top_right_can;
pos = (690,490);
}
);
layerId = "C6C6CC8B-76AD-4983-B2A6-35FF5D496205";
shapes = (
{
closed = 1;
nodes = (
(633,-13,o),
(720,80,o),
(720,231,cs),
(720,381,o),
(635,472,o),
(492,472,cs),
(62,472,l),
(62,416,l),
(399,416,l),
(393,432,l),
(319,401,o),
(281,320,o),
(281,228,cs),
(281,79,o),
(367,-13,o),
(500,-13,cs)
);
},
{
closed = 1;
nodes = (
(400,42,o),
(342,112,o),
(342,230,cs),
(342,345,o),
(400,418,o),
(498,418,cs),
(600,418,o),
(659,348,o),
(659,230,cs),
(659,113,o),
(601,42,o),
(500,42,cs)
);
}
);
width = 788;
}
);
metricRight = "=|ke-canadian";
note = uni14C0;
unicode = 5312;
},
{
glyphname = "ni-canadian";
kernRight = niright;
lastChange = "2023-01-13 15:54:43 +0000";
layers = (
{
anchors = (
{
name = middle_center_can;
pos = (288,245);
},
{
name = top_center_can;
pos = (297,490);
},
{
name = top_left_can;
pos = (99,490);
},
{
name = top_right_can;
pos = (696,490);
}
);
layerId = "C6C6CC8B-76AD-4983-B2A6-35FF5D496205";
shapes = (
{
closed = 1;
nodes = (
(421,-13,o),
(506,79,o),
(506,229,cs),
(506,321,o),
(469,402,o),
(393,433,c),
(389,416,l),
(725,416,l),
(725,472,l),
(296,472,ls),
(152,472,o),
(68,378,o),
(68,229,cs),
(68,80,o),
(155,-13,o),
(287,-13,cs)
);
},
{
closed = 1;
nodes = (
(186,42,o),
(128,113,o),
(128,230,cs),
(128,348,o),
(187,418,o),
(289,418,cs),
(387,418,o),
(445,346,o),
(445,230,cs),
(445,112,o),
(388,42,o),
(287,42,cs)
);
}
);
width = 787;
}
);
metricLeft = "ke-canadian";
metricRight = "=|ne-canadian";
note = uni14C2;
unicode = 5314;
},
{
glyphname = "no-canadian";
kernLeft = noleft;
lastChange = "2023-01-13 15:54:47 +0000";
layers = (
{
anchors = (
{
name = middle_center_can;
pos = (499,245);
},
{
name = top_center_can;
pos = (497,490);
},
{
name = top_double;
pos = (500,490);
},
{
name = top_left_can;
pos = (93,490);
},
{
name = top_right_can;
pos = (690,490);
}
);
layerId = "C6C6CC8B-76AD-4983-B2A6-35FF5D496205";
shapes = (
{
closed = 1;
nodes = (
(495,0,ls),
(636,0,o),
(720,92,o),
(720,242,cs),
(720,392,o),
(634,484,o),
(500,484,cs),
(367,484,o),
(281,392,o),
(281,243,cs),
(281,153,o),
(319,71,o),
(392,40,c),
(399,56,l),
(62,56,l),
(62,0,l)
);
},
{
closed = 1;
nodes = (
(400,54,o),
(342,127,o),
(342,242,cs),
(342,360,o),
(400,430,o),
(500,430,cs),
(601,430,o),
(659,359,o),
(659,242,cs),
(659,124,o),
(600,54,o),
(498,54,cs)
);
}
);
width = 788;
}
);
metricLeft = "ne-canadian";
metricRight = "=|ke-canadian";
note = uni14C4;
unicode = 5316;
},
{
glyphname = "na-canadian";
kernRight = naright;
lastChange = "2023-01-13 15:54:43 +0000";
layers = (
{
anchors = (
{
name = middle_center_can;
pos = (288,245);
},
{
name = top_center_can;
pos = (291,490);
},
{
name = top_double;
pos = (432,490);
},
{
name = top_left_can;
pos = (99,490);
},
{
name = top_right_can;
pos = (696,490);
}
);
layerId = "C6C6CC8B-76AD-4983-B2A6-35FF5D496205";
shapes = (
{
closed = 1;
nodes = (
(725,0,l),
(725,56,l),
(389,56,l),
(394,40,l),
(469,71,o),
(506,152,o),
(506,243,cs),
(506,393,o),
(421,484,o),
(287,484,cs),
(155,484,o),
(68,392,o),
(68,242,cs),
(68,93,o),
(152,0,o),
(294,0,cs)
);
},
{
closed = 1;
nodes = (
(187,54,o),
(128,124,o),
(128,242,cs),
(128,359,o),
(186,430,o),
(287,430,cs),
(388,430,o),
(445,360,o),
(445,242,cs),
(445,127,o),
(387,54,o),
(289,54,cs)
);
}
);
width = 787;
}
);
metricLeft = "ke-canadian";
metricRight = "=|ne-canadian";
note = uni14C7;
unicode = 5319;
},
{
glyphname = "n-canadian";
kernLeft = mwestleft;
kernRight = mwestright;
lastChange = "2023-01-13 15:54:43 +0000";
layers = (
{
layerId = "C6C6CC8B-76AD-4983-B2A6-35FF5D496205";
shapes = (
{
closed = 1;
nodes = (
(418,434,l),
(418,477,l),
(230,477,l),
(232,457,l),
(270,470,o),
(292,517,o),
(292,567,cs),
(292,646,o),
(244,696,o),
(175,696,cs),
(106,696,o),
(58,646,o),
(58,566,cs),
(58,486,o),
(105,434,o),
(181,434,cs)
);
},
{
closed = 1;
nodes = (
(130,470,o),
(99,506,o),
(99,566,cs),
(99,625,o),
(130,660,o),
(176,660,cs),
(220,660,o),
(250,625,o),
(250,565,cs),
(250,505,o),
(220,470,o),
(175,470,cs)
);
}
);
width = 468;
}
);
metricLeft = "=|k-canadian";
note = uni14D0;
unicode = 5328;
},
{
glyphname = "nh-canadian";
kernLeft = mwestleft;
kernRight = mwestright;
lastChange = "2023-01-13 15:54:47 +0000";
layers = (
{
layerId = "C6C6CC8B-76AD-4983-B2A6-35FF5D496205";
shapes = (
{
closed = 1;
nodes = (
(289,434,ls),
(364,434,o),
(412,486,o),
(412,566,cs),
(412,646,o),
(363,696,o),
(295,696,cs),
(225,696,o),
(177,646,o),
(177,567,cs),
(177,517,o),
(200,470,o),
(238,457,c),
(240,477,l),
(50,477,l),
(50,434,l)
);
},
{
closed = 1;
nodes = (
(249,470,o),
(219,505,o),
(219,565,cs),
(219,625,o),
(249,660,o),
(294,660,cs),
(339,660,o),
(370,625,o),
(370,566,cs),
(370,506,o),
(339,470,o),
(295,470,cs)
);
}
);
width = 470;
}
);
metricLeft = "=|n-canadian";
metricRight = "=|n-canadian";
note = uni14D2;
unicode = 5330;
},
{
glyphname = "le-canadian";
kernLeft = neleft;
lastChange = "2023-01-13 15:54:47 +0000";
layers = (
{
anchors = (
{
name = middle_center_can;
pos = (499,245);
},
{
name = top_center_can;
pos = (492,490);
},
{
name = top_left_can;
pos = (93,490);
},
{
name = top_right_can;
pos = (690,490);
}
);
layerId = "C6C6CC8B-76AD-4983-B2A6-35FF5D496205";
shapes = (
{
closed = 1;
nodes = (
(483,0,ls),
(630,0,o),
(720,90,o),
(720,236,cs),
(720,383,o),
(635,472,o),
(480,472,cs),
(62,472,l),
(62,415,l),
(481,415,ls),
(596,415,o),
(659,350,o),
(659,235,cs),
(659,122,o),
(594,55,o),
(480,55,cs),
(439,55,l),
(439,0,l)
);
}
);
width = 788;
}
);
metricLeft = "ne-canadian";
metricRight = "=|ke-canadian";
note = uni14D3;
unicode = 5331;
},
{
glyphname = "li-canadian";
kernRight = niright;
lastChange = "2023-01-13 15:54:43 +0000";
layers = (
{
anchors = (
{
name = middle_center_can;
pos = (288,245);
},
{
name = top_center_can;
pos = (297,490);
},
{
name = top_left_can;
pos = (99,490);
},
{
name = top_right_can;
pos = (696,490);
}
);
layerId = "C6C6CC8B-76AD-4983-B2A6-35FF5D496205";
shapes = (
{
closed = 1;
nodes = (
(350,0,l),
(350,55,l),
(309,55,ls),
(191,55,o),
(129,122,o),
(129,234,cs),
(129,344,o),
(185,415,o),
(308,415,cs),
(725,415,l),
(725,472,l),
(307,472,ls),
(151,472,o),
(68,377,o),
(68,235,cs),
(68,90,o),
(156,0,o),
(304,0,cs)
);
}
);
width = 787;
}
);
metricLeft = "ke-canadian";
metricRight = "=|ne-canadian";
note = uni14D5;
unicode = 5333;
},
{
glyphname = "lo-canadian";
kernLeft = noleft;
lastChange = "2023-01-13 15:54:47 +0000";
layers = (
{
anchors = (
{
name = middle_center_can;
pos = (499,245);
},
{
name = top_center_can;
pos = (497,490);
},
{
name = top_double;
pos = (483,490);
},
{
name = top_left_can;
pos = (93,490);
},
{
name = top_right_can;
pos = (690,490);
}
);
layerId = "C6C6CC8B-76AD-4983-B2A6-35FF5D496205";
shapes = (
{
closed = 1;
nodes = (
(478,0,ls),
(633,0,o),
(720,90,o),
(720,237,cs),
(720,383,o),
(631,472,o),
(483,472,cs),
(439,472,l),
(439,416,l),
(479,416,ls),
(596,416,o),
(659,351,o),
(659,237,cs),
(659,123,o),
(596,56,o),
(479,56,cs),
(62,56,l),
(62,0,l)
);
}
);
width = 788;
}
);
metricLeft = "ne-canadian";
metricRight = "=|ke-canadian";
note = uni14D7;
unicode = 5335;
},
{
glyphname = "la-canadian";
kernRight = naright;
lastChange = "2023-01-13 15:54:43 +0000";
layers = (
{
anchors = (
{
name = middle_center_can;
pos = (288,245);
},
{
name = top_center_can;
pos = (291,490);
},
{
name = top_left_can;
pos = (99,490);
},
{
name = top_right_can;
pos = (696,490);
}
);
layerId = "C6C6CC8B-76AD-4983-B2A6-35FF5D496205";
shapes = (
{
closed = 1;
nodes = (
(725,0,l),
(725,56,l),
(311,56,ls),
(193,56,o),
(129,122,o),
(129,238,cs),
(129,351,o),
(190,416,o),
(306,416,cs),
(350,416,l),
(350,472,l),
(306,472,ls),
(154,472,o),
(68,382,o),
(68,237,cs),
(68,88,o),
(156,0,o),
(310,0,cs)
);
}
);
width = 787;
}
);
metricLeft = "ke-canadian";
metricRight = "=|ne-canadian";
note = uni14DA;
unicode = 5338;
},
{
glyphname = "l-canadian";
kernLeft = mwestleft;
kernRight = mwestright;
lastChange = "2023-01-13 15:54:43 +0000";
layers = (
{
layerId = "C6C6CC8B-76AD-4983-B2A6-35FF5D496205";
shapes = (
{
closed = 1;
nodes = (
(418,345,l),
(418,387,l),
(240,387,ls),
(154,387,o),
(111,434,o),
(111,518,cs),
(111,601,o),
(154,647,o),
(237,647,cs),
(250,647,l),
(250,690,l),
(234,690,ls),
(126,690,o),
(66,624,o),
(66,517,cs),
(66,411,o),
(126,345,o),
(236,345,cs)
);
}
);
width = 468;
}
);
metricLeft = "t-canadian";
metricRight = "m-canadian";
note = uni14EA;
unicode = 5354;
},
{
glyphname = "lWestCree-canadian";
kernLeft = mwestleft;
kernRight = mwestright;
lastChange = "2023-01-13 15:54:43 +0000";
layers = (
{
layerId = "C6C6CC8B-76AD-4983-B2A6-35FF5D496205";
shapes = (
{
closed = 1;
nodes = (
(301,345,l),
(301,376,l),
(104,454,l),
(104,432,l),
(301,505,l),
(301,528,l),
(104,603,l),
(104,581,l),
(301,659,l),
(301,690,l),
(291,690,l),
(68,602,l),
(68,582,l),
(266,508,l),
(266,526,l),
(68,452,l),
(68,433,l),
(291,345,l)
);
}
);
width = 369;
}
);
metricRight = "=|";
note = uni14EB;
unicode = 5355;
},
{
glyphname = "mediall-canadian";
lastChange = "2023-01-13 15:54:47 +0000";
layers = (
{
layerId = "C6C6CC8B-76AD-4983-B2A6-35FF5D496205";
shapes = (
{
closed = 1;
nodes = (
(560,-13,l),
(560,34,l),
(132,200,l),
(132,171,l),
(560,328,l),
(560,360,l),
(132,519,l),
(132,491,l),
(560,657,l),
(560,702,l),
(542,702,l),
(75,521,l),
(75,491,l),
(503,332,l),
(503,356,l),
(75,199,l),
(75,169,l),
(542,-13,l)
);
}
);
width = 635;
}
);
metricRight = "=|";
note = uni14EC;
unicode = 5356;
},
{
glyphname = "se-canadian";
kernRight = seright;
lastChange = "2023-01-13 15:54:43 +0000";
layers = (
{
anchors = (
{
name = top_left_can;
pos = (108,690);
},
{
name = top_right_can;
pos = (406,690);
}
);
layerId = "C6C6CC8B-76AD-4983-B2A6-35FF5D496205";
shapes = (
{
closed = 1;
nodes = (
(437,0,l),
(437,314,l),
(400,314,ls),
(229,314,o),
(139,404,o),
(139,586,cs),
(139,690,l),
(77,690,l),
(77,581,ls),
(77,374,o),
(193,258,o),
(389,258,cs),
(418,258,l),
(375,283,l),
(375,0,l)
);
}
);
width = 517;
}
);
note = uni14ED;
unicode = 5357;
},
{
glyphname = "si-canadian";
kernLeft = sileft;
lastChange = "2023-01-13 15:54:43 +0000";
layers = (
{
anchors = (
{
name = top_left_can;
pos = (112,690);
},
{
name = top_right_can;
pos = (409,690);
}
);
layerId = "C6C6CC8B-76AD-4983-B2A6-35FF5D496205";
shapes = (
{
closed = 1;
nodes = (
(142,0,l),
(142,283,l),
(99,258,l),
(128,258,ls),
(324,258,o),
(440,374,o),
(440,581,cs),
(440,690,l),
(378,690,l),
(378,586,ls),
(378,404,o),
(288,314,o),
(117,314,cs),
(80,314,l),
(80,0,l)
);
}
);
width = 517;
}
);
metricLeft = "=|se-canadian";
metricRight = "=|se-canadian";
note = uni14EF;
unicode = 5359;
},
{
glyphname = "so-canadian";
kernRight = soright;
lastChange = "2023-01-13 15:54:43 +0000";
layers = (
{
anchors = (
{
name = top_double;
pos = (406,690);
},
{
name = top_left_can;
pos = (108,690);
},
{
name = top_right_can;
pos = (406,690);
}
);
layerId = "C6C6CC8B-76AD-4983-B2A6-35FF5D496205";
shapes = (
{
closed = 1;
nodes = (
(139,0,l),
(139,103,ls),
(139,286,o),
(229,376,o),
(400,376,cs),
(437,376,l),
(437,690,l),
(375,690,l),
(375,407,l),
(418,432,l),
(389,432,ls),
(193,432,o),
(77,316,o),
(77,109,cs),
(77,0,l)
);
}
);
width = 517;
}
);
metricLeft = "se-canadian";
metricRight = "se-canadian";
note = uni14F1;
unicode = 5361;
},
{
glyphname = "sa-canadian";
kernLeft = saleft;
kernRight = saright;
lastChange = "2023-01-13 15:54:43 +0000";
layers = (
{
anchors = (
{
name = top_left_can;
pos = (112,690);
},
{
name = top_right_can;
pos = (409,690);
}
);
layerId = "C6C6CC8B-76AD-4983-B2A6-35FF5D496205";
shapes = (
{
closed = 1;
nodes = (
(440,0,l),
(440,109,ls),
(440,316,o),
(324,432,o),
(128,432,cs),
(99,432,l),
(142,407,l),
(142,690,l),
(80,690,l),
(80,376,l),
(117,376,ls),
(288,376,o),
(378,286,o),
(378,103,cs),
(378,0,l)
);
}
);
width = 517;
}
);
metricLeft = "=|se-canadian";
metricRight = "=|se-canadian";
note = uni14F4;
unicode = 5364;
},
{
glyphname = "s-canadian";
kernLeft = mwestleft;
kernRight = mwestright;
lastChange = "2023-01-13 15:54:43 +0000";
layers = (
{
layerId = "C6C6CC8B-76AD-4983-B2A6-35FF5D496205";
shapes = (
{
closed = 1;
nodes = (
(277,345,l),
(277,402,ls),
(277,505,o),
(222,573,o),
(119,573,cs),
(89,573,l),
(114,549,l),
(114,690,l),
(68,690,l),
(68,533,l),
(104,533,ls),
(192,533,o),
(232,487,o),
(232,399,cs),
(232,345,l)
);
}
);
width = 345;
}
);
metricRight = "=|";
note = uni1505;
unicode = 5381;
},
{
color = 6;
glyphname = "sAthapascan-canadian";
lastChange = "2023-01-13 15:54:43 +0000";
layers = (
{
layerId = "C6C6CC8B-76AD-4983-B2A6-35FF5D496205";
shapes = (
{
closed = 1;
nodes = (
(258,177,o),
(301,216,o),
(301,270,cs),
(301,312,o),
(280,340,o),
(232,358,cs),
(160,384,ls),
(126,398,o),
(115,414,o),
(115,440,cs),
(115,474,o),
(140,497,o),
(186,497,cs),
(234,497,o),
(260,476,o),
(261,429,c),
(302,429,l),
(301,493,o),
(260,533,o),
(186,533,cs),
(116,533,o),
(73,495,o),
(73,440,cs),
(73,398,o),
(97,368,o),
(142,351,cs),
(213,325,ls),
(247,311,o),
(260,297,o),
(260,269,cs),
(260,233,o),
(233,213,o),
(186,213,cs),
(137,213,o),
(110,233,o),
(109,284,c),
(68,284,l),
(69,215,o),
(109,177,o),
(185,177,cs)
);
}
);
width = 370;
}
);
metricRight = "=|";
note = uni1506;
unicode = 5382;
},
{
glyphname = "sw-canadian";
kernLeft = mwestleft;
kernRight = mwestright;
lastChange = "2023-01-13 15:54:43 +0000";
layers = (
{
layerId = "C6C6CC8B-76AD-4983-B2A6-35FF5D496205";
shapes = (
{
closed = 1;
nodes = (
(114,345,l),
(114,399,ls),
(114,487,o),
(154,533,o),
(242,533,cs),
(277,533,l),
(277,690,l),
(232,690,l),
(232,549,l),
(257,573,l),
(226,573,ls),
(123,573,o),
(68,505,o),
(68,402,cs),
(68,345,l)
);
}
);
width = 345;
}
);
metricLeft = "=|s-canadian";
metricRight = "=|s-canadian";
note = uni1507;
unicode = 5383;
},
{
glyphname = "sBlackfoot-canadian";
lastChange = "2023-01-13 15:54:47 +0000";
layers = (
{
layerId = "C6C6CC8B-76AD-4983-B2A6-35FF5D496205";
shapes = (
{
closed = 1;
nodes = (
(285,345,l),
(285,387,l),
(203,387,ls),
(142,387,o),
(114,416,o),
(114,482,cs),
(114,690,l),
(68,690,l),
(68,478,ls),
(68,391,o),
(112,345,o),
(199,345,c)
);
}
);
width = 335;
}
);
metricLeft = "ai-canadian";
metricRight = "m-canadian";
note = uni1508;
unicode = 5384;
},
{
glyphname = "moosecreesk-canadian";
kernLeft = mwestleft;
kernRight = mwestright;
lastChange = "2023-01-13 15:54:43 +0000";
layers = (
{
layerId = "C6C6CC8B-76AD-4983-B2A6-35FF5D496205";
shapes = (
{
closed = 1;
nodes = (
(253,217,o),
(303,269,o),
(303,361,cs),
(303,498,o),
(246,572,o),
(125,572,cs),
(95,572,l),
(114,548,l),
(114,690,l),
(69,690,l),
(69,533,l),
(118,533,ls),
(217,533,o),
(249,485,o),
(256,409,c),
(272,400,l),
(265,444,o),
(228,478,o),
(182,478,cs),
(116,478,o),
(68,429,o),
(68,350,cs),
(68,267,o),
(119,217,o),
(185,217,cs)
);
},
{
closed = 1;
nodes = (
(140,253,o),
(109,289,o),
(109,350,cs),
(109,409,o),
(140,443,o),
(185,443,cs),
(229,443,o),
(261,409,o),
(261,349,cs),
(261,290,o),
(233,253,o),
(185,253,cs)
);
}
);
width = 371;
}
);
metricRight = "=|";
note = uni1509;
unicode = 5385;
},
{
glyphname = "skwNaskapi-canadian";
kernLeft = mwestleft;
kernRight = mwestright;
lastChange = "2023-01-13 15:54:43 +0000";
layers = (
{
layerId = "C6C6CC8B-76AD-4983-B2A6-35FF5D496205";
shapes = (
{
closed = 1;
nodes = (
(252,217,o),
(303,267,o),
(303,350,cs),
(303,429,o),
(255,478,o),
(189,478,cs),
(142,478,o),
(106,444,o),
(99,400,c),
(115,409,l),
(122,485,o),
(154,533,o),
(253,533,cs),
(302,533,l),
(302,690,l),
(256,690,l),
(256,548,l),
(276,572,l),
(246,572,ls),
(125,572,o),
(68,498,o),
(68,361,cs),
(68,269,o),
(118,217,o),
(185,217,cs)
);
},
{
closed = 1;
nodes = (
(139,253,o),
(110,290,o),
(110,349,cs),
(110,409,o),
(142,443,o),
(185,443,cs),
(230,443,o),
(261,409,o),
(261,350,cs),
(261,289,o),
(231,253,o),
(185,253,cs)
);
}
);
width = 371;
}
);
metricLeft = "=|moosecreesk-canadian";
metricRight = "=|moosecreesk-canadian";
note = uni150A;
unicode = 5386;
},
{
glyphname = "swNaskapi-canadian";
lastChange = "2023-01-13 15:54:43 +0000";
layers = (
{
layerId = "C6C6CC8B-76AD-4983-B2A6-35FF5D496205";
shapes = (
{
closed = 1;
nodes = (
(295,178,l),
(295,232,ls),
(295,332,o),
(240,399,o),
(136,399,cs),
(108,399,l),
(128,376,l),
(128,513,l),
(82,513,l),
(82,360,l),
(122,360,ls),
(209,360,o),
(249,316,o),
(249,229,cs),
(249,178,l)
);
},
{
closed = 1;
nodes = (
(295,62,o),
(313,80,o),
(313,104,cs),
(313,128,o),
(295,146,o),
(271,146,cs),
(249,146,o),
(230,128,o),
(230,104,cs),
(230,80,o),
(249,62,o),
(271,62,cs)
);
},
{
closed = 1;
nodes = (
(128,545,o),
(147,563,o),
(147,586,cs),
(147,610,o),
(128,628,o),
(104,628,cs),
(82,628,o),
(63,610,o),
(63,586,cs),
(63,563,o),
(82,545,o),
(104,545,cs)
);
}
);
width = 376;
}
);
metricRight = "=|";
note = uni150B;
unicode = 5387;
},
{
glyphname = "spwaNaskapi-canadian";
lastChange = "2023-01-13 15:54:43 +0000";
layers = (
{
layerId = "C6C6CC8B-76AD-4983-B2A6-35FF5D496205";
shapes = (
{
closed = 1;
nodes = (
(578,0,l),
(578,56,l),
(99,359,l),
(99,330,l),
(578,634,l),
(578,690,l),
(559,690,l),
(37,358,l),
(37,331,l),
(559,0,l)
);
},
{
closed = 1;
nodes = (
(154,489,o),
(172,507,o),
(172,530,cs),
(172,554,o),
(154,573,o),
(130,573,cs),
(108,573,o),
(89,554,o),
(89,530,cs),
(89,507,o),
(108,489,o),
(130,489,cs)
);
},
{
closed = 1;
nodes = (
(329,597,l),
(329,639,ls),
(329,712,o),
(291,759,o),
(215,759,cs),
(193,759,l),
(219,740,l),
(219,837,l),
(175,837,l),
(175,723,l),
(203,723,ls),
(260,723,o),
(284,692,o),
(284,637,cs),
(284,597,l)
);
},
{
closed = 1;
nodes = (
(488,699,o),
(507,717,o),
(507,741,cs),
(507,764,o),
(488,782,o),
(465,782,cs),
(442,782,o),
(423,764,o),
(423,741,cs),
(423,717,o),
(442,699,o),
(465,699,cs)
);
}
);
width = 635;
}
);
metricRight = "pa-canadian";
metricWidth = "pa-canadian";
note = uni150C;
unicode = 5388;
},
{
glyphname = "she-canadian";
kernRight = caright;
lastChange = "2023-01-13 15:54:47 +0000";
layers = (
{
anchors = (
{
name = top_left_can;
pos = (274,690);
},
{
name = top_right_can;
pos = (665,690);
}
);
layerId = "C6C6CC8B-76AD-4983-B2A6-35FF5D496205";
shapes = (
{
closed = 1;
nodes = (
(753,-13,o),
(828,76,o),
(828,235,cs),
(828,298,l),
(766,298,l),
(766,232,ls),
(766,106,o),
(717,43,o),
(628,43,cs),
(535,43,o),
(493,107,o),
(485,233,cs),
(472,455,ls),
(463,613,o),
(399,702,o),
(273,702,cs),
(146,702,o),
(69,612,o),
(69,455,cs),
(69,391,l),
(130,391,l),
(130,460,ls),
(130,582,o),
(182,647,o),
(271,647,cs),
(359,647,o),
(405,582,o),
(412,458,cs),
(424,235,ls),
(434,74,o),
(497,-13,o),
(627,-13,cs)
);
}
);
width = 897;
}
);
metricRight = "=|";
note = uni1510;
unicode = 5392;
},
{
glyphname = "shi-canadian";
kernLeft = coleft;
lastChange = "2023-01-13 15:54:47 +0000";
layers = (
{
anchors = (
{
name = top_left_can;
pos = (235,690);
},
{
name = top_right_can;
pos = (625,690);
}
);
layerId = "C6C6CC8B-76AD-4983-B2A6-35FF5D496205";
shapes = (
{
closed = 1;
nodes = (
(400,-13,o),
(463,74,o),
(472,235,cs),
(485,458,ls),
(493,582,o),
(537,647,o),
(626,647,cs),
(715,647,o),
(766,582,o),
(766,460,cs),
(766,391,l),
(828,391,l),
(828,455,ls),
(828,612,o),
(751,702,o),
(623,702,cs),
(497,702,o),
(434,613,o),
(424,455,cs),
(412,233,ls),
(404,107,o),
(361,43,o),
(269,43,cs),
(180,43,o),
(130,106,o),
(130,232,cs),
(130,298,l),
(69,298,l),
(69,235,ls),
(69,76,o),
(144,-13,o),
(270,-13,cs)
);
}
);
width = 897;
}
);
metricLeft = "she-canadian";
metricRight = "she-canadian";
note = uni1511;
unicode = 5393;
},
{
glyphname = "sho-canadian";
lastChange = "2023-01-13 15:54:43 +0000";
layers = (
{
anchors = (
{
name = top_center_can;
pos = (460,490);
},
{
name = top_left_can;
pos = (271,490);
},
{
name = top_right_can;
pos = (647,490);
}
);
layerId = "C6C6CC8B-76AD-4983-B2A6-35FF5D496205";
shapes = (
{
closed = 1;
nodes = (
(330,42,l),
(198,42,o),
(128,87,o),
(128,174,cs),
(128,242,o),
(167,287,o),
(251,287,cs),
(383,287,o),
(519,129,o),
(672,129,cs),
(785,129,o),
(851,197,o),
(851,297,cs),
(851,416,o),
(754,485,o),
(591,484,c),
(589,431,l),
(722,431,o),
(790,384,o),
(790,298,cs),
(790,230,o),
(752,185,o),
(668,185,cs),
(537,185,o),
(400,342,o),
(246,342,cs),
(133,342,o),
(68,274,o),
(68,176,cs),
(68,55,o),
(165,-13,o),
(328,-13,c)
);
}
);
width = 919;
}
);
metricLeft = "ke-canadian";
metricRight = "=|ke-canadian";
note = uni1513;
unicode = 5395;
},
{
glyphname = "sha-canadian";
lastChange = "2023-01-13 15:54:43 +0000";
layers = (
{
anchors = (
{
name = top_center_can;
pos = (460,490);
},
{
name = top_left_can;
pos = (271,490);
},
{
name = top_right_can;
pos = (648,490);
}
);
layerId = "C6C6CC8B-76AD-4983-B2A6-35FF5D496205";
shapes = (
{
closed = 1;
nodes = (
(754,-14,o),
(851,55,o),
(851,176,cs),
(851,274,o),
(786,342,o),
(672,342,cs),
(519,342,o),
(383,185,o),
(251,185,cs),
(167,185,o),
(128,230,o),
(128,298,cs),
(128,384,o),
(198,432,o),
(330,431,c),
(328,484,l),
(165,485,o),
(68,416,o),
(68,297,cs),
(68,197,o),
(132,129,o),
(246,129,cs),
(400,129,o),
(537,287,o),
(668,287,cs),
(752,287,o),
(790,242,o),
(790,174,cs),
(790,87,o),
(722,41,o),
(589,42,c),
(591,-13,l)
);
}
);
width = 919;
}
);
metricLeft = "ke-canadian";
metricRight = "=|ke-canadian";
note = uni1515;
unicode = 5397;
},
{
glyphname = "sh-canadian";
kernLeft = mwestleft;
kernRight = mwestright;
lastChange = "2023-01-13 15:54:43 +0000";
layers = (
{
layerId = "C6C6CC8B-76AD-4983-B2A6-35FF5D496205";
shapes = (
{
closed = 1;
nodes = (
(567,291,o),
(641,345,o),
(641,440,cs),
(641,515,o),
(589,569,o),
(504,569,cs),
(388,569,o),
(305,463,o),
(206,463,cs),
(146,463,o),
(112,496,o),
(112,549,cs),
(112,616,o),
(166,655,o),
(264,655,c),
(262,697,l),
(141,697,o),
(66,642,o),
(66,548,cs),
(66,472,o),
(119,418,o),
(203,418,cs),
(319,418,o),
(403,526,o),
(501,526,cs),
(562,526,o),
(595,492,o),
(595,439,cs),
(595,371,o),
(541,332,o),
(443,332,c),
(445,291,l)
);
}
);
width = 707;
}
);
metricLeft = "t-canadian";
metricRight = "=|";
note = uni1525;
unicode = 5413;
},
{
glyphname = "ye-canadian";
kernLeft = yeleft;
lastChange = "2023-01-13 15:54:43 +0000";
layers = (
{
anchors = (
{
name = middle_right_can;
pos = (611,345);
},
{
name = top_left_can;
pos = (78,690);
},
{
name = top_right_can;
pos = (440,690);
}
);
layerId = "C6C6CC8B-76AD-4983-B2A6-35FF5D496205";
shapes = (
{
closed = 1;
nodes = (
(470,0,l),
(470,310,l),
(118,310,l),
(121,278,l),
(484,664,l),
(441,701,l),
(47,280,l),
(47,255,l),
(409,255,l),
(409,0,l)
);
}
);
width = 550;
}
);
note = uni1526;
unicode = 5414;
},
{
glyphname = "yi-canadian";
kernRight = yiright;
lastChange = "2023-01-13 15:54:47 +0000";
layers = (
{
anchors = (
{
name = top_left_can;
pos = (111,690);
},
{
name = top_right_can;
pos = (473,690);
}
);
layerId = "C6C6CC8B-76AD-4983-B2A6-35FF5D496205";
shapes = (
{
closed = 1;
nodes = (
(142,0,l),
(142,255,l),
(503,255,l),
(503,280,l),
(110,701,l),
(69,664,l),
(432,279,l),
(433,310,l),
(80,310,l),
(80,0,l)
);
}
);
width = 550;
}
);
metricRight = "=|ye-canadian";
metricWidth = "ye-canadian";
note = uni1528;
unicode = 5416;
},
{
glyphname = "yo-canadian";
kernLeft = yoleft;
lastChange = "2023-01-13 15:54:43 +0000";
layers = (
{
anchors = (
{
name = middle_right_can;
pos = (611,345);
},
{
name = top_double;
pos = (440,690);
},
{
name = top_left_can;
pos = (78,690);
},
{
name = top_right_can;
pos = (440,690);
}
);
layerId = "C6C6CC8B-76AD-4983-B2A6-35FF5D496205";
shapes = (
{
closed = 1;
nodes = (
(483,26,l),
(120,411,l),
(118,380,l),
(470,380,l),
(470,690,l),
(409,690,l),
(409,435,l),
(47,435,l),
(47,410,l),
(441,-12,l)
);
}
);
width = 550;
}
);
metricLeft = "ye-canadian";
metricWidth = "ye-canadian";
note = uni152A;
unicode = 5418;
},
{
glyphname = "ya-canadian";
kernRight = yaright;
lastChange = "2023-01-13 15:54:47 +0000";
layers = (
{
anchors = (
{
name = top_left_can;
pos = (111,690);
},
{
name = top_right_can;
pos = (473,690);
}
);
layerId = "C6C6CC8B-76AD-4983-B2A6-35FF5D496205";
shapes = (
{
closed = 1;
nodes = (
(503,410,l),
(503,435,l),
(142,435,l),
(142,690,l),
(80,690,l),
(80,380,l),
(433,380,l),
(431,412,l),
(68,26,l),
(110,-12,l)
);
}
);
width = 550;
}
);
metricRight = "=|ye-canadian";
metricWidth = "ye-canadian";
note = uni152D;
unicode = 5421;
},
{
glyphname = "y-canadian";
kernLeft = mwestleft;
kernRight = mwestright;
lastChange = "2023-01-13 15:54:43 +0000";
layers = (
{
layerId = "C6C6CC8B-76AD-4983-B2A6-35FF5D496205";
shapes = (
{
closed = 1;
nodes = (
(293,546,l),
(293,562,l),
(115,562,l),
(115,690,l),
(69,690,l),
(69,524,l),
(246,524,l),
(245,553,l),
(68,362,l),
(99,336,l)
);
}
);
width = 334;
}
);
note = uni153E;
unicode = 5438;
},
{
glyphname = "biblecreey-canadian";
lastChange = "2023-01-13 15:54:43 +0000";
layers = (
{
layerId = "C6C6CC8B-76AD-4983-B2A6-35FF5D496205";
shapes = (
{
closed = 1;
nodes = (
(170,639,l),
(145,639,l),
(240,345,l),
(266,345,l),
(360,639,l),
(335,639,l),
(405,345,l),
(445,345,l),
(445,357,l),
(367,690,l),
(336,690,l),
(241,394,l),
(265,394,l),
(169,690,l),
(138,690,l),
(60,357,l),
(60,345,l),
(100,345,l)
);
}
);
width = 505;
}
);
metricRight = "=|";
note = uni153F;
unicode = 5439;
},
{
glyphname = "yWestCree-canadian";
lastChange = "2023-01-13 15:54:47 +0000";
layers = (
{
layerId = "C6C6CC8B-76AD-4983-B2A6-35FF5D496205";
shapes = (
{
closed = 1;
nodes = (
(243,189,l),
(243,330,l),
(376,330,l),
(376,374,l),
(243,374,l),
(243,513,l),
(199,513,l),
(199,374,l),
(66,374,l),
(66,330,l),
(199,330,l),
(199,189,l)
);
}
);
width = 442;
}
);
metricLeft = "shorthorizontalstrokeFinal-canadian";
metricRight = "shorthorizontalstrokeFinal-canadian";
note = uni1540;
unicode = 5440;
},
{
glyphname = "re-canadian";
kernRight = niright;
lastChange = "2023-01-13 15:54:43 +0000";
layers = (
{
anchors = (
{
name = top_center_can;
pos = (290,490);
},
{
name = top_left_can;
pos = (108,490);
},
{
name = top_right_can;
pos = (738,490);
}
);
layerId = "C6C6CC8B-76AD-4983-B2A6-35FF5D496205";
shapes = (
{
closed = 1;
nodes = (
(424,-13,o),
(501,79,o),
(501,229,cs),
(501,416,l),
(769,416,l),
(769,472,l),
(440,472,l),
(440,229,ls),
(440,109,o),
(388,43,o),
(290,43,cs),
(191,43,o),
(138,110,o),
(138,229,cs),
(138,472,l),
(76,472,l),
(76,229,ls),
(76,78,o),
(156,-13,o),
(290,-13,cs)
);
}
);
width = 831;
}
);
metricRight = "=|ne-canadian";
note = uni1542;
unicode = 5442;
},
{
glyphname = "reRCree-canadian";
kernLeft = neleft;
lastChange = "2023-01-13 15:54:47 +0000";
layers = (
{
anchors = (
{
name = top_center_can;
pos = (541,490);
},
{
name = top_left_can;
pos = (93,490);
},
{
name = top_right_can;
pos = (723,490);
}
);
layerId = "C6C6CC8B-76AD-4983-B2A6-35FF5D496205";
shapes = (
{
closed = 1;
nodes = (
(676,-13,o),
(753,78,o),
(753,229,cs),
(753,472,l),
(692,472,l),
(692,229,ls),
(692,110,o),
(640,43,o),
(542,43,cs),
(443,43,o),
(390,107,o),
(390,226,cs),
(390,472,l),
(62,472,l),
(62,416,l),
(329,416,l),
(329,227,ls),
(329,77,o),
(408,-13,o),
(542,-13,cs)
);
}
);
width = 829;
}
);
metricLeft = "ne-canadian";
metricRight = "=|re-canadian";
note = uni1543;
unicode = 5443;
},
{
glyphname = "leWestCree-canadian";
kernLeft = noleft;
lastChange = "2023-01-13 15:54:47 +0000";
layers = (
{
anchors = (
{
name = top_center_can;
pos = (541,490);
},
{
name = top_left_can;
pos = (93,490);
},
{
name = top_right_can;
pos = (723,490);
}
);
layerId = "C6C6CC8B-76AD-4983-B2A6-35FF5D496205";
shapes = (
{
closed = 1;
nodes = (
(390,0,l),
(390,242,ls),
(390,362,o),
(442,430,o),
(541,430,cs),
(639,430,o),
(692,362,o),
(692,243,cs),
(692,0,l),
(753,0,l),
(753,243,ls),
(753,393,o),
(676,484,o),
(542,484,cs),
(408,484,o),
(329,392,o),
(329,242,cs),
(329,56,l),
(62,56,l),
(62,0,l)
);
}
);
width = 829;
}
);
metricLeft = "ne-canadian";
metricRight = "=|re-canadian";
note = uni1544;
unicode = 5444;
},
{
glyphname = "ri-canadian";
kernRight = naright;
lastChange = "2023-01-13 15:54:43 +0000";
layers = (
{
anchors = (
{
name = top_center_can;
pos = (290,490);
},
{
name = top_left_can;
pos = (108,490);
},
{
name = top_right_can;
pos = (738,490);
}
);
layerId = "C6C6CC8B-76AD-4983-B2A6-35FF5D496205";
shapes = (
{
closed = 1;
nodes = (
(138,0,l),
(138,243,ls),
(138,362,o),
(190,430,o),
(289,430,cs),
(387,430,o),
(440,365,o),
(440,245,cs),
(440,0,l),
(769,0,l),
(769,56,l),
(501,56,l),
(501,245,ls),
(501,395,o),
(424,484,o),
(289,484,cs),
(156,484,o),
(76,393,o),
(76,242,cs),
(76,0,l)
);
}
);
width = 831;
}
);
metricLeft = "re-canadian";
metricRight = "=|ne-canadian";
note = uni1546;
unicode = 5446;
},
{
glyphname = "ro-canadian";
lastChange = "2023-01-13 15:54:43 +0000";
layers = (
{
anchors = (
{
name = top_center_can;
pos = (225,690);
}
);
layerId = "C6C6CC8B-76AD-4983-B2A6-35FF5D496205";
shapes = (
{
closed = 1;
nodes = (
(142,0,l),
(142,276,l),
(124,255,l),
(227,255,ls),
(369,255,o),
(457,342,o),
(457,471,cs),
(457,604,o),
(374,690,o),
(218,690,cs),
(80,690,l),
(80,634,l),
(219,634,ls),
(334,634,o),
(395,571,o),
(395,472,cs),
(395,374,o),
(332,311,o),
(220,311,cs),
(80,311,l),
(80,0,l)
);
}
);
width = 522;
}
);
metricLeft = "nunavuth-canadian";
note = uni1548;
unicode = 5448;
},
{
glyphname = "loWestCree-canadian";
lastChange = "2023-01-13 15:54:43 +0000";
layers = (
{
anchors = (
{
name = top_center_can;
pos = (252,690);
},
{
name = top_left_can;
pos = (112,690);
}
);
layerId = "C6C6CC8B-76AD-4983-B2A6-35FF5D496205";
shapes = (
{
closed = 1;
nodes = (
(218,0,ls),
(374,0,o),
(457,86,o),
(457,218,cs),
(457,348,o),
(369,435,o),
(227,435,cs),
(124,435,l),
(142,413,l),
(142,690,l),
(80,690,l),
(80,379,l),
(220,379,ls),
(332,379,o),
(395,316,o),
(395,217,cs),
(395,119,o),
(334,56,o),
(219,56,cs),
(80,56,l),
(80,0,l)
);
}
);
width = 522;
}
);
metricLeft = "nunavuth-canadian";
metricRight = "ro-canadian";
note = uni154A;
unicode = 5450;
},
{
glyphname = "ra-canadian";
lastChange = "2023-01-13 15:54:47 +0000";
layers = (
{
anchors = (
{
name = top_center_can;
pos = (296,690);
},
{
name = top_right_can;
pos = (411,690);
}
);
layerId = "C6C6CC8B-76AD-4983-B2A6-35FF5D496205";
shapes = (
{
closed = 1;
nodes = (
(440,0,l),
(440,311,l),
(301,311,ls),
(188,311,o),
(126,374,o),
(126,472,cs),
(126,571,o),
(187,634,o),
(301,634,cs),
(440,634,l),
(440,690,l),
(303,690,ls),
(148,690,o),
(65,604,o),
(65,471,cs),
(65,342,o),
(153,255,o),
(295,255,cs),
(398,255,l),
(380,276,l),
(380,0,l)
);
}
);
width = 520;
}
);
metricLeft = "=|ro-canadian";
metricRight = "nunavuth-canadian";
note = uni154B;
unicode = 5451;
},
{
glyphname = "laWestCree-canadian";
lastChange = "2023-01-13 15:54:47 +0000";
layers = (
{
anchors = (
{
name = top_center_can;
pos = (411,690);
}
);
layerId = "C6C6CC8B-76AD-4983-B2A6-35FF5D496205";
shapes = (
{
closed = 1;
nodes = (
(440,0,l),
(440,56,l),
(301,56,ls),
(187,56,o),
(126,119,o),
(126,217,cs),
(126,316,o),
(188,379,o),
(301,379,cs),
(440,379,l),
(440,690,l),
(380,690,l),
(380,413,l),
(398,435,l),
(295,435,ls),
(153,435,o),
(65,348,o),
(65,218,cs),
(65,86,o),
(148,0,o),
(303,0,cs)
);
}
);
width = 520;
}
);
metricLeft = "=|ro-canadian";
metricRight = "nunavuth-canadian";
note = uni154D;
unicode = 5453;
},
{
glyphname = "r-canadian";
kernLeft = mwestleft;
kernRight = mwestright;
lastChange = "2023-01-13 15:54:43 +0000";
layers = (
{
layerId = "C6C6CC8B-76AD-4983-B2A6-35FF5D496205";
shapes = (
{
closed = 1;
nodes = (
(250,345,l),
(250,509,l),
(182,509,ls),
(128,509,o),
(101,534,o),
(101,580,cs),
(101,625,o),
(127,651,o),
(182,651,cs),
(250,651,l),
(250,690,l),
(183,690,ls),
(102,690,o),
(58,648,o),
(58,580,cs),
(58,513,o),
(103,470,o),
(178,470,cs),
(230,470,l),
(204,490,l),
(204,345,l)
);
}
);
width = 318;
}
);
metricLeft = "=|k-canadian";
note = uni1550;
unicode = 5456;
},
{
glyphname = "rWestCree-canadian";
kernLeft = mwestleft;
kernRight = mwestright;
lastChange = "2023-01-13 15:54:43 +0000";
layers = (
{
layerId = "C6C6CC8B-76AD-4983-B2A6-35FF5D496205";
shapes = (
{
closed = 1;
nodes = (
(78,345,l),
(301,433,l),
(301,452,l),
(102,526,l),
(102,508,l),
(301,582,l),
(301,602,l),
(78,690,l),
(68,690,l),
(68,659,l),
(264,581,l),
(264,603,l),
(68,528,l),
(68,505,l),
(264,432,l),
(264,454,l),
(68,376,l),
(68,345,l)
);
}
);
width = 369;
}
);
metricLeft = "=|lWestCree-canadian";
metricRight = "=|lWestCree-canadian";
note = uni1551;
unicode = 5457;
},
{
glyphname = "rMedial-canadian";
lastChange = "2023-01-13 15:54:43 +0000";
layers = (
{
layerId = "C6C6CC8B-76AD-4983-B2A6-35FF5D496205";
shapes = (
{
closed = 1;
nodes = (
(94,-13,l),
(565,169,l),
(565,198,l),
(134,355,l),
(134,333,l),
(565,492,l),
(565,521,l),
(94,702,l),
(75,702,l),
(75,657,l),
(507,491,l),
(507,519,l),
(75,360,l),
(75,328,l),
(507,171,l),
(507,200,l),
(75,34,l),
(75,-13,l)
);
}
);
width = 640;
}
);
metricLeft = "mediall-canadian";
metricRight = "mediall-canadian";
note = uni1552;
unicode = 5458;
},
{
glyphname = "fe-canadian";
kernLeft = ecanleft;
kernRight = ecanright;
lastChange = "2023-01-13 15:54:43 +0000";
layers = (
{
layerId = "C6C6CC8B-76AD-4983-B2A6-35FF5D496205";
shapes = (
{
closed = 1;
nodes = (
(370,0,l),
(697,670,l),
(697,690,l),
(645,690,l),
(345,66,l),
(360,66,l),
(202,360,l),
(172,353,l),
(197,329,o),
(225,320,o),
(256,320,cs),
(344,320,o),
(407,397,o),
(407,511,cs),
(407,627,o),
(347,702,o),
(251,702,cs),
(156,702,o),
(96,627,o),
(96,515,cs),
(96,467,o),
(107,417,o),
(141,358,cs),
(341,0,l)
);
},
{
closed = 1;
nodes = (
(186,367,o),
(148,425,o),
(148,514,cs),
(148,602,o),
(185,654,o),
(251,654,cs),
(318,654,o),
(355,603,o),
(355,511,cs),
(355,419,o),
(317,367,o),
(252,367,cs)
);
}
);
width = 733;
}
);
metricRight = "e-canadian";
note = uni1553;
unicode = 5459;
},
{
glyphname = "fi-canadian";
kernLeft = icanleft;
kernRight = icanright;
lastChange = "2023-01-13 15:54:43 +0000";
layers = (
{
anchors = (
{
name = top_center_can;
pos = (356,690);
},
{
name = top_left_can;
pos = (127,690);
},
{
name = top_right_can;
pos = (614,690);
}
);
layerId = "C6C6CC8B-76AD-4983-B2A6-35FF5D496205";
shapes = (
{
closed = 1;
nodes = (
(347,-13,o),
(407,63,o),
(407,179,cs),
(407,293,o),
(344,370,o),
(256,370,cs),
(225,370,o),
(197,360,o),
(172,337,c),
(202,329,l),
(360,624,l),
(345,624,l),
(645,0,l),
(697,0,l),
(697,19,l),
(370,690,l),
(341,690,l),
(141,331,ls),
(107,272,o),
(96,223,o),
(96,175,cs),
(96,63,o),
(156,-13,o),
(251,-13,cs)
);
},
{
closed = 1;
nodes = (
(185,36,o),
(148,88,o),
(148,176,cs),
(148,265,o),
(186,323,o),
(252,323,cs),
(317,323,o),
(355,270,o),
(355,179,cs),
(355,87,o),
(318,36,o),
(251,36,cs)
);
}
);
width = 733;
}
);
metricLeft = "fe-canadian";
metricRight = "e-canadian";
note = uni1555;
unicode = 5461;
},
{
glyphname = "fo-canadian";
kernLeft = ocanleft;
kernRight = ocanright;
lastChange = "2023-01-13 15:54:47 +0000";
layers = (
{
anchors = (
{
name = top_center_can;
pos = (216,690);
}
);
layerId = "C6C6CC8B-76AD-4983-B2A6-35FF5D496205";
shapes = (
{
closed = 1;
nodes = (
(115,0,l),
(636,331,l),
(636,358,l),
(327,656,ls),
(297,687,o),
(257,702,o),
(215,702,cs),
(124,702,o),
(61,631,o),
(61,510,cs),
(61,395,o),
(121,320,o),
(214,320,cs),
(308,320,o),
(366,396,o),
(366,510,cs),
(366,558,o),
(355,599,o),
(337,627,c),
(321,590,l),
(578,342,l),
(578,357,l),
(96,51,l),
(96,0,l)
);
},
{
closed = 1;
nodes = (
(151,367,o),
(113,419,o),
(113,511,cs),
(113,604,o),
(151,654,o),
(216,654,cs),
(282,654,o),
(319,605,o),
(319,511,cs),
(319,419,o),
(281,367,o),
(216,367,cs)
);
}
);
width = 672;
}
);
metricRight = "o-canadian";
note = uni1557;
unicode = 5463;
},
{
glyphname = "fa-canadian";
kernLeft = acanleft;
kernRight = acanright;
lastChange = "2023-01-13 15:54:47 +0000";
layers = (
{
anchors = (
{
name = top_center_can;
pos = (456,690);
}
);
layerId = "C6C6CC8B-76AD-4983-B2A6-35FF5D496205";
shapes = (
{
closed = 1;
nodes = (
(576,0,l),
(576,51,l),
(92,358,l),
(94,343,l),
(351,592,l),
(334,627,l),
(317,599,o),
(305,558,o),
(305,510,cs),
(305,396,o),
(364,320,o),
(457,320,cs),
(551,320,o),
(611,395,o),
(611,510,cs),
(611,631,o),
(548,702,o),
(456,702,cs),
(414,702,o),
(375,687,o),
(345,656,cs),
(37,358,l),
(37,331,l),
(557,0,l)
);
},
{
closed = 1;
nodes = (
(390,367,o),
(354,419,o),
(354,511,cs),
(354,604,o),
(390,654,o),
(456,654,cs),
(522,654,o),
(558,604,o),
(558,511,cs),
(558,418,o),
(522,367,o),
(456,367,cs)
);
}
);
width = 672;
}
);
metricRight = "=|fo-canadian";
note = uni1559;
unicode = 5465;
},
{
glyphname = "f-canadian";
kernLeft = mwestleft;
kernRight = mwestright;
lastChange = "2023-01-13 15:54:43 +0000";
layers = (
{
layerId = "C6C6CC8B-76AD-4983-B2A6-35FF5D496205";
shapes = (
{
closed = 1;
nodes = (
(332,345,l),
(332,376,l),
(98,526,l),
(98,516,l),
(217,631,l),
(213,658,l),
(203,643,o),
(197,623,o),
(197,599,cs),
(197,539,o),
(228,504,o),
(273,504,cs),
(319,504,o),
(349,540,o),
(349,600,cs),
(349,662,o),
(317,696,o),
(272,696,cs),
(252,696,o),
(232,687,o),
(212,668,cs),
(63,526,l),
(63,509,l),
(320,345,l)
);
},
{
closed = 1;
nodes = (
(243,533,o),
(227,556,o),
(227,600,cs),
(227,642,o),
(243,667,o),
(272,667,cs),
(301,667,o),
(318,644,o),
(318,600,cs),
(318,555,o),
(301,533,o),
(272,533,cs)
);
}
);
width = 410;
}
);
note = uni155D;
unicode = 5469;
},
{
glyphname = "the-canadian";
lastChange = "2023-01-13 15:54:43 +0000";
layers = (
{
anchors = (
{
name = middle_right_can;
pos = (782,345);
},
{
name = top_center_can;
pos = (349,690);
},
{
name = top_left_can;
pos = (103,690);
},
{
name = top_right_can;
pos = (593,690);
}
);
layerId = "C6C6CC8B-76AD-4983-B2A6-35FF5D496205";
shapes = (
{
closed = 1;
nodes = (
(521,-13,o),
(624,99,o),
(624,293,cs),
(624,690,l),
(562,690,l),
(562,289,ls),
(562,128,o),
(485,44,o),
(349,44,cs),
(214,44,o),
(133,128,o),
(133,285,cs),
(133,430,l),
(111,415,l),
(123,355,o),
(173,316,o),
(233,316,cs),
(324,316,o),
(383,391,o),
(383,509,cs),
(383,627,o),
(325,702,o),
(229,702,cs),
(131,702,o),
(73,627,o),
(73,499,cs),
(73,297,ls),
(73,99,o),
(179,-13,o),
(349,-13,cs)
);
},
{
closed = 1;
nodes = (
(162,364,o),
(125,414,o),
(125,509,cs),
(125,602,o),
(162,654,o),
(228,654,cs),
(294,654,o),
(330,602,o),
(330,509,cs),
(330,415,o),
(294,364,o),
(228,364,cs)
);
}
);
width = 697;
}
);
metricLeft = "te-canadian";
metricRight = "te-canadian";
note = uni155E;
unicode = 5470;
},
{
glyphname = "theNCree-canadian";
lastChange = "2023-01-13 15:54:43 +0000";
layers = (
{
layerId = "C6C6CC8B-76AD-4983-B2A6-35FF5D496205";
shapes = (
{
closed = 1;
nodes = (
(522,-13,o),
(624,99,o),
(624,298,cs),
(624,499,ls),
(624,627,o),
(566,702,o),
(469,702,cs),
(373,702,o),
(315,627,o),
(315,509,cs),
(315,392,o),
(374,316,o),
(465,316,cs),
(525,316,o),
(575,355,o),
(586,415,c),
(564,430,l),
(564,285,ls),
(564,127,o),
(485,44,o),
(349,44,cs),
(214,44,o),
(135,129,o),
(135,288,cs),
(135,690,l),
(73,690,l),
(73,289,ls),
(73,98,o),
(179,-13,o),
(349,-13,cs)
);
},
{
closed = 1;
nodes = (
(404,364,o),
(367,417,o),
(367,509,cs),
(367,602,o),
(404,654,o),
(469,654,cs),
(535,654,o),
(572,602,o),
(572,509,cs),
(572,415,o),
(534,364,o),
(469,364,cs)
);
}
);
width = 697;
}
);
metricLeft = "te-canadian";
metricRight = "te-canadian";
note = uni155F;
unicode = 5471;
},
{
glyphname = "thi-canadian";
lastChange = "2023-01-13 15:54:43 +0000";
layers = (
{
anchors = (
{
name = top_center_can;
pos = (347,690);
}
);
layerId = "C6C6CC8B-76AD-4983-B2A6-35FF5D496205";
shapes = (
{
closed = 1;
nodes = (
(325,-13,o),
(383,63,o),
(383,181,cs),
(383,298,o),
(324,374,o),
(233,374,cs),
(173,374,o),
(123,334,o),
(111,274,c),
(133,260,l),
(133,405,ls),
(133,563,o),
(213,645,o),
(349,645,cs),
(483,645,o),
(562,560,o),
(562,402,cs),
(562,0,l),
(624,0,l),
(624,401,ls),
(624,592,o),
(519,702,o),
(349,702,cs),
(176,702,o),
(73,591,o),
(73,391,cs),
(73,190,ls),
(73,63,o),
(131,-13,o),
(229,-13,cs)
);
},
{
closed = 1;
nodes = (
(162,36,o),
(125,88,o),
(125,181,cs),
(125,274,o),
(162,326,o),
(228,326,cs),
(294,326,o),
(330,272,o),
(330,181,cs),
(330,88,o),
(294,36,o),
(228,36,cs)
);
}
);
width = 697;
}
);
metricLeft = "te-canadian";
metricRight = "te-canadian";
note = uni1560;
unicode = 5472;
},
{
glyphname = "thiNCree-canadian";
lastChange = "2023-01-13 15:54:43 +0000";
layers = (
{
anchors = (
{
name = top_center_can;
pos = (347,690);
}
);
layerId = "C6C6CC8B-76AD-4983-B2A6-35FF5D496205";
shapes = (
{
closed = 1;
nodes = (
(566,-13,o),
(624,63,o),
(624,190,cs),
(624,391,ls),
(624,591,o),
(522,702,o),
(349,702,cs),
(179,702,o),
(73,592,o),
(73,401,cs),
(73,0,l),
(135,0,l),
(135,402,ls),
(135,560,o),
(214,645,o),
(349,645,cs),
(485,645,o),
(564,563,o),
(564,405,cs),
(564,260,l),
(586,274,l),
(575,334,o),
(525,374,o),
(465,374,cs),
(374,374,o),
(315,298,o),
(315,181,cs),
(315,63,o),
(373,-13,o),
(469,-13,cs)
);
},
{
closed = 1;
nodes = (
(404,36,o),
(367,88,o),
(367,181,cs),
(367,272,o),
(404,326,o),
(469,326,cs),
(534,326,o),
(572,274,o),
(572,181,cs),
(572,88,o),
(535,36,o),
(469,36,cs)
);
}
);
width = 697;
}
);
metricLeft = "te-canadian";
metricRight = "te-canadian";
note = uni1561;
unicode = 5473;
},
{
glyphname = "tho-canadian";
lastChange = "2023-01-13 15:54:47 +0000";
layers = (
{
anchors = (
{
name = top_center_can;
pos = (297,690);
}
);
layerId = "C6C6CC8B-76AD-4983-B2A6-35FF5D496205";
shapes = (
{
closed = 1;
nodes = (
(262,0,ls),
(473,0,o),
(584,125,o),
(584,351,cs),
(584,563,o),
(481,702,o),
(298,702,cs),
(164,702,o),
(73,622,o),
(73,484,cs),
(73,366,o),
(134,294,o),
(228,294,cs),
(322,294,o),
(381,364,o),
(381,481,cs),
(381,578,o),
(333,660,o),
(236,665,c),
(202,635,l),
(225,647,o),
(258,655,o),
(290,655,cs),
(449,655,o),
(524,537,o),
(524,354,cs),
(524,157,o),
(437,56,o),
(259,56,cs),
(105,56,l),
(105,0,l)
);
},
{
closed = 1;
nodes = (
(162,341,o),
(126,391,o),
(126,487,cs),
(126,582,o),
(171,633,o),
(229,633,cs),
(288,633,o),
(331,582,o),
(331,487,cs),
(331,391,o),
(295,341,o),
(228,341,cs)
);
}
);
width = 650;
}
);
metricRight = "to-canadian";
note = uni1564;
unicode = 5476;
},
{
glyphname = "tha-canadian";
lastChange = "2023-01-13 15:54:47 +0000";
layers = (
{
anchors = (
{
name = top_center_can;
pos = (354,690);
}
);
layerId = "C6C6CC8B-76AD-4983-B2A6-35FF5D496205";
shapes = (
{
closed = 1;
nodes = (
(545,0,l),
(545,56,l),
(392,56,ls),
(213,56,o),
(127,157,o),
(127,354,cs),
(127,537,o),
(202,655,o),
(360,655,cs),
(393,655,o),
(425,647,o),
(449,635,c),
(415,665,l),
(318,660,o),
(270,578,o),
(270,481,cs),
(270,364,o),
(329,294,o),
(422,294,cs),
(517,294,o),
(577,366,o),
(577,484,cs),
(577,622,o),
(486,702,o),
(353,702,cs),
(170,702,o),
(66,563,o),
(66,351,cs),
(66,126,o),
(177,0,o),
(389,0,cs)
);
},
{
closed = 1;
nodes = (
(356,341,o),
(320,391,o),
(320,487,cs),
(320,582,o),
(363,633,o),
(422,633,cs),
(479,633,o),
(525,582,o),
(525,487,cs),
(525,391,o),
(488,341,o),
(422,341,cs)
);
}
);
width = 650;
}
);
metricLeft = "=|theCarrier-canadian";
metricRight = "=|tho-canadian";
note = uni1566;
unicode = 5478;
},
{
glyphname = "th-canadian";
kernLeft = mwestleft;
kernRight = mwestright;
lastChange = "2023-01-13 15:54:43 +0000";
layers = (
{
layerId = "C6C6CC8B-76AD-4983-B2A6-35FF5D496205";
shapes = (
{
closed = 1;
nodes = (
(305,345,l),
(305,384,l),
(235,384,ls),
(147,384,o),
(106,432,o),
(106,520,cs),
(106,607,o),
(143,665,o),
(217,665,cs),
(235,665,o),
(250,661,o),
(262,656,c),
(240,676,l),
(191,673,o),
(169,636,o),
(169,586,cs),
(169,526,o),
(199,492,o),
(245,492,cs),
(291,492,o),
(321,526,o),
(321,586,cs),
(321,658,o),
(277,696,o),
(212,696,cs),
(120,696,o),
(66,625,o),
(66,518,cs),
(66,411,o),
(122,345,o),
(233,345,cs)
);
},
{
closed = 1;
nodes = (
(215,521,o),
(199,543,o),
(199,586,cs),
(199,630,o),
(215,653,o),
(244,653,cs),
(273,653,o),
(290,632,o),
(290,586,cs),
(290,542,o),
(273,521,o),
(245,521,cs)
);
}
);
width = 382;
}
);
metricLeft = "t-canadian";
note = uni156A;
unicode = 5482;
},
{
glyphname = "tthe-canadian";
lastChange = "2023-01-13 15:54:47 +0000";
layers = (
{
anchors = (
{
name = middle_right_can;
pos = (774,345);
},
{
name = top_center_can;
pos = (344,690);
},
{
name = top_left_can;
pos = (104,690);
},
{
name = top_right_can;
pos = (584,690);
}
);
layerId = "C6C6CC8B-76AD-4983-B2A6-35FF5D496205";
shapes = (
{
closed = 1;
nodes = (
(512,-13,o),
(615,99,o),
(615,293,cs),
(615,690,l),
(555,690,l),
(555,290,ls),
(555,129,o),
(477,45,o),
(344,45,cs),
(214,45,o),
(133,130,o),
(133,289,cs),
(133,690,l),
(73,690,l),
(73,289,ls),
(73,98,o),
(179,-13,o),
(344,-13,cs)
);
},
{
closed = 1;
nodes = (
(370,391,l),
(370,690,l),
(319,690,l),
(319,391,l)
);
}
);
width = 688;
}
);
metricLeft = "te-canadian";
metricRight = "te-canadian";
note = uni156B;
unicode = 5483;
},
{
glyphname = "tthi-canadian";
lastChange = "2023-01-13 15:54:47 +0000";
layers = (
{
layerId = "C6C6CC8B-76AD-4983-B2A6-35FF5D496205";
shapes = (
{
closed = 1;
nodes = (
(133,0,l),
(133,400,ls),
(133,560,o),
(213,644,o),
(345,644,cs),
(474,644,o),
(555,559,o),
(555,401,cs),
(555,0,l),
(615,0,l),
(615,401,ls),
(615,591,o),
(510,702,o),
(346,702,cs),
(177,702,o),
(73,592,o),
(73,397,cs),
(73,0,l)
);
},
{
closed = 1;
nodes = (
(370,0,l),
(370,298,l),
(319,298,l),
(319,0,l)
);
}
);
width = 688;
}
);
metricLeft = "te-canadian";
metricRight = "te-canadian";
note = uni156C;
unicode = 5484;
},
{
glyphname = "ttho-canadian";
lastChange = "2023-01-13 15:54:47 +0000";
layers = (
{
anchors = (
{
name = top_center_can;
pos = (309,690);
},
{
name = top_left_can;
pos = (109,690);
},
{
name = top_right_can;
pos = (508,690);
}
);
layerId = "C6C6CC8B-76AD-4983-B2A6-35FF5D496205";
shapes = (
{
closed = 1;
nodes = (
(223,0,ls),
(426,0,o),
(539,129,o),
(539,346,cs),
(539,562,o),
(426,690,o),
(218,690,cs),
(79,690,l),
(79,634,l),
(218,634,ls),
(389,634,o),
(477,530,o),
(477,346,cs),
(477,161,o),
(389,56,o),
(220,56,cs),
(79,56,l),
(79,0,l)
);
},
{
closed = 1;
nodes = (
(306,320,l),
(306,371,l),
(79,371,l),
(79,320,l)
);
}
);
width = 605;
}
);
metricRight = "to-canadian";
note = uni156D;
unicode = 5485;
},
{
glyphname = "ttha-canadian";
lastChange = "2023-01-13 15:54:47 +0000";
layers = (
{
anchors = (
{
name = top_center_can;
pos = (314,690);
},
{
name = top_left_can;
pos = (97,690);
},
{
name = top_right_can;
pos = (496,690);
}
);
layerId = "C6C6CC8B-76AD-4983-B2A6-35FF5D496205";
shapes = (
{
closed = 1;
nodes = (
(525,0,l),
(525,56,l),
(385,56,ls),
(215,56,o),
(127,160,o),
(127,345,cs),
(127,529,o),
(215,634,o),
(384,634,cs),
(525,634,l),
(525,690,l),
(384,690,ls),
(179,690,o),
(66,561,o),
(66,345,cs),
(66,128,o),
(179,0,o),
(383,0,cs)
);
},
{
closed = 1;
nodes = (
(525,320,l),
(525,371,l),
(298,371,l),
(298,320,l)
);
}
);
width = 604;
}
);
metricLeft = "=|to-canadian";
metricRight = "=|ttho-canadian";
note = uni156E;
unicode = 5486;
},
{
glyphname = "tth-canadian";
lastChange = "2023-01-13 15:54:43 +0000";
layers = (
{
layerId = "C6C6CC8B-76AD-4983-B2A6-35FF5D496205";
shapes = (
{
closed = 1;
nodes = (
(614,488,l),
(599,488,l),
(691,358,l),
(724,383,l),
(630,514,l),
(626,497,l),
(771,550,l),
(757,588,l),
(612,535,l),
(627,526,l),
(627,690,l),
(586,690,l),
(586,526,l),
(601,535,l),
(456,588,l),
(442,550,l),
(587,497,l),
(582,514,l),
(489,383,l),
(523,358,l)
);
},
{
closed = 1;
nodes = (
(224,488,l),
(209,488,l),
(302,358,l),
(335,383,l),
(241,514,l),
(236,497,l),
(381,550,l),
(367,588,l),
(223,535,l),
(237,526,l),
(237,690,l),
(196,690,l),
(196,526,l),
(211,535,l),
(66,588,l),
(53,550,l),
(198,497,l),
(193,514,l),
(98,383,l),
(131,358,l)
);
}
);
width = 824;
}
);
metricRight = "=|";
note = uni156F;
unicode = 5487;
},
{
glyphname = "tye-canadian";
lastChange = "2023-01-13 15:54:47 +0000";
layers = (
{
layerId = "C6C6CC8B-76AD-4983-B2A6-35FF5D496205";
shapes = (
{
closed = 1;
nodes = (
(512,-13,o),
(615,99,o),
(615,293,cs),
(615,690,l),
(555,690,l),
(555,291,ls),
(555,129,o),
(477,45,o),
(344,45,cs),
(214,45,o),
(133,130,o),
(133,290,cs),
(133,690,l),
(73,690,l),
(73,289,ls),
(73,98,o),
(179,-13,o),
(344,-13,cs)
);
},
{
closed = 1;
nodes = (
(415,412,o),
(458,457,o),
(458,544,cs),
(458,690,l),
(422,690,l),
(422,546,ls),
(422,480,o),
(396,448,o),
(344,448,cs),
(293,448,o),
(267,481,o),
(267,546,cs),
(267,690,l),
(231,690,l),
(231,544,ls),
(231,457,o),
(274,412,o),
(344,412,cs)
);
}
);
width = 688;
}
);
metricLeft = "te-canadian";
metricRight = "te-canadian";
note = uni1570;
unicode = 5488;
},
{
glyphname = "tyi-canadian";
lastChange = "2023-01-13 15:54:47 +0000";
layers = (
{
layerId = "C6C6CC8B-76AD-4983-B2A6-35FF5D496205";
shapes = (
{
closed = 1;
nodes = (
(133,0,l),
(133,399,ls),
(133,560,o),
(213,644,o),
(345,644,cs),
(474,644,o),
(555,559,o),
(555,400,cs),
(555,0,l),
(615,0,l),
(615,401,ls),
(615,591,o),
(510,702,o),
(346,702,cs),
(177,702,o),
(73,592,o),
(73,397,cs),
(73,0,l)
);
},
{
closed = 1;
nodes = (
(267,0,l),
(267,144,ls),
(267,209,o),
(293,242,o),
(345,242,cs),
(395,242,o),
(422,209,o),
(422,144,cs),
(422,0,l),
(458,0,l),
(458,146,ls),
(458,233,o),
(413,278,o),
(344,278,cs),
(273,278,o),
(231,233,o),
(231,146,cs),
(231,0,l)
);
}
);
width = 688;
}
);
metricLeft = "te-canadian";
metricRight = "te-canadian";
note = uni1571;
unicode = 5489;
},
{
glyphname = "tyo-canadian";
lastChange = "2023-01-13 15:54:47 +0000";
layers = (
{
layerId = "C6C6CC8B-76AD-4983-B2A6-35FF5D496205";
shapes = (
{
closed = 1;
nodes = (
(225,0,ls),
(427,0,o),
(540,129,o),
(540,346,cs),
(540,562,o),
(427,690,o),
(220,690,cs),
(80,690,l),
(80,634,l),
(218,634,ls),
(390,634,o),
(478,530,o),
(478,346,cs),
(478,161,o),
(390,56,o),
(220,56,cs),
(80,56,l),
(80,0,l)
);
},
{
closed = 1;
nodes = (
(163,210,ls),
(252,210,o),
(299,260,o),
(299,345,cs),
(299,430,o),
(251,480,o),
(163,480,cs),
(80,480,l),
(80,442,l),
(158,442,ls),
(229,442,o),
(260,409,o),
(260,345,cs),
(260,281,o),
(229,247,o),
(159,247,cs),
(80,247,l),
(80,210,l)
);
}
);
width = 606;
}
);
metricLeft = "nunavuth-canadian";
metricRight = "theCarrier-canadian";
note = uni1572;
unicode = 5490;
},
{
glyphname = "tya-canadian";
lastChange = "2023-01-13 15:54:47 +0000";
layers = (
{
layerId = "C6C6CC8B-76AD-4983-B2A6-35FF5D496205";
shapes = (
{
closed = 1;
nodes = (
(525,0,l),
(525,56,l),
(387,56,ls),
(215,56,o),
(127,160,o),
(127,345,cs),
(127,529,o),
(215,634,o),
(386,634,cs),
(525,634,l),
(525,690,l),
(384,690,ls),
(180,690,o),
(66,561,o),
(66,345,cs),
(66,128,o),
(180,0,o),
(383,0,cs)
);
},
{
closed = 1;
nodes = (
(525,210,l),
(525,247,l),
(447,247,ls),
(378,247,o),
(347,281,o),
(347,345,cs),
(347,409,o),
(378,442,o),
(447,442,cs),
(525,442,l),
(525,480,l),
(442,480,ls),
(354,480,o),
(306,430,o),
(306,345,cs),
(306,260,o),
(354,210,o),
(442,210,cs)
);
}
);
width = 605;
}
);
metricLeft = "=|theCarrier-canadian";
metricRight = "nunavuth-canadian";
note = uni1573;
unicode = 5491;
},
{
glyphname = "heNunavik-canadian";
lastChange = "2023-01-13 15:54:43 +0000";
layers = (
{
layerId = "C6C6CC8B-76AD-4983-B2A6-35FF5D496205";
shapes = (
{
closed = 1;
nodes = (
(489,0,l),
(717,191,l),
(682,234,l),
(455,43,l),
(495,42,l),
(495,448,ls),
(495,607,o),
(414,702,o),
(283,702,cs),
(152,702,o),
(68,607,o),
(68,451,cs),
(68,300,o),
(151,206,o),
(275,206,cs),
(361,206,o),
(425,257,o),
(440,327,c),
(434,341,l),
(434,0,l)
);
},
{
closed = 1;
nodes = (
(187,260,o),
(128,330,o),
(128,454,cs),
(128,578,o),
(186,648,o),
(281,648,cs),
(378,648,o),
(434,579,o),
(434,454,cs),
(434,330,o),
(376,260,o),
(281,260,cs)
);
}
);
width = 745;
}
);
metricLeft = "ke-canadian";
note = uni1574;
unicode = 5492;
},
{
glyphname = "hiNunavik-canadian";
lastChange = "2023-01-13 15:54:43 +0000";
layers = (
{
anchors = (
{
name = top_center_can;
pos = (463,690);
}
);
layerId = "C6C6CC8B-76AD-4983-B2A6-35FF5D496205";
shapes = (
{
closed = 1;
nodes = (
(311,0,l),
(311,341,l),
(304,327,l),
(320,257,o),
(384,206,o),
(469,206,cs),
(594,206,o),
(676,301,o),
(676,453,cs),
(676,607,o),
(594,702,o),
(463,702,cs),
(330,702,o),
(249,607,o),
(249,448,cs),
(249,44,l),
(289,43,l),
(62,234,l),
(28,191,l),
(256,0,l)
);
},
{
closed = 1;
nodes = (
(368,260,o),
(310,330,o),
(310,454,cs),
(310,579,o),
(367,648,o),
(463,648,cs),
(558,648,o),
(615,578,o),
(615,454,cs),
(615,330,o),
(556,260,o),
(463,260,cs)
);
}
);
width = 744;
}
);
metricLeft = "=|heNunavik-canadian";
metricRight = "=|ke-canadian";
note = uni1575;
unicode = 5493;
},
{
glyphname = "hoNunavik-canadian";
lastChange = "2023-01-13 15:54:43 +0000";
layers = (
{
anchors = (
{
name = top_center_can;
pos = (281,690);
},
{
name = top_right_can;
pos = (464,690);
}
);
layerId = "C6C6CC8B-76AD-4983-B2A6-35FF5D496205";
shapes = (
{
closed = 1;
nodes = (
(414,-13,o),
(495,83,o),
(495,242,cs),
(495,648,l),
(455,646,l),
(682,456,l),
(717,498,l),
(489,690,l),
(434,690,l),
(434,349,l),
(440,363,l),
(425,433,o),
(361,484,o),
(275,484,cs),
(151,484,o),
(68,387,o),
(68,237,cs),
(68,82,o),
(151,-13,o),
(282,-13,cs)
);
},
{
closed = 1;
nodes = (
(186,42,o),
(128,112,o),
(128,236,cs),
(128,359,o),
(187,430,o),
(281,430,cs),
(376,430,o),
(434,359,o),
(434,236,cs),
(434,111,o),
(378,42,o),
(281,42,cs)
);
}
);
width = 745;
}
);
metricLeft = "ke-canadian";
metricRight = "heNunavik-canadian";
note = uni1577;
unicode = 5495;
},
{
glyphname = "haNunavik-canadian";
lastChange = "2023-01-13 15:54:43 +0000";
layers = (
{
anchors = (
{
name = top_center_can;
pos = (464,690);
},
{
name = top_left_can;
pos = (280,690);
}
);
layerId = "C6C6CC8B-76AD-4983-B2A6-35FF5D496205";
shapes = (
{
closed = 1;
nodes = (
(593,-13,o),
(676,83,o),
(676,238,cs),
(676,388,o),
(594,484,o),
(470,484,cs),
(384,484,o),
(320,433,o),
(304,363,c),
(311,349,l),
(311,690,l),
(256,690,l),
(28,498,l),
(62,456,l),
(289,646,l),
(249,645,l),
(249,242,ls),
(249,83,o),
(329,-13,o),
(462,-13,cs)
);
},
{
closed = 1;
nodes = (
(367,42,o),
(310,111,o),
(310,236,cs),
(310,359,o),
(368,430,o),
(463,430,cs),
(556,430,o),
(615,359,o),
(615,236,cs),
(615,112,o),
(558,42,o),
(463,42,cs)
);
}
);
width = 744;
}
);
metricLeft = "=|heNunavik-canadian";
metricRight = "=|ke-canadian";
note = uni1579;
unicode = 5497;
},
{
glyphname = "hNunavik-canadian";
kernLeft = mwestleft;
kernRight = mwestright;
lastChange = "2023-01-13 15:54:43 +0000";
layers = (
{
layerId = "C6C6CC8B-76AD-4983-B2A6-35FF5D496205";
shapes = (
{
closed = 1;
nodes = (
(342,339,o),
(392,388,o),
(392,471,cs),
(392,552,o),
(345,601,o),
(281,601,cs),
(234,601,o),
(197,568,o),
(190,523,c),
(203,523,l),
(203,690,l),
(159,690,l),
(46,594,l),
(69,567,l),
(183,663,l),
(156,663,l),
(156,471,ls),
(156,388,o),
(205,339,o),
(275,339,cs)
);
},
{
closed = 1;
nodes = (
(228,376,o),
(200,408,o),
(200,470,cs),
(200,530,o),
(231,564,o),
(274,564,cs),
(319,564,o),
(351,530,o),
(351,471,cs),
(351,411,o),
(320,376,o),
(275,376,cs)
);
}
);
width = 450;
}
);
metricRight = "k-canadian";
note = uni157B;
unicode = 5499;
},
{
color = 4;
glyphname = "nunavuth-canadian";
lastChange = "2023-01-13 15:54:43 +0000";
layers = (
{
layerId = "C6C6CC8B-76AD-4983-B2A6-35FF5D496205";
shapes = (
{
closed = 1;
nodes = (
(142,330,l),
(517,330,l),
(517,0,l),
(579,0,l),
(579,690,l),
(517,690,l),
(517,385,l),
(142,385,l),
(142,690,l),
(80,690,l),
(80,0,l),
(142,0,l)
);
}
);
width = 659;
}
);
metricRight = "=|";
note = uni157C;
unicode = 5500;
},
{
glyphname = "tlhe-canadian";
lastChange = "2023-01-13 15:54:47 +0000";
layers = (
{
anchors = (
{
name = top_center_can;
pos = (286,690);
}
);
layerId = "C6C6CC8B-76AD-4983-B2A6-35FF5D496205";
shapes = (
{
closed = 1;
nodes = (
(171,0,l),
(307,267,l),
(255,243,l),
(263,242,o),
(270,242,o),
(278,242,cs),
(362,242,o),
(424,286,o),
(442,345,c),
(439,363,l),
(439,0,l),
(499,0,l),
(499,468,ls),
(499,611,o),
(419,702,o),
(287,702,cs),
(152,702,o),
(71,609,o),
(71,470,cs),
(71,350,o),
(135,268,o),
(233,250,c),
(105,0,l)
);
},
{
closed = 1;
nodes = (
(189,296,o),
(131,361,o),
(131,471,cs),
(131,582,o),
(189,648,o),
(285,648,cs),
(382,648,o),
(439,583,o),
(439,472,cs),
(439,361,o),
(381,296,o),
(285,296,cs)
);
}
);
width = 572;
}
);
metricRight = "te-canadian";
note = uni1586;
unicode = 5510;
},
{
glyphname = "tlhi-canadian";
lastChange = "2023-01-13 15:54:43 +0000";
layers = (
{
layerId = "C6C6CC8B-76AD-4983-B2A6-35FF5D496205";
shapes = (
{
closed = 1;
nodes = (
(134,0,l),
(134,363,l),
(129,347,l),
(146,287,o),
(209,242,o),
(295,242,c),
(266,267,l),
(402,0,l),
(468,0,l),
(340,250,l),
(438,268,o),
(502,350,o),
(502,470,cs),
(502,609,o),
(421,702,o),
(286,702,cs),
(154,702,o),
(73,611,o),
(73,468,cs),
(73,0,l)
);
},
{
closed = 1;
nodes = (
(192,296,o),
(134,361,o),
(134,472,cs),
(134,583,o),
(190,648,o),
(288,648,cs),
(384,648,o),
(441,582,o),
(441,471,cs),
(441,361,o),
(384,296,o),
(288,296,cs)
);
}
);
width = 573;
}
);
metricLeft = "te-canadian";
metricRight = "=|tlhe-canadian";
note = uni1587;
unicode = 5511;
},
{
glyphname = "tlho-canadian";
lastChange = "2023-01-13 15:54:47 +0000";
layers = (
{
anchors = (
{
name = top_center_can;
pos = (305,690);
}
);
layerId = "C6C6CC8B-76AD-4983-B2A6-35FF5D496205";
shapes = (
{
closed = 1;
nodes = (
(419,-13,o),
(499,78,o),
(499,222,cs),
(499,690,l),
(439,690,l),
(439,327,l),
(443,343,l),
(427,403,o),
(364,448,o),
(278,448,c),
(307,423,l),
(171,690,l),
(105,690,l),
(233,440,l),
(135,422,o),
(71,340,o),
(71,219,cs),
(71,81,o),
(152,-13,o),
(287,-13,cs)
);
},
{
closed = 1;
nodes = (
(189,42,o),
(131,107,o),
(131,218,cs),
(131,328,o),
(189,394,o),
(285,394,cs),
(381,394,o),
(439,328,o),
(439,217,cs),
(439,106,o),
(382,42,o),
(285,42,cs)
);
}
);
width = 572;
}
);
metricLeft = "tlhe-canadian";
metricRight = "te-canadian";
note = uni1588;
unicode = 5512;
},
{
glyphname = "tlha-canadian";
lastChange = "2023-01-13 15:54:43 +0000";
layers = (
{
layerId = "C6C6CC8B-76AD-4983-B2A6-35FF5D496205";
shapes = (
{
closed = 1;
nodes = (
(421,-13,o),
(502,81,o),
(502,219,cs),
(502,340,o),
(438,422,o),
(340,440,c),
(468,690,l),
(402,690,l),
(266,423,l),
(318,446,l),
(310,447,o),
(302,448,o),
(295,448,cs),
(209,448,o),
(146,403,o),
(129,343,c),
(134,327,l),
(134,690,l),
(73,690,l),
(73,222,ls),
(73,78,o),
(154,-13,o),
(286,-13,cs)
);
},
{
closed = 1;
nodes = (
(190,42,o),
(134,106,o),
(134,217,cs),
(134,328,o),
(192,394,o),
(288,394,cs),
(384,394,o),
(441,328,o),
(441,218,cs),
(441,107,o),
(384,42,o),
(288,42,cs)
);
}
);
width = 573;
}
);
metricLeft = "te-canadian";
note = uni1589;
unicode = 5513;
},
{
glyphname = "reWestCree-canadian";
lastChange = "2023-01-13 15:54:43 +0000";
layers = (
{
layerId = "C6C6CC8B-76AD-4983-B2A6-35FF5D496205";
shapes = (
{
closed = 1;
nodes = (
(485,0,l),
(713,191,l),
(678,234,l),
(451,43,l),
(491,42,l),
(491,456,ls),
(491,610,o),
(412,702,o),
(282,702,cs),
(148,702,o),
(68,610,o),
(68,458,cs),
(68,391,l),
(128,391,l),
(128,463,ls),
(128,579,o),
(184,647,o),
(281,647,cs),
(375,647,o),
(430,579,o),
(430,462,cs),
(430,0,l)
);
}
);
width = 741;
}
);
metricLeft = "ce-canadian";
metricRight = "heNunavik-canadian";
note = uni158A;
unicode = 5514;
},
{
glyphname = "riWestCree-canadian";
lastChange = "2023-01-13 15:54:43 +0000";
layers = (
{
layerId = "C6C6CC8B-76AD-4983-B2A6-35FF5D496205";
shapes = (
{
closed = 1;
nodes = (
(311,0,l),
(311,462,ls),
(311,579,o),
(366,647,o),
(462,647,cs),
(559,647,o),
(611,580,o),
(611,463,cs),
(611,391,l),
(672,391,l),
(672,458,ls),
(672,609,o),
(595,702,o),
(463,702,cs),
(328,702,o),
(249,609,o),
(249,455,cs),
(249,42,l),
(289,43,l),
(62,234,l),
(28,191,l),
(256,0,l)
);
}
);
width = 740;
}
);
metricLeft = "=|heNunavik-canadian";
metricRight = "=|ce-canadian";
note = uni158B;
unicode = 5515;
},
{
glyphname = "roWestCree-canadian";
lastChange = "2023-01-13 15:54:43 +0000";
layers = (
{
layerId = "C6C6CC8B-76AD-4983-B2A6-35FF5D496205";
shapes = (
{
closed = 1;
nodes = (
(412,-13,o),
(491,78,o),
(491,235,cs),
(491,648,l),
(451,646,l),
(678,456,l),
(713,498,l),
(485,690,l),
(430,690,l),
(430,228,ls),
(430,108,o),
(375,43,o),
(281,43,cs),
(182,43,o),
(128,110,o),
(128,230,cs),
(128,298,l),
(68,298,l),
(68,231,ls),
(68,80,o),
(145,-13,o),
(281,-13,cs)
);
}
);
width = 741;
}
);
metricLeft = "ce-canadian";
metricRight = "heNunavik-canadian";
note = uni158C;
unicode = 5516;
},
{
glyphname = "raWestCree-canadian";
lastChange = "2023-01-13 15:54:43 +0000";
layers = (
{
layerId = "C6C6CC8B-76AD-4983-B2A6-35FF5D496205";
shapes = (
{
closed = 1;
nodes = (
(595,-13,o),
(672,79,o),
(672,232,cs),
(672,298,l),
(611,298,l),
(611,229,ls),
(611,108,o),
(559,43,o),
(462,43,cs),
(364,43,o),
(311,109,o),
(311,227,cs),
(311,690,l),
(256,690,l),
(28,498,l),
(62,456,l),
(289,646,l),
(249,648,l),
(249,234,ls),
(249,78,o),
(327,-13,o),
(462,-13,cs)
);
}
);
width = 740;
}
);
metricLeft = "=|heNunavik-canadian";
metricRight = "=|ce-canadian";
note = uni158D;
unicode = 5517;
},
{
glyphname = "ng-canadian";
kernLeft = mwestleft;
kernRight = mwestright;
lastChange = "2023-01-13 15:54:47 +0000";
layers = (
{
layerId = "C6C6CC8B-76AD-4983-B2A6-35FF5D496205";
shapes = (
{
closed = 1;
nodes = (
(529,217,o),
(578,261,o),
(578,341,cs),
(578,363,l),
(534,363,l),
(534,336,ls),
(534,282,o),
(505,255,o),
(460,255,cs),
(413,255,o),
(386,283,o),
(386,344,cs),
(386,477,l),
(231,477,l),
(233,458,l),
(270,471,o),
(292,518,o),
(292,567,cs),
(292,646,o),
(244,696,o),
(175,696,cs),
(106,696,o),
(58,646,o),
(58,566,cs),
(58,486,o),
(105,434,o),
(181,434,cs),
(355,434,l),
(341,449,l),
(341,349,ls),
(341,262,o),
(386,217,o),
(460,217,cs)
);
},
{
closed = 1;
nodes = (
(130,470,o),
(99,506,o),
(99,566,cs),
(99,625,o),
(130,660,o),
(176,660,cs),
(220,660,o),
(250,625,o),
(250,565,cs),
(250,505,o),
(220,470,o),
(175,470,cs)
);
}
);
width = 626;
}
);
metricLeft = "n-canadian";
metricRight = "c-canadian";
note = uni1595;
unicode = 5525;
},
{
glyphname = "nng-canadian";
kernLeft = mwestleft;
kernRight = mwestright;
lastChange = "2023-01-13 15:54:47 +0000";
layers = (
{
layerId = "C6C6CC8B-76AD-4983-B2A6-35FF5D496205";
shapes = (
{
closed = 1;
nodes = (
(807,217,o),
(855,261,o),
(855,341,cs),
(855,363,l),
(811,363,l),
(811,336,ls),
(811,282,o),
(782,255,o),
(737,255,cs),
(692,255,o),
(665,283,o),
(665,344,cs),
(665,477,l),
(511,477,l),
(513,458,l),
(550,471,o),
(572,518,o),
(572,567,cs),
(572,647,o),
(525,696,o),
(454,696,cs),
(385,696,o),
(338,646,o),
(338,567,cs),
(338,517,o),
(360,471,o),
(397,457,c),
(399,477,l),
(231,477,l),
(233,458,l),
(270,471,o),
(292,518,o),
(292,567,cs),
(292,646,o),
(244,696,o),
(175,696,cs),
(106,696,o),
(58,646,o),
(58,566,cs),
(58,486,o),
(105,434,o),
(181,434,cs),
(618,434,l),
(618,349,ls),
(618,262,o),
(664,217,o),
(738,217,cs)
);
},
{
closed = 1;
nodes = (
(130,470,o),
(99,506,o),
(99,566,cs),
(99,625,o),
(130,660,o),
(176,660,cs),
(220,660,o),
(250,625,o),
(250,565,cs),
(250,505,o),
(220,470,o),
(175,470,cs)
);
},
{
closed = 1;
nodes = (
(410,470,o),
(380,506,o),
(380,566,cs),
(380,625,o),
(411,660,o),
(456,660,cs),
(499,660,o),
(530,625,o),
(530,565,cs),
(530,505,o),
(500,470,o),
(455,470,cs)
);
}
);
width = 903;
}
);
metricLeft = "n-canadian";
metricRight = "c-canadian";
note = uni1596;
unicode = 5526;
},
{
glyphname = "sheSayisi-canadian";
lastChange = "2023-01-13 15:54:47 +0000";
layers = (
{
anchors = (
{
name = middle_right_can;
pos = (657,345);
},
{
name = top_center_can;
pos = (287,690);
}
);
layerId = "C6C6CC8B-76AD-4983-B2A6-35FF5D496205";
shapes = (
{
closed = 1;
nodes = (
(499,0,l),
(499,449,ls),
(499,608,o),
(422,702,o),
(287,702,cs),
(152,702,o),
(68,606,o),
(68,441,cs),
(68,288,o),
(132,207,o),
(229,207,cs),
(313,207,o),
(370,270,o),
(366,411,c),
(327,411,l),
(328,295,o),
(288,260,o),
(236,260,cs),
(168,260,o),
(128,318,o),
(128,442,cs),
(128,579,o),
(186,648,o),
(285,648,cs),
(384,648,o),
(439,579,o),
(439,451,cs),
(439,0,l)
);
}
);
width = 572;
}
);
metricLeft = "ke-canadian";
metricRight = "te-canadian";
note = uni1597;
unicode = 5527;
},
{
glyphname = "shiSayisi-canadian";
lastChange = "2023-01-13 15:54:43 +0000";
layers = (
{
layerId = "C6C6CC8B-76AD-4983-B2A6-35FF5D496205";
shapes = (
{
closed = 1;
nodes = (
(135,0,l),
(135,451,ls),
(135,579,o),
(189,648,o),
(289,648,cs),
(387,648,o),
(445,581,o),
(445,444,cs),
(445,321,o),
(405,260,o),
(337,260,cs),
(286,260,o),
(244,295,o),
(245,411,c),
(207,411,l),
(204,270,o),
(261,207,o),
(344,207,cs),
(440,207,o),
(505,290,o),
(505,443,cs),
(505,608,o),
(423,702,o),
(289,702,cs),
(153,702,o),
(73,608,o),
(73,449,cs),
(73,0,l)
);
}
);
width = 573;
}
);
metricLeft = "te-canadian";
metricRight = "=|ke-canadian";
note = uni1598;
unicode = 5528;
},
{
glyphname = "shoSayisi-canadian";
lastChange = "2023-01-13 15:54:47 +0000";
layers = (
{
anchors = (
{
name = top_center_can;
pos = (284,690);
},
{
name = top_left_can;
pos = (98,690);
},
{
name = top_right_can;
pos = (469,690);
}
);
layerId = "C6C6CC8B-76AD-4983-B2A6-35FF5D496205";
shapes = (
{
closed = 1;
nodes = (
(420,-13,o),
(499,82,o),
(499,241,cs),
(499,690,l),
(439,690,l),
(439,239,ls),
(439,111,o),
(384,42,o),
(284,42,cs),
(186,42,o),
(128,109,o),
(128,245,cs),
(128,369,o),
(168,430,o),
(236,430,cs),
(288,430,o),
(328,395,o),
(327,279,c),
(366,279,l),
(370,419,o),
(313,483,o),
(229,483,cs),
(132,483,o),
(68,400,o),
(68,244,cs),
(68,81,o),
(150,-13,o),
(284,-13,cs)
);
}
);
width = 572;
}
);
metricLeft = "ke-canadian";
metricRight = "te-canadian";
note = uni1599;
unicode = 5529;
},
{
glyphname = "shaSayisi-canadian";
lastChange = "2023-01-13 15:54:43 +0000";
layers = (
{
layerId = "C6C6CC8B-76AD-4983-B2A6-35FF5D496205";
shapes = (
{
closed = 1;
nodes = (
(421,-13,o),
(505,84,o),
(505,248,cs),
(505,402,o),
(441,483,o),
(345,483,cs),
(262,483,o),
(204,419,o),
(207,279,c),
(245,279,l),
(244,395,o),
(286,430,o),
(337,430,cs),
(405,430,o),
(445,372,o),
(445,247,cs),
(445,111,o),
(386,42,o),
(288,42,cs),
(188,42,o),
(135,111,o),
(135,239,cs),
(135,690,l),
(73,690,l),
(73,241,ls),
(73,82,o),
(152,-13,o),
(286,-13,cs)
);
}
);
width = 573;
}
);
metricLeft = "te-canadian";
metricRight = "=|ke-canadian";
note = uni159A;
unicode = 5530;
},
{
glyphname = "theWoodScree-canadian";
lastChange = "2023-01-13 15:54:43 +0000";
layers = (
{
layerId = "C6C6CC8B-76AD-4983-B2A6-35FF5D496205";
shapes = (
{
closed = 1;
nodes = (
(642,-13,o),
(729,80,o),
(729,231,cs),
(729,381,o),
(644,472,o),
(501,472,cs),
(71,472,l),
(71,419,l),
(409,419,l),
(403,432,l),
(328,401,o),
(291,320,o),
(291,228,cs),
(291,79,o),
(377,-13,o),
(510,-13,cs)
);
},
{
closed = 1;
nodes = (
(410,42,o),
(352,112,o),
(352,230,cs),
(352,346,o),
(410,418,o),
(508,418,cs),
(610,418,o),
(668,348,o),
(668,230,cs),
(668,113,o),
(611,42,o),
(510,42,cs)
);
},
{
closed = 1;
nodes = (
(719,637,l),
(719,690,l),
(71,690,l),
(71,637,l)
);
}
);
width = 801;
}
);
note = uni159B;
unicode = 5531;
},
{
glyphname = "thiWoodScree-canadian";
kernRight = niright;
lastChange = "2023-01-13 15:54:43 +0000";
layers = (
{
layerId = "C6C6CC8B-76AD-4983-B2A6-35FF5D496205";
shapes = (
{
closed = 1;
nodes = (
(425,-13,o),
(510,79,o),
(510,229,cs),
(510,321,o),
(471,402,o),
(397,433,c),
(392,419,l),
(729,419,l),
(729,472,l),
(299,472,ls),
(156,472,o),
(71,379,o),
(71,230,cs),
(71,80,o),
(157,-13,o),
(291,-13,cs)
);
},
{
closed = 1;
nodes = (
(190,42,o),
(132,113,o),
(132,230,cs),
(132,348,o),
(191,418,o),
(293,418,cs),
(391,418,o),
(449,346,o),
(449,230,cs),
(449,112,o),
(391,42,o),
(291,42,cs)
);
},
{
closed = 1;
nodes = (
(729,637,l),
(729,690,l),
(82,690,l),
(82,637,l)
);
}
);
width = 801;
}
);
metricLeft = "theWoodScree-canadian";
metricRight = "theWoodScree-canadian";
note = uni159C;
unicode = 5532;
},
{
glyphname = "thoWoodScree-canadian";
lastChange = "2023-01-13 15:54:43 +0000";
layers = (
{
layerId = "C6C6CC8B-76AD-4983-B2A6-35FF5D496205";
shapes = (
{
closed = 1;
nodes = (
(504,0,ls),
(645,0,o),
(729,92,o),
(729,242,cs),
(729,392,o),
(643,484,o),
(510,484,cs),
(377,484,o),
(291,392,o),
(291,243,cs),
(291,153,o),
(328,71,o),
(402,40,c),
(409,53,l),
(71,53,l),
(71,0,l)
);
},
{
closed = 1;
nodes = (
(410,54,o),
(352,127,o),
(352,242,cs),
(352,360,o),
(410,430,o),
(510,430,cs),
(611,430,o),
(668,359,o),
(668,242,cs),
(668,124,o),
(610,54,o),
(508,54,cs)
);
},
{
closed = 1;
nodes = (
(719,637,l),
(719,690,l),
(71,690,l),
(71,637,l)
);
}
);
width = 801;
}
);
metricLeft = "theWoodScree-canadian";
metricRight = "theWoodScree-canadian";
note = uni159D;
unicode = 5533;
},
{
glyphname = "thaWoodScree-canadian";
lastChange = "2023-01-13 15:54:43 +0000";
layers = (
{
layerId = "C6C6CC8B-76AD-4983-B2A6-35FF5D496205";
shapes = (
{
closed = 1;
nodes = (
(729,0,l),
(729,53,l),
(392,53,l),
(398,40,l),
(471,71,o),
(510,152,o),
(510,243,cs),
(510,393,o),
(425,484,o),
(291,484,cs),
(157,484,o),
(71,392,o),
(71,242,cs),
(71,93,o),
(156,0,o),
(298,0,cs)
);
},
{
closed = 1;
nodes = (
(191,54,o),
(132,124,o),
(132,242,cs),
(132,359,o),
(190,430,o),
(291,430,cs),
(391,430,o),
(449,360,o),
(449,242,cs),
(449,127,o),
(391,54,o),
(293,54,cs)
);
},
{
closed = 1;
nodes = (
(729,637,l),
(729,690,l),
(82,690,l),
(82,637,l)
);
}
);
width = 801;
}
);
metricLeft = "theWoodScree-canadian";
metricRight = "theWoodScree-canadian";
note = uni159E;
unicode = 5534;
},
{
glyphname = "thWoodScree-canadian";
lastChange = "2023-01-13 15:54:43 +0000";
layers = (
{
layerId = "C6C6CC8B-76AD-4983-B2A6-35FF5D496205";
shapes = (
{
closed = 1;
nodes = (
(428,345,l),
(428,385,l),
(240,385,l),
(242,368,l),
(279,382,o),
(301,427,o),
(301,478,cs),
(301,557,o),
(254,607,o),
(185,607,cs),
(116,607,o),
(68,556,o),
(68,476,cs),
(68,396,o),
(115,345,o),
(190,345,cs)
);
},
{
closed = 1;
nodes = (
(140,381,o),
(109,416,o),
(109,476,cs),
(109,536,o),
(140,570,o),
(185,570,cs),
(230,570,o),
(260,536,o),
(260,476,cs),
(260,416,o),
(230,381,o),
(185,381,cs)
);
},
{
closed = 1;
nodes = (
(427,676,l),
(427,717,l),
(72,717,l),
(72,676,l)
);
}
);
width = 496;
}
);
metricRight = "=|";
note = uni159F;
unicode = 5535;
},
{
glyphname = "lhi-canadian";
kernRight = niright;
lastChange = "2023-01-13 15:54:43 +0000";
layers = (
{
anchors = (
{
name = top_center_can;
pos = (462,690);
},
{
name = top_right_can;
pos = (547,690);
}
);
layerId = "C6C6CC8B-76AD-4983-B2A6-35FF5D496205";
shapes = (
{
closed = 1;
nodes = (
(350,0,l),
(350,55,l),
(309,55,ls),
(191,55,o),
(129,122,o),
(129,234,cs),
(129,344,o),
(185,415,o),
(308,415,cs),
(725,415,l),
(725,467,l),
(554,722,l),
(508,690,l),
(680,435,l),
(678,472,l),
(307,472,ls),
(151,472,o),
(68,377,o),
(68,234,cs),
(68,90,o),
(156,0,o),
(304,0,cs)
);
}
);
width = 787;
}
);
metricLeft = "ke-canadian";
metricRight = "=|ne-canadian";
note = uni15A0;
unicode = 5536;
},
{
glyphname = "lho-canadian";
kernLeft = noleft;
lastChange = "2023-01-13 15:54:47 +0000";
layers = (
{
anchors = (
{
name = top_center_can;
pos = (383,490);
},
{
name = top_right_can;
pos = (494,490);
}
);
layerId = "C6C6CC8B-76AD-4983-B2A6-35FF5D496205";
shapes = (
{
closed = 1;
nodes = (
(279,-218,l),
(108,37,l),
(109,0,l),
(478,0,ls),
(633,0,o),
(720,90,o),
(720,237,cs),
(720,383,o),
(631,471,o),
(483,471,cs),
(439,471,l),
(439,416,l),
(479,416,ls),
(596,416,o),
(659,350,o),
(659,238,cs),
(659,123,o),
(596,56,o),
(479,56,cs),
(62,56,l),
(62,6,l),
(234,-249,l)
);
}
);
width = 788;
}
);
metricLeft = "ne-canadian";
metricRight = "=|ke-canadian";
note = uni15A2;
unicode = 5538;
},
{
glyphname = "lha-canadian";
kernRight = naright;
lastChange = "2023-01-13 15:54:43 +0000";
layers = (
{
anchors = (
{
name = top_center_can;
pos = (408,490);
},
{
name = top_left_can;
pos = (296,490);
}
);
layerId = "C6C6CC8B-76AD-4983-B2A6-35FF5D496205";
shapes = (
{
closed = 1;
nodes = (
(725,6,l),
(725,56,l),
(311,56,ls),
(193,56,o),
(129,122,o),
(129,238,cs),
(129,351,o),
(190,416,o),
(306,416,cs),
(350,416,l),
(350,472,l),
(306,472,ls),
(154,472,o),
(68,382,o),
(68,237,cs),
(68,88,o),
(156,0,o),
(310,0,cs),
(678,0,l),
(680,38,l),
(508,-218,l),
(554,-249,l)
);
}
);
width = 787;
}
);
metricLeft = "ke-canadian";
metricRight = "=|ne-canadian";
note = uni15A4;
unicode = 5540;
},
{
glyphname = "lh-canadian";
kernLeft = mwestleft;
kernRight = mwestright;
lastChange = "2023-01-13 15:54:47 +0000";
layers = (
{
layerId = "C6C6CC8B-76AD-4983-B2A6-35FF5D496205";
shapes = (
{
closed = 1;
nodes = (
(434,350,l),
(434,387,l),
(239,387,ls),
(151,387,o),
(111,436,o),
(111,518,cs),
(111,600,o),
(151,647,o),
(235,647,cs),
(248,647,l),
(248,690,l),
(233,690,ls),
(124,690,o),
(66,622,o),
(66,518,cs),
(66,412,o),
(124,345,o),
(235,345,cs),
(405,345,l),
(401,372,l),
(308,230,l),
(341,208,l)
);
}
);
width = 500;
}
);
metricLeft = "t-canadian";
metricRight = "=|";
note = uni15A6;
unicode = 5542;
},
{
glyphname = "theThCree-canadian";
lastChange = "2023-01-13 15:54:43 +0000";
layers = (
{
anchors = (
{
name = top_left_can;
pos = (78,690);
},
{
name = top_right_can;
pos = (440,690);
}
);
layerId = "C6C6CC8B-76AD-4983-B2A6-35FF5D496205";
shapes = (
{
closed = 1;
nodes = (
(470,0,l),
(470,117,l),
(552,117,l),
(552,157,l),
(470,157,l),
(470,310,l),
(123,310,l),
(121,278,l),
(484,664,l),
(441,701,l),
(47,280,l),
(47,255,l),
(409,255,l),
(409,157,l),
(165,157,l),
(165,117,l),
(409,117,l),
(409,0,l)
);
}
);
width = 587;
}
);
metricLeft = "ye-canadian";
note = uni15A7;
unicode = 5543;
},
{
glyphname = "thiThCree-canadian";
kernRight = yiright;
lastChange = "2023-01-13 15:54:47 +0000";
layers = (
{
anchors = (
{
name = top_left_can;
pos = (147,690);
},
{
name = top_right_can;
pos = (509,690);
}
);
layerId = "C6C6CC8B-76AD-4983-B2A6-35FF5D496205";
shapes = (
{
closed = 1;
nodes = (
(178,0,l),
(178,117,l),
(422,117,l),
(422,157,l),
(178,157,l),
(178,255,l),
(539,255,l),
(539,280,l),
(146,701,l),
(104,664,l),
(468,277,l),
(466,310,l),
(116,310,l),
(116,157,l),
(35,157,l),
(35,117,l),
(116,117,l),
(116,0,l)
);
}
);
width = 586;
}
);
metricLeft = "=|theThCree-canadian";
metricRight = "=|ye-canadian";
note = uni15A8;
unicode = 5544;
},
{
glyphname = "thoThCree-canadian";
kernLeft = yoleft;
lastChange = "2023-01-13 15:54:43 +0000";
layers = (
{
anchors = (
{
name = top_left_can;
pos = (78,690);
},
{
name = top_right_can;
pos = (440,690);
}
);
layerId = "C6C6CC8B-76AD-4983-B2A6-35FF5D496205";
shapes = (
{
closed = 1;
nodes = (
(483,26,l),
(120,411,l),
(122,380,l),
(470,380,l),
(470,532,l),
(552,532,l),
(552,573,l),
(470,573,l),
(470,690,l),
(409,690,l),
(409,573,l),
(165,573,l),
(165,532,l),
(409,532,l),
(409,435,l),
(47,435,l),
(47,410,l),
(441,-12,l)
);
}
);
width = 587;
}
);
metricLeft = "ye-canadian";
metricRight = "theThCree-canadian";
note = uni15AA;
unicode = 5546;
},
{
glyphname = "thaThCree-canadian";
kernRight = yaright;
lastChange = "2023-01-13 15:54:47 +0000";
layers = (
{
anchors = (
{
name = top_left_can;
pos = (147,690);
},
{
name = top_right_can;
pos = (509,690);
}
);
layerId = "C6C6CC8B-76AD-4983-B2A6-35FF5D496205";
shapes = (
{
closed = 1;
nodes = (
(539,410,l),
(539,435,l),
(178,435,l),
(178,532,l),
(422,532,l),
(422,573,l),
(178,573,l),
(178,690,l),
(116,690,l),
(116,573,l),
(35,573,l),
(35,532,l),
(116,532,l),
(116,380,l),
(466,380,l),
(468,411,l),
(104,26,l),
(146,-12,l)
);
}
);
width = 586;
}
);
metricLeft = "=|theThCree-canadian";
metricRight = "=|ye-canadian";
note = uni15AC;
unicode = 5548;
},
{
glyphname = "thThCree-canadian";
kernLeft = mwestleft;
kernRight = mwestright;
lastChange = "2023-01-13 15:54:43 +0000";
layers = (
{
layerId = "C6C6CC8B-76AD-4983-B2A6-35FF5D496205";
shapes = (
{
closed = 1;
nodes = (
(321,546,l),
(321,562,l),
(143,562,l),
(143,612,l),
(262,612,l),
(262,639,l),
(143,639,l),
(143,690,l),
(97,690,l),
(97,639,l),
(56,639,l),
(56,612,l),
(97,612,l),
(97,524,l),
(274,524,l),
(269,549,l),
(96,362,l),
(127,336,l)
);
}
);
width = 362;
}
);
metricRight = "y-canadian";
note = uni15AE;
unicode = 5550;
},
{
glyphname = "bAivilik-canadian";
lastChange = "2023-01-13 15:54:43 +0000";
layers = (
{
layerId = "C6C6CC8B-76AD-4983-B2A6-35FF5D496205";
shapes = (
{
closed = 1;
nodes = (
(425,-13,o),
(508,84,o),
(508,237,cs),
(508,387,o),
(424,484,o),
(302,484,cs),
(215,484,o),
(152,433,o),
(135,363,c),
(142,349,l),
(142,690,l),
(80,690,l),
(80,0,l),
(140,0,l),
(140,124,l),
(135,110,l),
(152,40,o),
(215,-13,o),
(303,-13,cs)
);
},
{
closed = 1;
nodes = (
(199,42,o),
(142,112,o),
(142,236,cs),
(142,359,o),
(200,430,o),
(295,430,cs),
(388,430,o),
(447,359,o),
(447,236,cs),
(447,112,o),
(389,42,o),
(295,42,cs)
);
}
);
width = 576;
}
);
metricLeft = "nunavuth-canadian";
metricRight = "=|ke-canadian";
note = uni15AF;
unicode = 5551;
},
{
glyphname = "eBlackfoot-canadian";
lastChange = "2023-01-13 15:54:43 +0000";
layers = (
{
layerId = "C6C6CC8B-76AD-4983-B2A6-35FF5D496205";
shapes = (
{
closed = 1;
nodes = (
(142,0,l),
(142,409,l),
(171,373,o),
(213,353,o),
(264,353,cs),
(359,353,o),
(427,427,o),
(427,527,cs),
(427,628,o),
(359,702,o),
(264,702,cs),
(213,702,o),
(168,680,o),
(140,644,c),
(140,690,l),
(80,690,l),
(80,0,l)
);
}
);
width = 472;
}
);
metricLeft = "nunavuth-canadian";
note = uni15B0;
unicode = 5552;
},
{
glyphname = "iBlackfoot-canadian";
lastChange = "2023-01-13 15:54:43 +0000";
layers = (
{
layerId = "C6C6CC8B-76AD-4983-B2A6-35FF5D496205";
shapes = (
{
closed = 1;
nodes = (
(260,-13,o),
(303,10,o),
(331,45,c),
(331,0,l),
(391,0,l),
(391,690,l),
(329,690,l),
(329,281,l),
(301,317,o),
(258,337,o),
(208,337,cs),
(112,337,o),
(45,263,o),
(45,162,cs),
(45,62,o),
(112,-13,o),
(208,-13,cs)
);
}
);
width = 471;
}
);
metricLeft = "=|eBlackfoot-canadian";
metricRight = "nunavuth-canadian";
note = uni15B1;
unicode = 5553;
},
{
glyphname = "oBlackfoot-canadian";
lastChange = "2023-01-13 15:54:43 +0000";
layers = (
{
layerId = "C6C6CC8B-76AD-4983-B2A6-35FF5D496205";
shapes = (
{
closed = 1;
nodes = (
(359,-13,o),
(427,62,o),
(427,162,cs),
(427,263,o),
(359,337,o),
(264,337,cs),
(213,337,o),
(171,317,o),
(142,281,c),
(142,690,l),
(80,690,l),
(80,0,l),
(140,0,l),
(140,45,l),
(168,10,o),
(213,-13,o),
(264,-13,cs)
);
}
);
width = 472;
}
);
metricLeft = "nunavuth-canadian";
metricRight = "eBlackfoot-canadian";
note = uni15B2;
unicode = 5554;
},
{
glyphname = "aBlackfoot-canadian";
lastChange = "2023-01-13 15:54:43 +0000";
layers = (
{
layerId = "C6C6CC8B-76AD-4983-B2A6-35FF5D496205";
shapes = (
{
closed = 1;
nodes = (
(391,0,l),
(391,690,l),
(331,690,l),
(331,644,l),
(303,680,o),
(260,702,o),
(208,702,cs),
(112,702,o),
(45,628,o),
(45,527,cs),
(45,427,o),
(112,353,o),
(208,353,cs),
(258,353,o),
(301,373,o),
(329,409,c),
(329,0,l)
);
}
);
width = 471;
}
);
metricLeft = "=|eBlackfoot-canadian";
metricRight = "nunavuth-canadian";
note = uni15B3;
unicode = 5555;
},
{
glyphname = "weBlackfoot-canadian";
lastChange = "2023-01-13 15:54:43 +0000";
layers = (
{
layerId = "C6C6CC8B-76AD-4983-B2A6-35FF5D496205";
shapes = (
{
closed = 1;
nodes = (
(142,319,l),
(492,319,l),
(492,372,l),
(142,372,l),
(142,637,l),
(492,637,l),
(492,690,l),
(80,690,l),
(80,0,l),
(142,0,l)
);
}
);
width = 552;
}
);
metricLeft = "nunavuth-canadian";
note = uni15B4;
unicode = 5556;
},
{
glyphname = "wiBlackfoot-canadian";
lastChange = "2023-01-13 15:54:47 +0000";
layers = (
{
layerId = "C6C6CC8B-76AD-4983-B2A6-35FF5D496205";
shapes = (
{
closed = 1;
nodes = (
(471,0,l),
(471,690,l),
(410,690,l),
(410,371,l),
(60,371,l),
(60,318,l),
(410,318,l),
(410,53,l),
(60,53,l),
(60,0,l)
);
}
);
width = 551;
}
);
metricLeft = "=|weBlackfoot-canadian";
metricRight = "nunavuth-canadian";
note = uni15B5;
unicode = 5557;
},
{
glyphname = "woBlackfoot-canadian";
lastChange = "2023-01-13 15:54:43 +0000";
layers = (
{
layerId = "C6C6CC8B-76AD-4983-B2A6-35FF5D496205";
shapes = (
{
closed = 1;
nodes = (
(492,0,l),
(492,53,l),
(142,53,l),
(142,318,l),
(492,318,l),
(492,371,l),
(142,371,l),
(142,690,l),
(80,690,l),
(80,0,l)
);
}
);
width = 552;
}
);
metricLeft = "nunavuth-canadian";
metricRight = "weBlackfoot-canadian";
note = uni15B6;
unicode = 5558;
},
{
glyphname = "waBlackfoot-canadian";
lastChange = "2023-01-13 15:54:47 +0000";
layers = (
{
layerId = "C6C6CC8B-76AD-4983-B2A6-35FF5D496205";
shapes = (
{
closed = 1;
nodes = (
(471,0,l),
(471,690,l),
(60,690,l),
(60,637,l),
(410,637,l),
(410,372,l),
(60,372,l),
(60,319,l),
(410,319,l),
(410,0,l)
);
}
);
width = 551;
}
);
metricLeft = "=|weBlackfoot-canadian";
metricRight = "nunavuth-canadian";
note = uni15B7;
unicode = 5559;
},
{
glyphname = "neBlackfoot-canadian";
lastChange = "2023-01-13 15:54:43 +0000";
layers = (
{
layerId = "C6C6CC8B-76AD-4983-B2A6-35FF5D496205";
shapes = (
{
closed = 1;
nodes = (
(142,0,l),
(142,641,l),
(187,641,l),
(164,678,l),
(164,656,ls),
(164,501,o),
(243,408,o),
(376,408,cs),
(507,408,o),
(590,501,o),
(590,651,cs),
(590,690,l),
(530,690,l),
(530,649,ls),
(530,531,o),
(473,462,o),
(377,462,cs),
(281,462,o),
(225,530,o),
(225,648,cs),
(225,690,l),
(80,690,l),
(80,0,l)
);
}
);
width = 635;
}
);
metricLeft = "nunavuth-canadian";
note = uni15B8;
unicode = 5560;
},
{
glyphname = "niBlackfoot-canadian";
lastChange = "2023-01-13 15:54:47 +0000";
layers = (
{
layerId = "C6C6CC8B-76AD-4983-B2A6-35FF5D496205";
shapes = (
{
closed = 1;
nodes = (
(106,0,l),
(106,41,ls),
(106,158,o),
(163,228,o),
(259,228,cs),
(356,228,o),
(412,159,o),
(412,42,cs),
(412,0,l),
(555,0,l),
(555,690,l),
(494,690,l),
(494,48,l),
(449,48,l),
(472,12,l),
(472,34,ls),
(472,188,o),
(393,282,o),
(260,282,cs),
(129,282,o),
(45,188,o),
(45,39,cs),
(45,0,l)
);
}
);
width = 635;
}
);
metricLeft = "=|neBlackfoot-canadian";
metricRight = "nunavuth-canadian";
note = uni15B9;
unicode = 5561;
},
{
glyphname = "noBlackfoot-canadian";
lastChange = "2023-01-13 15:54:43 +0000";
layers = (
{
layerId = "C6C6CC8B-76AD-4983-B2A6-35FF5D496205";
shapes = (
{
closed = 1;
nodes = (
(225,0,l),
(225,42,ls),
(225,159,o),
(281,228,o),
(377,228,cs),
(473,228,o),
(530,158,o),
(530,41,cs),
(530,0,l),
(590,0,l),
(590,39,ls),
(590,188,o),
(507,282,o),
(376,282,cs),
(243,282,o),
(164,188,o),
(164,34,cs),
(164,12,l),
(187,48,l),
(142,48,l),
(142,690,l),
(80,690,l),
(80,0,l)
);
}
);
width = 635;
}
);
metricLeft = "nunavuth-canadian";
metricRight = "neBlackfoot-canadian";
note = uni15BA;
unicode = 5562;
},
{
glyphname = "naBlackfoot-canadian";
lastChange = "2023-01-13 15:54:47 +0000";
layers = (
{
layerId = "C6C6CC8B-76AD-4983-B2A6-35FF5D496205";
shapes = (
{
closed = 1;
nodes = (
(555,0,l),
(555,690,l),
(412,690,l),
(412,648,ls),
(412,530,o),
(356,462,o),
(259,462,cs),
(163,462,o),
(106,531,o),
(106,649,cs),
(106,690,l),
(45,690,l),
(45,651,ls),
(45,501,o),
(129,408,o),
(260,408,cs),
(393,408,o),
(472,501,o),
(472,656,cs),
(472,678,l),
(449,641,l),
(494,641,l),
(494,0,l)
);
}
);
width = 635;
}
);
metricLeft = "=|neBlackfoot-canadian";
metricRight = "nunavuth-canadian";
note = uni15BB;
unicode = 5563;
},
{
glyphname = "keBlackfoot-canadian";
lastChange = "2023-01-13 15:54:43 +0000";
layers = (
{
layerId = "C6C6CC8B-76AD-4983-B2A6-35FF5D496205";
shapes = (
{
closed = 1;
nodes = (
(142,0,l),
(142,623,l),
(116,623,l),
(307,258,l),
(337,258,l),
(565,690,l),
(500,690,l),
(306,318,l),
(332,318,l),
(138,690,l),
(80,690,l),
(80,0,l)
);
}
);
width = 594;
}
);
metricLeft = "nunavuth-canadian";
note = uni15BC;
unicode = 5564;
},
{
glyphname = "kiBlackfoot-canadian";
lastChange = "2023-01-13 15:54:43 +0000";
layers = (
{
layerId = "C6C6CC8B-76AD-4983-B2A6-35FF5D496205";
shapes = (
{
closed = 1;
nodes = (
(94,0,l),
(288,372,l),
(262,372,l),
(457,0,l),
(514,0,l),
(514,690,l),
(452,690,l),
(452,67,l),
(479,67,l),
(288,432,l),
(257,432,l),
(29,0,l)
);
}
);
width = 594;
}
);
metricLeft = "=|keBlackfoot-canadian";
metricRight = "nunavuth-canadian";
note = uni15BD;
unicode = 5565;
},
{
glyphname = "koBlackfoot-canadian";
lastChange = "2023-01-13 15:54:43 +0000";
layers = (
{
layerId = "C6C6CC8B-76AD-4983-B2A6-35FF5D496205";
shapes = (
{
closed = 1;
nodes = (
(138,0,l),
(332,372,l),
(306,372,l),
(500,0,l),
(565,0,l),
(337,432,l),
(307,432,l),
(116,67,l),
(142,67,l),
(142,690,l),
(80,690,l),
(80,0,l)
);
}
);
width = 594;
}
);
metricLeft = "nunavuth-canadian";
metricRight = "keBlackfoot-canadian";
note = uni15BE;
unicode = 5566;
},
{
glyphname = "kaBlackfoot-canadian";
lastChange = "2023-01-13 15:54:43 +0000";
layers = (
{
layerId = "C6C6CC8B-76AD-4983-B2A6-35FF5D496205";
shapes = (
{
closed = 1;
nodes = (
(514,0,l),
(514,690,l),
(457,690,l),
(262,318,l),
(288,318,l),
(94,690,l),
(29,690,l),
(257,258,l),
(288,258,l),
(479,623,l),
(452,623,l),
(452,0,l)
);
}
);
width = 594;
}
);
metricLeft = "=|keBlackfoot-canadian";
metricRight = "nunavuth-canadian";
note = uni15BF;
unicode = 5567;
},
{
color = 9;
glyphname = "heSayisi-canadian";
lastChange = "2023-01-13 15:54:47 +0000";
layers = (
{
anchors = (
{
name = top_right_can;
pos = (527,690);
}
);
layerId = "C6C6CC8B-76AD-4983-B2A6-35FF5D496205";
shapes = (
{
closed = 1;
nodes = (
(557,0,l),
(557,690,l),
(497,690,l),
(497,245,l),
(509,245,l),
(501,510,o),
(416,702,o),
(252,702,cs),
(129,702,o),
(61,618,o),
(61,457,cs),
(61,422,o),
(65,381,o),
(73,340,c),
(132,340,l),
(124,380,o),
(121,421,o),
(121,453,cs),
(121,587,o),
(172,647,o),
(263,647,cs),
(412,647,o),
(496,443,o),
(497,0,c)
);
}
);
width = 637;
}
);
metricRight = "nunavuth-canadian";
note = uni15C0;
unicode = 5568;
},
{
color = 9;
glyphname = "hiSayisi-canadian";
lastChange = "2023-01-13 15:54:43 +0000";
layers = (
{
layerId = "C6C6CC8B-76AD-4983-B2A6-35FF5D496205";
shapes = (
{
closed = 1;
nodes = (
(142,0,l),
(143,443,o),
(227,647,o),
(376,647,cs),
(467,647,o),
(518,587,o),
(518,453,cs),
(518,421,o),
(515,380,o),
(506,340,c),
(565,340,l),
(574,381,o),
(578,422,o),
(578,457,cs),
(578,618,o),
(509,702,o),
(386,702,cs),
(222,702,o),
(137,510,o),
(129,245,c),
(142,245,l),
(142,690,l),
(80,690,l),
(80,0,l)
);
}
);
width = 639;
}
);
metricLeft = "nunavuth-canadian";
metricRight = "=|heSayisi-canadian";
note = uni15C1;
unicode = 5569;
},
{
color = 9;
glyphname = "hoSayisi-canadian";
lastChange = "2023-01-13 15:54:47 +0000";
layers = (
{
anchors = (
{
name = top_center_can;
pos = (315,690);
},
{
name = top_left_can;
pos = (102,690);
},
{
name = top_right_can;
pos = (527,690);
}
);
layerId = "C6C6CC8B-76AD-4983-B2A6-35FF5D496205";
shapes = (
{
closed = 1;
nodes = (
(416,-13,o),
(501,180,o),
(509,444,c),
(497,444,l),
(497,0,l),
(557,0,l),
(557,690,l),
(497,690,l),
(496,246,o),
(412,43,o),
(263,43,cs),
(172,43,o),
(121,102,o),
(121,237,cs),
(121,269,o),
(124,310,o),
(132,350,c),
(73,350,l),
(65,309,o),
(61,268,o),
(61,233,cs),
(61,71,o),
(129,-13,o),
(252,-13,cs)
);
}
);
width = 637;
}
);
metricLeft = "heSayisi-canadian";
metricRight = "nunavuth-canadian";
note = uni15C2;
unicode = 5570;
},
{
color = 9;
glyphname = "haSayisi-canadian";
lastChange = "2023-01-13 15:54:43 +0000";
layers = (
{
layerId = "C6C6CC8B-76AD-4983-B2A6-35FF5D496205";
shapes = (
{
closed = 1;
nodes = (
(509,-13,o),
(578,71,o),
(578,233,cs),
(578,268,o),
(574,309,o),
(565,350,c),
(506,350,l),
(515,310,o),
(518,269,o),
(518,237,cs),
(518,102,o),
(467,43,o),
(376,43,cs),
(227,43,o),
(143,246,o),
(142,690,c),
(80,690,l),
(80,0,l),
(142,0,l),
(142,444,l),
(129,444,l),
(137,180,o),
(222,-13,o),
(386,-13,cs)
);
}
);
width = 639;
}
);
metricLeft = "nunavuth-canadian";
metricRight = "=|heSayisi-canadian";
note = uni15C3;
unicode = 5571;
},
{
color = 9;
glyphname = "ghuCarrier-canadian";
lastChange = "2023-01-13 15:54:43 +0000";
layers = (
{
layerId = "C6C6CC8B-76AD-4983-B2A6-35FF5D496205";
shapes = (
{
closed = 1;
nodes = (
(359,0,l),
(655,670,l),
(655,690,l),
(603,690,l),
(498,447,l),
(531,461,l),
(160,461,l),
(194,447,l),
(90,690,l),
(36,690,l),
(36,670,l),
(331,0,l)
);
},
{
closed = 1;
nodes = (
(513,412,l),
(491,424,l),
(334,64,l),
(358,64,l),
(202,425,l),
(181,412,l)
);
}
);
width = 691;
}
);
metricLeft = "e-canadian";
metricRight = "e-canadian";
note = uni15C4;
unicode = 5572;
},
{
color = 9;
glyphname = "ghoCarrier-canadian";
lastChange = "2023-01-13 15:54:43 +0000";
layers = (
{
layerId = "C6C6CC8B-76AD-4983-B2A6-35FF5D496205";
shapes = (
{
closed = 1;
nodes = (
(90,0,l),
(194,242,l),
(160,229,l),
(531,229,l),
(498,242,l),
(603,0,l),
(655,0,l),
(655,19,l),
(359,690,l),
(331,690,l),
(36,19,l),
(36,0,l)
);
},
{
closed = 1;
nodes = (
(358,626,l),
(334,626,l),
(491,266,l),
(513,277,l),
(181,277,l),
(202,265,l)
);
}
);
width = 691;
}
);
metricLeft = "e-canadian";
metricRight = "e-canadian";
note = uni15C5;
unicode = 5573;
},
{
color = 9;
glyphname = "gheCarrier-canadian";
lastChange = "2023-01-13 15:54:43 +0000";
layers = (
{
anchors = (
{
name = middle_center_can;
pos = (75,345);
}
);
layerId = "C6C6CC8B-76AD-4983-B2A6-35FF5D496205";
shapes = (
{
closed = 1;
nodes = (
(76,0,l),
(599,331,l),
(599,358,l),
(76,690,l),
(57,690,l),
(57,639,l),
(219,536,l),
(212,562,l),
(212,123,l),
(219,155,l),
(57,51,l),
(57,0,l)
);
},
{
closed = 1;
nodes = (
(260,544,l),
(246,525,l),
(550,330,l),
(550,359,l),
(246,166,l),
(260,147,l)
);
}
);
width = 635;
}
);
metricLeft = "po-canadian";
metricRight = "o-canadian";
note = uni15C6;
unicode = 5574;
},
{
color = 9;
glyphname = "ghaCarrier-canadian";
lastChange = "2023-01-13 15:54:43 +0000";
layers = (
{
layerId = "C6C6CC8B-76AD-4983-B2A6-35FF5D496205";
shapes = (
{
closed = 1;
nodes = (
(577,0,l),
(577,50,l),
(417,153,l),
(426,124,l),
(426,566,l),
(417,537,l),
(577,639,l),
(577,690,l),
(558,690,l),
(36,358,l),
(36,331,l),
(558,0,l)
);
},
{
closed = 1;
nodes = (
(391,164,l),
(85,359,l),
(85,330,l),
(391,526,l),
(378,541,l),
(378,150,l)
);
}
);
width = 634;
}
);
metricLeft = "=|o-canadian";
metricRight = "=|po-canadian";
note = uni15C9;
unicode = 5577;
},
{
color = 9;
glyphname = "ruCarrier-canadian";
lastChange = "2023-01-13 15:54:43 +0000";
layers = (
{
layerId = "C6C6CC8B-76AD-4983-B2A6-35FF5D496205";
shapes = (
{
closed = 1;
nodes = (
(359,0,l),
(655,670,l),
(655,690,l),
(603,690,l),
(562,596,l),
(581,608,l),
(110,608,l),
(130,595,l),
(90,690,l),
(36,690,l),
(36,670,l),
(331,0,l)
);
},
{
closed = 1;
nodes = (
(565,557,l),
(554,574,l),
(335,65,l),
(358,65,l),
(139,573,l),
(126,557,l)
);
}
);
width = 691;
}
);
metricLeft = "e-canadian";
metricRight = "e-canadian";
note = uni15CA;
unicode = 5578;
},
{
color = 9;
glyphname = "roCarrier-canadian";
lastChange = "2023-01-13 15:54:43 +0000";
layers = (
{
layerId = "C6C6CC8B-76AD-4983-B2A6-35FF5D496205";
shapes = (
{
closed = 1;
nodes = (
(89,0,l),
(129,94,l),
(110,82,l),
(581,82,l),
(562,95,l),
(603,0,l),
(655,0,l),
(655,19,l),
(359,690,l),
(331,690,l),
(36,19,l),
(36,0,l)
);
},
{
closed = 1;
nodes = (
(357,627,l),
(334,627,l),
(553,117,l),
(565,132,l),
(127,132,l),
(137,116,l)
);
}
);
width = 691;
}
);
metricLeft = "e-canadian";
metricRight = "e-canadian";
note = uni15CB;
unicode = 5579;
},
{
color = 9;
glyphname = "reCarrier-canadian";
lastChange = "2023-01-13 15:54:43 +0000";
layers = (
{
layerId = "C6C6CC8B-76AD-4983-B2A6-35FF5D496205";
shapes = (
{
closed = 1;
nodes = (
(76,0,l),
(599,331,l),
(599,358,l),
(76,690,l),
(57,690,l),
(57,639,l),
(134,590,l),
(124,611,l),
(124,77,l),
(134,99,l),
(57,50,l),
(57,0,l)
);
},
{
closed = 1;
nodes = (
(173,594,l),
(161,577,l),
(548,330,l),
(548,359,l),
(161,114,l),
(173,96,l)
);
}
);
width = 635;
}
);
metricLeft = "po-canadian";
metricRight = "o-canadian";
note = uni15CC;
unicode = 5580;
},
{
color = 9;
glyphname = "reeCarrier-canadian";
lastChange = "2023-01-13 15:54:43 +0000";
layers = (
{
layerId = "C6C6CC8B-76AD-4983-B2A6-35FF5D496205";
shapes = (
{
closed = 1;
nodes = (
(76,0,l),
(599,331,l),
(599,358,l),
(76,690,l),
(57,690,l),
(57,644,l),
(134,595,l),
(124,614,l),
(124,73,l),
(134,95,l),
(57,45,l),
(57,0,l)
);
},
{
closed = 1;
nodes = (
(168,597,l),
(157,584,l),
(557,330,l),
(557,359,l),
(157,105,l),
(168,96,l)
);
},
{
closed = 1;
nodes = (
(268,254,l),
(268,438,l),
(235,438,l),
(235,254,l)
);
}
);
width = 635;
}
);
metricLeft = "po-canadian";
metricRight = "o-canadian";
note = uni15CD;
unicode = 5581;
},
{
color = 9;
glyphname = "riCarrier-canadian";
lastChange = "2023-01-13 15:54:43 +0000";
layers = (
{
layerId = "C6C6CC8B-76AD-4983-B2A6-35FF5D496205";
shapes = (
{
closed = 1;
nodes = (
(76,0,l),
(599,331,l),
(599,358,l),
(76,690,l),
(57,690,l),
(57,644,l),
(134,595,l),
(124,614,l),
(124,73,l),
(134,95,l),
(57,45,l),
(57,0,l)
);
},
{
closed = 1;
nodes = (
(292,308,o),
(308,324,o),
(308,345,cs),
(308,366,o),
(292,382,o),
(271,382,cs),
(251,382,o),
(235,366,o),
(235,345,cs),
(235,324,o),
(251,308,o),
(271,308,cs)
);
},
{
closed = 1;
nodes = (
(168,596,l),
(157,583,l),
(557,330,l),
(557,359,l),
(157,106,l),
(168,97,l)
);
}
);
width = 635;
}
);
metricLeft = "po-canadian";
metricRight = "o-canadian";
note = uni15CE;
unicode = 5582;
},
{
color = 9;
glyphname = "raCarrier-canadian";
lastChange = "2023-01-13 15:54:43 +0000";
layers = (
{
layerId = "C6C6CC8B-76AD-4983-B2A6-35FF5D496205";
shapes = (
{
closed = 1;
nodes = (
(577,0,l),
(577,51,l),
(501,99,l),
(511,74,l),
(511,615,l),
(501,590,l),
(577,639,l),
(577,690,l),
(557,690,l),
(36,358,l),
(36,331,l),
(557,0,l)
);
},
{
closed = 1;
nodes = (
(474,578,l),
(462,594,l),
(462,97,l),
(474,113,l),
(87,359,l),
(87,330,l)
);
}
);
width = 634;
}
);
metricLeft = "=|o-canadian";
metricRight = "=|po-canadian";
note = uni15CF;
unicode = 5583;
},
{
color = 9;
glyphname = "wuCarrier-canadian";
lastChange = "2023-01-13 15:54:43 +0000";
layers = (
{
layerId = "C6C6CC8B-76AD-4983-B2A6-35FF5D496205";
shapes = (
{
closed = 1;
nodes = (
(362,0,l),
(660,670,l),
(660,690,l),
(611,690,l),
(358,101,l),
(375,101,l),
(375,690,l),
(324,690,l),
(324,101,l),
(340,101,l),
(87,690,l),
(36,690,l),
(36,670,l),
(333,0,l)
);
}
);
width = 696;
}
);
metricLeft = "e-canadian";
metricRight = "e-canadian";
note = uni15D0;
unicode = 5584;
},
{
color = 9;
glyphname = "woCarrier-canadian";
lastChange = "2023-01-13 15:54:43 +0000";
layers = (
{
layerId = "C6C6CC8B-76AD-4983-B2A6-35FF5D496205";
shapes = (
{
closed = 1;
nodes = (
(86,0,l),
(338,588,l),
(323,588,l),
(323,0,l),
(373,0,l),
(373,588,l),
(356,588,l),
(610,0,l),
(660,0,l),
(660,19,l),
(362,690,l),
(333,690,l),
(36,19,l),
(36,0,l)
);
}
);
width = 696;
}
);
metricLeft = "e-canadian";
metricRight = "e-canadian";
note = uni15D1;
unicode = 5585;
},
{
color = 9;
glyphname = "weCarrier-canadian";
lastChange = "2023-01-13 15:54:43 +0000";
layers = (
{
layerId = "C6C6CC8B-76AD-4983-B2A6-35FF5D496205";
shapes = (
{
closed = 1;
nodes = (
(97,0,l),
(619,331,l),
(619,358,l),
(97,690,l),
(77,690,l),
(77,639,l),
(529,355,l),
(529,370,l),
(78,370,l),
(78,321,l),
(529,321,l),
(529,335,l),
(77,50,l),
(77,0,l)
);
}
);
width = 655;
}
);
metricRight = "o-canadian";
note = uni15D2;
unicode = 5586;
},
{
color = 9;
glyphname = "weeCarrier-canadian";
lastChange = "2023-01-13 15:54:43 +0000";
layers = (
{
layerId = "C6C6CC8B-76AD-4983-B2A6-35FF5D496205";
shapes = (
{
closed = 1;
nodes = (
(97,0,l),
(619,331,l),
(619,358,l),
(97,690,l),
(77,690,l),
(77,643,l),
(540,353,l),
(544,366,l),
(199,366,l),
(199,450,l),
(160,450,l),
(160,366,l),
(77,366,l),
(77,325,l),
(160,325,l),
(160,241,l),
(199,241,l),
(199,325,l),
(546,325,l),
(542,338,l),
(77,46,l),
(77,0,l)
);
}
);
width = 655;
}
);
metricLeft = "weCarrier-canadian";
metricRight = "o-canadian";
note = uni15D3;
unicode = 5587;
},
{
color = 9;
glyphname = "wiCarrier-canadian";
lastChange = "2023-01-13 15:54:43 +0000";
layers = (
{
layerId = "C6C6CC8B-76AD-4983-B2A6-35FF5D496205";
shapes = (
{
closed = 1;
nodes = (
(97,0,l),
(619,331,l),
(619,358,l),
(97,690,l),
(77,690,l),
(77,643,l),
(540,353,l),
(545,366,l),
(266,366,l),
(258,389,o),
(236,406,o),
(211,406,cs),
(185,406,o),
(163,389,o),
(156,366,c),
(77,366,l),
(77,325,l),
(156,325,l),
(164,302,o),
(185,285,o),
(211,285,cs),
(236,285,o),
(257,302,o),
(265,325,c),
(547,325,l),
(542,338,l),
(77,46,l),
(77,0,l)
);
}
);
width = 655;
}
);
metricLeft = "weCarrier-canadian";
metricRight = "o-canadian";
note = uni15D4;
unicode = 5588;
},
{
color = 9;
glyphname = "waCarrier-canadian";
lastChange = "2023-01-13 15:54:43 +0000";
layers = (
{
layerId = "C6C6CC8B-76AD-4983-B2A6-35FF5D496205";
shapes = (
{
closed = 1;
nodes = (
(577,0,l),
(577,50,l),
(126,335,l),
(126,320,l),
(576,320,l),
(576,369,l),
(126,369,l),
(126,355,l),
(577,639,l),
(577,690,l),
(558,690,l),
(36,358,l),
(36,331,l),
(558,0,l)
);
}
);
width = 654;
}
);
metricLeft = "=|o-canadian";
metricRight = "=|weCarrier-canadian";
note = uni15D5;
unicode = 5589;
},
{
color = 9;
glyphname = "hwuCarrier-canadian";
lastChange = "2023-01-13 15:54:43 +0000";
layers = (
{
layerId = "C6C6CC8B-76AD-4983-B2A6-35FF5D496205";
shapes = (
{
closed = 1;
nodes = (
(362,0,l),
(660,670,l),
(660,690,l),
(612,690,l),
(511,454,l),
(535,467,l),
(370,467,l),
(370,690,l),
(327,690,l),
(327,467,l),
(160,467,l),
(185,455,l),
(84,690,l),
(36,690,l),
(36,670,l),
(333,0,l)
);
},
{
closed = 1;
nodes = (
(329,428,l),
(329,89,l),
(341,91,l),
(190,440,l),
(176,428,l)
);
},
{
closed = 1;
nodes = (
(367,428,l),
(521,428,l),
(507,440,l),
(355,91,l),
(367,88,l)
);
}
);
width = 696;
}
);
metricLeft = "e-canadian";
metricRight = "e-canadian";
note = uni15D6;
unicode = 5590;
},
{
color = 9;
glyphname = "hwoCarrier-canadian";
lastChange = "2023-01-13 15:54:43 +0000";
layers = (
{
layerId = "C6C6CC8B-76AD-4983-B2A6-35FF5D496205";
shapes = (
{
closed = 1;
nodes = (
(84,0,l),
(186,236,l),
(161,222,l),
(327,222,l),
(327,0,l),
(370,0,l),
(370,222,l),
(537,222,l),
(511,236,l),
(612,0,l),
(660,0,l),
(660,19,l),
(362,690,l),
(333,690,l),
(36,19,l),
(36,0,l)
);
},
{
closed = 1;
nodes = (
(336,590,l),
(328,592,l),
(328,263,l),
(180,263,l),
(189,249,l)
);
},
{
closed = 1;
nodes = (
(519,263,l),
(367,263,l),
(367,593,l),
(359,591,l),
(506,249,l)
);
}
);
width = 696;
}
);
metricLeft = "e-canadian";
metricRight = "e-canadian";
note = uni15D7;
unicode = 5591;
},
{
color = 9;
glyphname = "hweCarrier-canadian";
lastChange = "2023-01-13 15:54:43 +0000";
layers = (
{
layerId = "C6C6CC8B-76AD-4983-B2A6-35FF5D496205";
shapes = (
{
closed = 1;
nodes = (
(97,0,l),
(619,331,l),
(619,358,l),
(97,690,l),
(77,690,l),
(77,643,l),
(230,548,l),
(230,367,l),
(77,367,l),
(77,324,l),
(230,324,l),
(230,142,l),
(77,45,l),
(77,0,l)
);
},
{
closed = 1;
nodes = (
(267,327,l),
(529,327,l),
(267,161,l)
);
},
{
closed = 1;
nodes = (
(267,528,l),
(526,364,l),
(267,364,l)
);
}
);
width = 655;
}
);
metricLeft = "weCarrier-canadian";
metricRight = "o-canadian";
note = uni15D8;
unicode = 5592;
},
{
color = 9;
glyphname = "hweeCarrier-canadian";
lastChange = "2023-01-13 15:54:43 +0000";
layers = (
{
layerId = "C6C6CC8B-76AD-4983-B2A6-35FF5D496205";
shapes = (
{
closed = 1;
nodes = (
(97,0,l),
(619,331,l),
(619,358,l),
(97,690,l),
(77,690,l),
(77,644,l),
(242,543,l),
(242,365,l),
(183,365,l),
(183,448,l),
(148,448,l),
(148,365,l),
(77,365,l),
(77,326,l),
(148,326,l),
(148,242,l),
(183,242,l),
(183,326,l),
(242,326,l),
(242,147,l),
(77,45,l),
(77,0,l)
);
},
{
closed = 1;
nodes = (
(275,327,l),
(531,327,l),
(275,165,l)
);
},
{
closed = 1;
nodes = (
(275,524,l),
(529,363,l),
(275,363,l)
);
}
);
width = 655;
}
);
metricLeft = "weCarrier-canadian";
metricRight = "o-canadian";
note = uni15D9;
unicode = 5593;
},
{
color = 9;
glyphname = "hwiCarrier-canadian";
lastChange = "2023-01-13 15:54:43 +0000";
layers = (
{
layerId = "C6C6CC8B-76AD-4983-B2A6-35FF5D496205";
shapes = (
{
closed = 1;
nodes = (
(97,0,l),
(619,331,l),
(619,358,l),
(97,690,l),
(77,690,l),
(77,644,l),
(242,543,l),
(242,363,l),
(212,363,l),
(205,384,o),
(185,400,o),
(161,400,cs),
(138,400,o),
(120,384,o),
(113,363,c),
(77,363,l),
(77,327,l),
(113,327,l),
(120,307,o),
(139,291,o),
(162,291,cs),
(185,291,o),
(204,307,o),
(211,327,c),
(242,327,l),
(242,147,l),
(77,45,l),
(77,0,l)
);
},
{
closed = 1;
nodes = (
(275,327,l),
(531,327,l),
(275,165,l)
);
},
{
closed = 1;
nodes = (
(275,524,l),
(529,363,l),
(275,363,l)
);
}
);
width = 655;
}
);
metricLeft = "weCarrier-canadian";
metricRight = "o-canadian";
note = uni15DA;
unicode = 5594;
},
{
color = 9;
glyphname = "hwaCarrier-canadian";
lastChange = "2023-01-13 15:54:43 +0000";
layers = (
{
layerId = "C6C6CC8B-76AD-4983-B2A6-35FF5D496205";
shapes = (
{
closed = 1;
nodes = (
(577,0,l),
(577,46,l),
(424,142,l),
(424,323,l),
(577,323,l),
(577,366,l),
(424,366,l),
(424,548,l),
(577,643,l),
(577,690,l),
(558,690,l),
(36,358,l),
(36,331,l),
(558,0,l)
);
},
{
closed = 1;
nodes = (
(128,326,l),
(387,326,l),
(387,161,l)
);
},
{
closed = 1;
nodes = (
(387,528,l),
(387,363,l),
(126,363,l)
);
}
);
width = 654;
}
);
metricLeft = "=|o-canadian";
metricRight = "=|weCarrier-canadian";
note = uni15DB;
unicode = 5595;
},
{
color = 9;
glyphname = "thuCarrier-canadian";
lastChange = "2023-01-13 15:54:47 +0000";
layers = (
{
layerId = "C6C6CC8B-76AD-4983-B2A6-35FF5D496205";
shapes = (
{
closed = 1;
nodes = (
(512,-13,o),
(615,99,o),
(615,293,cs),
(615,690,l),
(73,690,l),
(73,289,ls),
(73,98,o),
(179,-13,o),
(344,-13,cs)
);
},
{
closed = 1;
nodes = (
(134,634,l),
(554,634,l),
(554,290,ls),
(554,129,o),
(477,45,o),
(344,45,cs),
(214,45,o),
(134,130,o),
(134,290,cs)
);
}
);
width = 688;
}
);
metricLeft = "te-canadian";
metricRight = "te-canadian";
note = uni15DC;
unicode = 5596;
},
{
color = 9;
glyphname = "thoCarrier-canadian";
lastChange = "2023-01-13 15:54:47 +0000";
layers = (
{
layerId = "C6C6CC8B-76AD-4983-B2A6-35FF5D496205";
shapes = (
{
closed = 1;
nodes = (
(615,0,l),
(615,401,ls),
(615,591,o),
(510,702,o),
(346,702,cs),
(177,702,o),
(73,592,o),
(73,397,cs),
(73,0,l)
);
},
{
closed = 1;
nodes = (
(134,400,ls),
(134,560,o),
(213,644,o),
(345,644,cs),
(474,644,o),
(554,559,o),
(554,400,cs),
(554,56,l),
(134,56,l)
);
}
);
width = 688;
}
);
metricLeft = "te-canadian";
metricRight = "te-canadian";
note = uni15DD;
unicode = 5597;
},
{
color = 9;
glyphname = "theCarrier-canadian";
lastChange = "2023-01-13 15:54:47 +0000";
layers = (
{
anchors = (
{
name = middle_center_can;
pos = (332,345);
}
);
layerId = "C6C6CC8B-76AD-4983-B2A6-35FF5D496205";
shapes = (
{
closed = 1;
nodes = (
(285,0,ls),
(488,0,o),
(601,129,o),
(601,346,cs),
(601,562,o),
(488,690,o),
(281,690,cs),
(80,690,l),
(80,0,l)
);
},
{
closed = 1;
nodes = (
(142,656,l),
(121,635,l),
(281,635,ls),
(452,635,o),
(539,531,o),
(539,346,cs),
(539,161,o),
(452,55,o),
(283,55,cs),
(121,55,l),
(142,34,l)
);
}
);
width = 667;
}
);
metricLeft = "nunavuth-canadian";
metricRight = "to-canadian";
note = uni15DE;
unicode = 5598;
},
{
color = 9;
glyphname = "thaCarrier-canadian";
lastChange = "2023-01-13 15:54:47 +0000";
layers = (
{
layerId = "C6C6CC8B-76AD-4983-B2A6-35FF5D496205";
shapes = (
{
closed = 1;
nodes = (
(586,0,l),
(586,690,l),
(384,690,ls),
(179,690,o),
(66,561,o),
(66,345,cs),
(66,128,o),
(179,0,o),
(383,0,cs)
);
},
{
closed = 1;
nodes = (
(127,529,o),
(214,635,o),
(384,635,cs),
(546,635,l),
(525,656,l),
(525,34,l),
(546,55,l),
(385,55,ls),
(214,55,o),
(127,159,o),
(127,345,cs)
);
}
);
width = 666;
}
);
metricLeft = "=|theCarrier-canadian";
metricRight = "nunavuth-canadian";
note = uni15E1;
unicode = 5601;
},
{
color = 9;
glyphname = "ttuCarrier-canadian";
lastChange = "2023-01-13 15:54:47 +0000";
layers = (
{
layerId = "C6C6CC8B-76AD-4983-B2A6-35FF5D496205";
shapes = (
{
closed = 1;
nodes = (
(512,-13,o),
(615,99,o),
(615,293,cs),
(615,690,l),
(588,690,l),
(336,502,l),
(354,502,l),
(101,690,l),
(73,690,l),
(73,289,ls),
(73,98,o),
(179,-13,o),
(344,-13,cs)
);
},
{
closed = 1;
nodes = (
(214,45,o),
(134,130,o),
(134,290,cs),
(134,641,l),
(83,640,l),
(335,453,l),
(354,453,l),
(606,640,l),
(554,641,l),
(554,290,ls),
(554,129,o),
(477,45,o),
(344,45,cs)
);
}
);
width = 688;
}
);
metricLeft = "te-canadian";
metricRight = "te-canadian";
note = uni15E2;
unicode = 5602;
},
{
color = 9;
glyphname = "ttoCarrier-canadian";
lastChange = "2023-01-13 15:54:47 +0000";
layers = (
{
layerId = "C6C6CC8B-76AD-4983-B2A6-35FF5D496205";
shapes = (
{
closed = 1;
nodes = (
(100,0,l),
(353,187,l),
(335,187,l),
(586,0,l),
(615,0,l),
(615,401,ls),
(615,592,o),
(510,702,o),
(344,702,cs),
(176,702,o),
(73,591,o),
(73,397,cs),
(73,0,l)
);
},
{
closed = 1;
nodes = (
(474,644,o),
(554,559,o),
(554,400,cs),
(554,48,l),
(606,49,l),
(353,237,l),
(335,237,l),
(83,49,l),
(134,48,l),
(134,400,ls),
(134,560,o),
(212,644,o),
(345,644,cs)
);
}
);
width = 688;
}
);
metricLeft = "te-canadian";
metricRight = "te-canadian";
note = uni15E3;
unicode = 5603;
},
{
color = 9;
glyphname = "tteCarrier-canadian";
lastChange = "2023-01-13 15:54:43 +0000";
layers = (
{
anchors = (
{
name = middle_center_can;
pos = (384,345);
}
);
layerId = "C6C6CC8B-76AD-4983-B2A6-35FF5D496205";
shapes = (
{
closed = 1;
nodes = (
(295,0,ls),
(497,0,o),
(611,129,o),
(611,346,cs),
(611,562,o),
(497,690,o),
(290,690,cs),
(72,690,l),
(72,670,l),
(196,333,l),
(196,356,l),
(72,19,l),
(72,0,l)
);
},
{
closed = 1;
nodes = (
(250,335,l),
(250,352,l),
(128,684,l),
(128,635,l),
(291,635,ls),
(462,635,o),
(549,531,o),
(549,346,cs),
(549,161,o),
(462,55,o),
(293,55,cs),
(128,55,l),
(128,4,l)
);
}
);
width = 677;
}
);
metricRight = "theCarrier-canadian";
note = uni15E4;
unicode = 5604;
},
{
color = 9;
glyphname = "ttaCarrier-canadian";
lastChange = "2023-01-13 15:54:47 +0000";
layers = (
{
layerId = "C6C6CC8B-76AD-4983-B2A6-35FF5D496205";
shapes = (
{
closed = 1;
nodes = (
(603,0,l),
(603,19,l),
(480,356,l),
(480,333,l),
(603,670,l),
(603,690,l),
(384,690,ls),
(179,690,o),
(66,561,o),
(66,345,cs),
(66,128,o),
(179,0,o),
(383,0,cs)
);
},
{
closed = 1;
nodes = (
(548,55,l),
(385,55,ls),
(214,55,o),
(127,159,o),
(127,345,cs),
(127,529,o),
(214,635,o),
(384,635,cs),
(548,635,l),
(548,686,l),
(426,355,l),
(426,338,l),
(548,7,l)
);
}
);
width = 675;
}
);
metricLeft = "=|theCarrier-canadian";
metricRight = "=|tteCarrier-canadian";
note = uni15E7;
unicode = 5607;
},
{
color = 9;
glyphname = "puCarrier-canadian";
lastChange = "2023-01-13 15:54:47 +0000";
layers = (
{
layerId = "C6C6CC8B-76AD-4983-B2A6-35FF5D496205";
shapes = (
{
closed = 1;
nodes = (
(512,-13,o),
(615,99,o),
(615,293,cs),
(615,690,l),
(554,690,l),
(554,517,l),
(135,517,l),
(135,690,l),
(73,690,l),
(73,289,ls),
(73,98,o),
(179,-13,o),
(344,-13,cs)
);
},
{
closed = 1;
nodes = (
(214,45,o),
(135,130,o),
(135,290,cs),
(135,463,l),
(554,463,l),
(554,290,ls),
(554,129,o),
(477,45,o),
(344,45,cs)
);
}
);
width = 688;
}
);
metricLeft = "te-canadian";
metricRight = "te-canadian";
note = uni15E8;
unicode = 5608;
},
{
color = 9;
glyphname = "poCarrier-canadian";
lastChange = "2023-01-13 15:54:47 +0000";
layers = (
{
layerId = "C6C6CC8B-76AD-4983-B2A6-35FF5D496205";
shapes = (
{
closed = 1;
nodes = (
(135,0,l),
(135,173,l),
(554,173,l),
(554,0,l),
(615,0,l),
(615,401,ls),
(615,591,o),
(511,702,o),
(346,702,cs),
(178,702,o),
(73,592,o),
(73,397,cs),
(73,0,l)
);
},
{
closed = 1;
nodes = (
(135,400,ls),
(135,560,o),
(213,644,o),
(345,644,cs),
(474,644,o),
(554,559,o),
(554,400,cs),
(554,227,l),
(135,227,l)
);
}
);
width = 688;
}
);
metricLeft = "te-canadian";
metricRight = "te-canadian";
note = uni15E9;
unicode = 5609;
},
{
color = 9;
glyphname = "peCarrier-canadian";
lastChange = "2023-01-13 15:54:43 +0000";
layers = (
{
anchors = (
{
name = middle_center_can;
pos = (372,345);
}
);
layerId = "C6C6CC8B-76AD-4983-B2A6-35FF5D496205";
shapes = (
{
closed = 1;
nodes = (
(289,0,ls),
(492,0,o),
(605,129,o),
(605,346,cs),
(605,562,o),
(492,690,o),
(284,690,cs),
(67,690,l),
(67,635,l),
(157,635,l),
(157,55,l),
(67,55,l),
(67,0,l)
);
},
{
closed = 1;
nodes = (
(218,656,l),
(194,635,l),
(285,635,ls),
(456,635,o),
(543,531,o),
(543,346,cs),
(543,161,o),
(456,55,o),
(287,55,cs),
(194,55,l),
(218,34,l)
);
}
);
width = 671;
}
);
metricRight = "theCarrier-canadian";
note = uni15EA;
unicode = 5610;
},
{
color = 9;
glyphname = "paCarrier-canadian";
lastChange = "2023-01-13 15:54:47 +0000";
layers = (
{
layerId = "C6C6CC8B-76AD-4983-B2A6-35FF5D496205";
shapes = (
{
closed = 1;
nodes = (
(603,0,l),
(603,55,l),
(513,55,l),
(513,635,l),
(603,635,l),
(603,690,l),
(385,690,ls),
(179,690,o),
(66,562,o),
(66,346,cs),
(66,129,o),
(179,0,o),
(382,0,cs)
);
},
{
closed = 1;
nodes = (
(475,55,l),
(383,55,ls),
(214,55,o),
(127,161,o),
(127,346,cs),
(127,531,o),
(214,635,o),
(385,635,cs),
(475,635,l),
(452,656,l),
(452,34,l)
);
}
);
width = 670;
}
);
metricLeft = "=|theCarrier-canadian";
metricRight = "=|peCarrier-canadian";
note = uni15ED;
unicode = 5613;
},
{
color = 6;
glyphname = "pCarrier-canadian";
lastChange = "2023-01-13 15:54:47 +0000";
layers = (
{
layerId = "C6C6CC8B-76AD-4983-B2A6-35FF5D496205";
shapes = (
{
closed = 1;
nodes = (
(376,183,l),
(376,226,l),
(244,226,l),
(244,527,l),
(198,527,l),
(198,226,l),
(66,226,l),
(66,183,l)
);
}
);
width = 442;
}
);
metricLeft = "shorthorizontalstrokeFinal-canadian";
metricRight = "shorthorizontalstrokeFinal-canadian";
note = uni15EE;
unicode = 5614;
},
{
color = 9;
glyphname = "guCarrier-canadian";
lastChange = "2023-01-13 15:54:47 +0000";
layers = (
{
anchors = (
{
name = top_center_can;
pos = (419,690);
}
);
layerId = "C6C6CC8B-76AD-4983-B2A6-35FF5D496205";
shapes = (
{
closed = 1;
nodes = (
(347,-13,o),
(409,40,o),
(431,134,c),
(408,134,l),
(433,39,o),
(494,-13,o),
(578,-13,cs),
(691,-13,o),
(760,69,o),
(760,207,cs),
(760,690,l),
(700,690,l),
(700,209,ls),
(700,101,o),
(655,43,o),
(575,43,cs),
(497,43,o),
(448,103,o),
(448,208,cs),
(448,690,l),
(390,690,l),
(390,208,ls),
(390,100,o),
(342,43,o),
(263,43,cs),
(182,43,o),
(135,100,o),
(135,209,cs),
(135,690,l),
(75,690,l),
(75,209,ls),
(75,68,o),
(146,-13,o),
(260,-13,cs)
);
}
);
width = 835;
}
);
metricRight = "=|";
note = uni15EF;
unicode = 5615;
},
{
color = 9;
glyphname = "goCarrier-canadian";
lastChange = "2023-01-13 15:54:47 +0000";
layers = (
{
layerId = "C6C6CC8B-76AD-4983-B2A6-35FF5D496205";
shapes = (
{
closed = 1;
nodes = (
(135,0,l),
(135,481,ls),
(135,588,o),
(181,646,o),
(262,646,cs),
(341,646,o),
(389,588,o),
(389,482,cs),
(389,0,l),
(447,0,l),
(447,482,ls),
(447,587,o),
(496,646,o),
(574,646,cs),
(655,646,o),
(700,588,o),
(700,481,cs),
(700,0,l),
(760,0,l),
(760,482,ls),
(760,621,o),
(690,702,o),
(577,702,cs),
(492,702,o),
(430,650,o),
(407,555,c),
(430,555,l),
(406,651,o),
(345,702,o),
(259,702,cs),
(145,702,o),
(75,621,o),
(75,482,cs),
(75,0,l)
);
}
);
width = 835;
}
);
metricLeft = "guCarrier-canadian";
metricRight = "guCarrier-canadian";
note = uni15F0;
unicode = 5616;
},
{
color = 9;
glyphname = "geCarrier-canadian";
lastChange = "2023-01-13 15:54:43 +0000";
layers = (
{
anchors = (
{
name = top_center_can;
pos = (341,690);
}
);
layerId = "C6C6CC8B-76AD-4983-B2A6-35FF5D496205";
shapes = (
{
closed = 1;
nodes = (
(393,0,ls),
(529,0,o),
(601,67,o),
(601,182,cs),
(601,266,o),
(551,329,o),
(471,354,c),
(471,336,l),
(553,358,o),
(601,419,o),
(601,506,cs),
(601,622,o),
(528,690,o),
(393,690,cs),
(80,690,l),
(80,638,l),
(384,638,ls),
(490,638,o),
(539,592,o),
(539,505,cs),
(539,418,o),
(484,371,o),
(385,371,cs),
(80,371,l),
(80,320,l),
(386,320,ls),
(485,320,o),
(539,270,o),
(539,184,cs),
(539,98,o),
(490,52,o),
(384,52,cs),
(80,52,l),
(80,0,l)
);
}
);
width = 677;
}
);
metricLeft = "nunavuth-canadian";
note = uni15F1;
unicode = 5617;
},
{
color = 9;
glyphname = "geeCarrier-canadian";
lastChange = "2023-01-13 15:54:43 +0000";
layers = (
{
layerId = "C6C6CC8B-76AD-4983-B2A6-35FF5D496205";
shapes = (
{
closed = 1;
nodes = (
(393,0,ls),
(529,0,o),
(601,67,o),
(601,182,cs),
(601,266,o),
(551,329,o),
(471,354,c),
(471,336,l),
(553,358,o),
(601,419,o),
(601,506,cs),
(601,622,o),
(528,690,o),
(393,690,cs),
(80,690,l),
(80,638,l),
(384,638,ls),
(490,638,o),
(539,592,o),
(539,505,cs),
(539,418,o),
(484,371,o),
(385,371,cs),
(328,371,l),
(328,458,l),
(288,458,l),
(288,371,l),
(80,371,l),
(80,320,l),
(288,320,l),
(288,234,l),
(328,234,l),
(328,320,l),
(386,320,ls),
(485,320,o),
(539,270,o),
(539,184,cs),
(539,98,o),
(490,52,o),
(384,52,cs),
(80,52,l),
(80,0,l)
);
}
);
width = 677;
}
);
metricLeft = "geCarrier-canadian";
metricRight = "geCarrier-canadian";
note = uni15F2;
unicode = 5618;
},
{
color = 9;
glyphname = "giCarrier-canadian";
lastChange = "2023-01-13 15:54:43 +0000";
layers = (
{
layerId = "C6C6CC8B-76AD-4983-B2A6-35FF5D496205";
shapes = (
{
closed = 1;
nodes = (
(393,0,ls),
(529,0,o),
(601,67,o),
(601,182,cs),
(601,268,o),
(548,333,o),
(464,354,c),
(463,336,l),
(549,355,o),
(601,417,o),
(601,506,cs),
(601,622,o),
(528,690,o),
(393,690,cs),
(80,690,l),
(80,638,l),
(384,638,ls),
(490,638,o),
(539,592,o),
(539,505,cs),
(539,418,o),
(484,371,o),
(387,371,cs),
(349,371,l),
(371,363,l),
(363,391,o),
(338,411,o),
(309,411,cs),
(283,411,o),
(261,394,o),
(251,371,c),
(80,371,l),
(80,320,l),
(252,320,l),
(261,297,o),
(284,280,o),
(310,280,cs),
(338,280,o),
(362,299,o),
(371,327,c),
(349,320,l),
(388,320,ls),
(485,320,o),
(539,270,o),
(539,184,cs),
(539,98,o),
(490,52,o),
(384,52,cs),
(80,52,l),
(80,0,l)
);
}
);
width = 677;
}
);
metricLeft = "geCarrier-canadian";
metricRight = "geCarrier-canadian";
note = uni15F3;
unicode = 5619;
},
{
color = 9;
glyphname = "gaCarrier-canadian";
lastChange = "2023-01-13 15:54:43 +0000";
layers = (
{
anchors = (
{
name = top_center_can;
pos = (354,690);
}
);
layerId = "C6C6CC8B-76AD-4983-B2A6-35FF5D496205";
shapes = (
{
closed = 1;
nodes = (
(597,0,l),
(597,52,l),
(294,52,ls),
(187,52,o),
(138,98,o),
(138,184,cs),
(138,270,o),
(192,320,o),
(291,320,cs),
(597,320,l),
(597,371,l),
(292,371,ls),
(193,371,o),
(138,418,o),
(138,505,cs),
(138,592,o),
(187,638,o),
(294,638,cs),
(597,638,l),
(597,690,l),
(284,690,ls),
(149,690,o),
(76,622,o),
(76,506,cs),
(76,419,o),
(125,358,o),
(206,337,c),
(206,355,l),
(127,330,o),
(76,266,o),
(76,182,cs),
(76,67,o),
(148,0,o),
(284,0,cs)
);
}
);
width = 677;
}
);
metricLeft = "=|geCarrier-canadian";
metricRight = "=|geCarrier-canadian";
note = uni15F4;
unicode = 5620;
},
{
color = 9;
glyphname = "khuCarrier-canadian";
lastChange = "2023-01-13 15:54:47 +0000";
layers = (
{
layerId = "C6C6CC8B-76AD-4983-B2A6-35FF5D496205";
shapes = (
{
closed = 1;
nodes = (
(347,-13,o),
(409,40,o),
(431,134,c),
(408,134,l),
(434,39,o),
(495,-13,o),
(579,-13,cs),
(692,-13,o),
(760,69,o),
(760,207,cs),
(760,690,l),
(75,690,l),
(75,209,ls),
(75,68,o),
(146,-13,o),
(260,-13,cs)
);
},
{
closed = 1;
nodes = (
(182,43,o),
(135,100,o),
(135,209,cs),
(135,636,l),
(390,636,l),
(390,208,ls),
(390,100,o),
(343,43,o),
(263,43,cs)
);
},
{
closed = 1;
nodes = (
(497,43,o),
(448,103,o),
(448,208,cs),
(448,636,l),
(700,636,l),
(700,209,ls),
(700,101,o),
(655,43,o),
(575,43,cs)
);
}
);
width = 835;
}
);
metricLeft = "guCarrier-canadian";
metricRight = "guCarrier-canadian";
note = uni15F5;
unicode = 5621;
},
{
color = 9;
glyphname = "khoCarrier-canadian";
lastChange = "2023-01-13 15:54:47 +0000";
layers = (
{
layerId = "C6C6CC8B-76AD-4983-B2A6-35FF5D496205";
shapes = (
{
closed = 1;
nodes = (
(760,0,l),
(760,482,ls),
(760,621,o),
(691,702,o),
(578,702,cs),
(493,702,o),
(432,651,o),
(407,555,c),
(430,555,l),
(407,650,o),
(345,702,o),
(259,702,cs),
(146,702,o),
(75,622,o),
(75,482,cs),
(75,0,l)
);
},
{
closed = 1;
nodes = (
(135,481,ls),
(135,588,o),
(181,646,o),
(262,646,cs),
(341,646,o),
(389,588,o),
(389,482,cs),
(389,54,l),
(135,54,l)
);
},
{
closed = 1;
nodes = (
(447,482,ls),
(447,587,o),
(496,646,o),
(575,646,cs),
(655,646,o),
(700,588,o),
(700,481,cs),
(700,54,l),
(447,54,l)
);
}
);
width = 835;
}
);
metricLeft = "guCarrier-canadian";
metricRight = "guCarrier-canadian";
note = uni15F6;
unicode = 5622;
},
{
color = 9;
glyphname = "kheCarrier-canadian";
lastChange = "2023-01-13 15:54:43 +0000";
layers = (
{
layerId = "C6C6CC8B-76AD-4983-B2A6-35FF5D496205";
shapes = (
{
closed = 1;
nodes = (
(395,0,ls),
(531,0,o),
(603,67,o),
(603,182,cs),
(603,266,o),
(554,329,o),
(473,354,c),
(473,336,l),
(554,358,o),
(603,419,o),
(603,506,cs),
(603,622,o),
(530,690,o),
(395,690,cs),
(80,690,l),
(80,0,l)
);
},
{
closed = 1;
nodes = (
(142,320,l),
(388,320,ls),
(487,320,o),
(541,270,o),
(541,184,cs),
(541,98,o),
(492,52,o),
(385,52,cs),
(142,52,l)
);
},
{
closed = 1;
nodes = (
(142,638,l),
(385,638,ls),
(492,638,o),
(541,592,o),
(541,505,cs),
(541,418,o),
(486,371,o),
(387,371,cs),
(142,371,l)
);
}
);
width = 679;
}
);
metricLeft = "nunavuth-canadian";
metricRight = "geCarrier-canadian";
note = uni15F7;
unicode = 5623;
},
{
color = 9;
glyphname = "kheeCarrier-canadian";
lastChange = "2023-01-13 15:54:43 +0000";
layers = (
{
layerId = "C6C6CC8B-76AD-4983-B2A6-35FF5D496205";
shapes = (
{
closed = 1;
nodes = (
(395,0,ls),
(531,0,o),
(603,67,o),
(603,182,cs),
(603,267,o),
(552,332,o),
(469,354,c),
(469,336,l),
(553,355,o),
(603,418,o),
(603,506,cs),
(603,622,o),
(530,690,o),
(395,690,cs),
(80,690,l),
(80,0,l)
);
},
{
closed = 1;
nodes = (
(142,320,l),
(302,320,l),
(302,231,l),
(346,231,l),
(346,334,l),
(329,320,l),
(390,320,ls),
(488,320,o),
(541,270,o),
(541,184,cs),
(541,98,o),
(492,52,o),
(385,52,cs),
(142,52,l)
);
},
{
closed = 1;
nodes = (
(346,460,l),
(302,460,l),
(302,371,l),
(142,371,l),
(142,638,l),
(385,638,ls),
(492,638,o),
(541,592,o),
(541,505,cs),
(541,417,o),
(487,371,o),
(389,371,cs),
(329,371,l),
(346,356,l)
);
}
);
width = 679;
}
);
metricLeft = "nunavuth-canadian";
metricRight = "geCarrier-canadian";
note = uni15F8;
unicode = 5624;
},
{
color = 9;
glyphname = "khiCarrier-canadian";
lastChange = "2023-01-13 15:54:43 +0000";
layers = (
{
layerId = "C6C6CC8B-76AD-4983-B2A6-35FF5D496205";
shapes = (
{
closed = 1;
nodes = (
(395,0,ls),
(531,0,o),
(603,67,o),
(603,182,cs),
(603,266,o),
(554,328,o),
(474,353,c),
(473,336,l),
(554,358,o),
(603,419,o),
(603,506,cs),
(603,622,o),
(530,690,o),
(395,690,cs),
(80,690,l),
(80,0,l)
);
},
{
closed = 1;
nodes = (
(142,321,l),
(265,321,l),
(273,298,o),
(296,280,o),
(323,280,cs),
(355,280,o),
(382,306,o),
(385,339,c),
(353,321,l),
(391,321,ls),
(488,321,o),
(541,270,o),
(541,185,cs),
(541,98,o),
(492,52,o),
(385,52,cs),
(142,52,l)
);
},
{
closed = 1;
nodes = (
(385,638,ls),
(492,638,o),
(541,592,o),
(541,504,cs),
(541,417,o),
(487,370,o),
(390,370,cs),
(354,370,l),
(386,352,l),
(384,385,o),
(355,411,o),
(322,411,cs),
(289,411,o),
(262,384,o),
(259,352,c),
(281,370,l),
(142,370,l),
(142,638,l)
);
}
);
width = 679;
}
);
metricLeft = "nunavuth-canadian";
metricRight = "geCarrier-canadian";
note = uni15F9;
unicode = 5625;
},
{
color = 9;
glyphname = "khaCarrier-canadian";
lastChange = "2023-01-13 15:54:43 +0000";
layers = (
{
layerId = "C6C6CC8B-76AD-4983-B2A6-35FF5D496205";
shapes = (
{
closed = 1;
nodes = (
(599,0,l),
(599,690,l),
(284,690,ls),
(149,690,o),
(76,622,o),
(76,506,cs),
(76,419,o),
(125,358,o),
(207,337,c),
(206,354,l),
(127,330,o),
(76,266,o),
(76,182,cs),
(76,67,o),
(148,0,o),
(284,0,cs)
);
},
{
closed = 1;
nodes = (
(187,52,o),
(138,98,o),
(138,184,cs),
(138,270,o),
(192,320,o),
(291,320,cs),
(537,320,l),
(537,52,l),
(294,52,ls)
);
},
{
closed = 1;
nodes = (
(193,371,o),
(138,418,o),
(138,505,cs),
(138,592,o),
(187,638,o),
(294,638,cs),
(537,638,l),
(537,371,l),
(292,371,ls)
);
}
);
width = 679;
}
);
metricLeft = "=|geCarrier-canadian";
metricRight = "nunavuth-canadian";
note = uni15FA;
unicode = 5626;
},
{
color = 9;
glyphname = "kkuCarrier-canadian";
lastChange = "2023-01-13 15:54:47 +0000";
layers = (
{
layerId = "C6C6CC8B-76AD-4983-B2A6-35FF5D496205";
shapes = (
{
closed = 1;
nodes = (
(351,-13,o),
(413,44,o),
(433,147,c),
(406,147,l),
(428,43,o),
(491,-13,o),
(578,-13,cs),
(691,-13,o),
(760,69,o),
(760,207,cs),
(760,690,l),
(732,690,l),
(437,517,l),
(437,458,l),
(738,634,l),
(700,637,l),
(700,209,ls),
(700,101,o),
(655,43,o),
(575,43,cs),
(497,43,o),
(448,103,o),
(448,208,cs),
(448,690,l),
(390,690,l),
(390,208,ls),
(390,100,o),
(342,43,o),
(263,43,cs),
(182,43,o),
(135,100,o),
(135,209,cs),
(135,637,l),
(98,633,l),
(399,459,l),
(399,518,l),
(104,690,l),
(75,690,l),
(75,209,ls),
(75,68,o),
(146,-13,o),
(260,-13,cs)
);
}
);
width = 835;
}
);
metricLeft = "guCarrier-canadian";
metricRight = "guCarrier-canadian";
note = uni15FB;
unicode = 5627;
},
{
color = 9;
glyphname = "kkoCarrier-canadian";
lastChange = "2023-01-13 15:54:47 +0000";
layers = (
{
layerId = "C6C6CC8B-76AD-4983-B2A6-35FF5D496205";
shapes = (
{
closed = 1;
nodes = (
(103,0,l),
(399,173,l),
(399,232,l),
(97,56,l),
(135,53,l),
(135,481,ls),
(135,588,o),
(180,646,o),
(260,646,cs),
(338,646,o),
(386,586,o),
(386,482,cs),
(386,0,l),
(445,0,l),
(445,482,ls),
(445,589,o),
(493,646,o),
(572,646,cs),
(654,646,o),
(700,589,o),
(700,481,cs),
(700,53,l),
(738,57,l),
(437,231,l),
(437,172,l),
(731,0,l),
(760,0,l),
(760,481,ls),
(760,622,o),
(689,702,o),
(576,702,cs),
(485,702,o),
(421,645,o),
(403,543,c),
(430,543,l),
(408,646,o),
(345,702,o),
(257,702,cs),
(144,702,o),
(75,621,o),
(75,483,cs),
(75,0,l)
);
}
);
width = 835;
}
);
metricLeft = "guCarrier-canadian";
metricRight = "guCarrier-canadian";
note = uni15FC;
unicode = 5628;
},
{
color = 9;
glyphname = "kkeCarrier-canadian";
lastChange = "2023-01-13 15:54:47 +0000";
layers = (
{
layerId = "C6C6CC8B-76AD-4983-B2A6-35FF5D496205";
shapes = (
{
closed = 1;
nodes = (
(410,0,ls),
(545,0,o),
(616,67,o),
(616,182,cs),
(616,265,o),
(567,329,o),
(488,353,c),
(487,336,l),
(569,358,o),
(616,419,o),
(616,506,cs),
(616,622,o),
(544,690,o),
(410,690,cs),
(77,690,l),
(77,670,l),
(186,371,l),
(83,371,l),
(83,320,l),
(186,320,l),
(77,19,l),
(77,0,l)
);
},
{
closed = 1;
nodes = (
(249,320,l),
(403,320,ls),
(501,320,o),
(555,270,o),
(555,184,cs),
(555,98,o),
(506,52,o),
(399,52,cs),
(124,52,l),
(142,26,l)
);
},
{
closed = 1;
nodes = (
(141,664,l),
(123,638,l),
(399,638,ls),
(505,638,o),
(555,592,o),
(555,505,cs),
(555,418,o),
(500,371,o),
(402,371,cs),
(247,371,l)
);
}
);
width = 692;
}
);
metricRight = "geCarrier-canadian";
note = uni15FD;
unicode = 5629;
},
{
color = 9;
glyphname = "kkeeCarrier-canadian";
lastChange = "2023-01-13 15:54:47 +0000";
layers = (
{
layerId = "C6C6CC8B-76AD-4983-B2A6-35FF5D496205";
shapes = (
{
closed = 1;
nodes = (
(410,0,ls),
(545,0,o),
(616,67,o),
(616,182,cs),
(616,265,o),
(567,329,o),
(488,353,c),
(487,336,l),
(569,358,o),
(616,419,o),
(616,506,cs),
(616,622,o),
(544,690,o),
(410,690,cs),
(77,690,l),
(77,670,l),
(186,371,l),
(83,371,l),
(83,320,l),
(186,320,l),
(77,19,l),
(77,0,l)
);
},
{
closed = 1;
nodes = (
(248,321,l),
(336,321,l),
(336,234,l),
(380,234,l),
(380,335,l),
(361,321,l),
(406,321,ls),
(501,321,o),
(555,270,o),
(555,185,cs),
(555,98,o),
(506,52,o),
(399,52,cs),
(124,52,l),
(142,26,l)
);
},
{
closed = 1;
nodes = (
(380,458,l),
(336,458,l),
(336,370,l),
(247,370,l),
(141,664,l),
(123,638,l),
(399,638,ls),
(505,638,o),
(555,591,o),
(555,504,cs),
(555,417,o),
(501,370,o),
(405,370,cs),
(361,370,l),
(380,356,l)
);
}
);
width = 692;
}
);
metricLeft = "kkeCarrier-canadian";
metricRight = "geCarrier-canadian";
note = uni15FE;
unicode = 5630;
},
{
color = 9;
glyphname = "kkiCarrier-canadian";
lastChange = "2023-01-13 15:54:47 +0000";
layers = (
{
layerId = "C6C6CC8B-76AD-4983-B2A6-35FF5D496205";
shapes = (
{
closed = 1;
nodes = (
(410,0,ls),
(545,0,o),
(616,67,o),
(616,182,cs),
(616,265,o),
(567,329,o),
(488,353,c),
(487,336,l),
(569,358,o),
(616,419,o),
(616,506,cs),
(616,622,o),
(544,690,o),
(410,690,cs),
(77,690,l),
(77,670,l),
(186,371,l),
(83,371,l),
(83,320,l),
(186,320,l),
(77,19,l),
(77,0,l)
);
},
{
closed = 1;
nodes = (
(249,322,l),
(296,322,l),
(304,298,o),
(327,280,o),
(354,280,cs),
(387,280,o),
(412,306,o),
(416,338,c),
(382,322,l),
(406,322,ls),
(501,322,o),
(555,270,o),
(555,184,cs),
(555,98,o),
(506,52,o),
(399,52,cs),
(124,52,l),
(142,26,l)
);
},
{
closed = 1;
nodes = (
(414,384,o),
(387,411,o),
(354,411,cs),
(327,411,o),
(304,393,o),
(296,369,c),
(247,369,l),
(141,664,l),
(123,638,l),
(399,638,ls),
(505,638,o),
(555,591,o),
(555,504,cs),
(555,417,o),
(501,369,o),
(405,369,cs),
(382,369,l),
(416,353,l)
);
}
);
width = 692;
}
);
metricLeft = "kkeCarrier-canadian";
metricRight = "geCarrier-canadian";
note = uni15FF;
unicode = 5631;
},
{
color = 9;
glyphname = "kkaCarrier-canadian";
lastChange = "2023-01-13 15:54:47 +0000";
layers = (
{
layerId = "C6C6CC8B-76AD-4983-B2A6-35FF5D496205";
shapes = (
{
closed = 1;
nodes = (
(616,0,l),
(616,19,l),
(507,320,l),
(601,320,l),
(601,371,l),
(507,371,l),
(616,670,l),
(616,690,l),
(284,690,ls),
(149,690,o),
(76,622,o),
(76,506,cs),
(76,419,o),
(125,358,o),
(207,337,c),
(206,354,l),
(127,330,o),
(76,265,o),
(76,182,cs),
(76,67,o),
(148,0,o),
(284,0,cs)
);
},
{
closed = 1;
nodes = (
(570,52,l),
(294,52,ls),
(187,52,o),
(138,98,o),
(138,184,cs),
(138,270,o),
(192,320,o),
(291,320,cs),
(444,320,l),
(552,26,l)
);
},
{
closed = 1;
nodes = (
(193,371,o),
(138,418,o),
(138,505,cs),
(138,592,o),
(187,638,o),
(294,638,cs),
(570,638,l),
(552,664,l),
(445,371,l),
(292,371,ls)
);
}
);
width = 693;
}
);
metricLeft = "=|geCarrier-canadian";
metricRight = "=|kkeCarrier-canadian";
note = uni1600;
unicode = 5632;
},
{
color = 6;
glyphname = "kkCarrier-canadian";
lastChange = "2023-01-13 15:54:43 +0000";
layers = (
{
layerId = "C6C6CC8B-76AD-4983-B2A6-35FF5D496205";
shapes = (
{
closed = 1;
nodes = (
(215,183,l),
(363,516,l),
(363,527,l),
(321,527,l),
(191,227,l),
(226,227,l),
(97,527,l),
(53,527,l),
(53,516,l),
(201,183,l)
);
}
);
width = 416;
}
);
note = uni1601;
unicode = 5633;
},
{
color = 9;
glyphname = "nuCarrier-canadian";
lastChange = "2023-01-13 15:54:43 +0000";
layers = (
{
layerId = "C6C6CC8B-76AD-4983-B2A6-35FF5D496205";
shapes = (
{
closed = 1;
nodes = (
(517,-13,o),
(615,88,o),
(615,260,cs),
(615,298,l),
(554,298,l),
(554,257,ls),
(554,116,o),
(476,44,o),
(351,44,cs),
(209,44,o),
(135,125,o),
(135,286,cs),
(135,690,l),
(73,690,l),
(73,282,ls),
(73,91,o),
(174,-13,o),
(350,-13,cs)
);
}
);
width = 686;
}
);
metricLeft = "te-canadian";
note = uni1602;
unicode = 5634;
},
{
color = 9;
glyphname = "noCarrier-canadian";
lastChange = "2023-01-13 15:54:47 +0000";
layers = (
{
layerId = "C6C6CC8B-76AD-4983-B2A6-35FF5D496205";
shapes = (
{
closed = 1;
nodes = (
(612,0,l),
(612,408,ls),
(612,599,o),
(513,702,o),
(336,702,cs),
(169,702,o),
(71,602,o),
(71,430,cs),
(71,391,l),
(131,391,l),
(131,433,ls),
(131,574,o),
(210,645,o),
(335,645,cs),
(477,645,o),
(551,565,o),
(551,404,cs),
(551,0,l)
);
}
);
width = 685;
}
);
metricLeft = "=|nuCarrier-canadian";
metricRight = "te-canadian";
note = uni1603;
unicode = 5635;
},
{
color = 9;
glyphname = "neCarrier-canadian";
lastChange = "2023-01-13 15:54:47 +0000";
layers = (
{
anchors = (
{
name = middle_center_can;
pos = (289,345);
}
);
layerId = "C6C6CC8B-76AD-4983-B2A6-35FF5D496205";
shapes = (
{
closed = 1;
nodes = (
(289,0,ls),
(487,0,o),
(601,129,o),
(601,346,cs),
(601,562,o),
(488,690,o),
(281,690,cs),
(55,690,l),
(55,634,l),
(281,634,ls),
(451,634,o),
(539,530,o),
(539,346,cs),
(539,161,o),
(450,56,o),
(286,56,cs),
(267,56,l),
(267,0,l)
);
}
);
width = 667;
}
);
metricRight = "theCarrier-canadian";
note = uni1604;
unicode = 5636;
},
{
color = 9;
glyphname = "naCarrier-canadian";
lastChange = "2023-01-13 15:54:47 +0000";
layers = (
{
layerId = "C6C6CC8B-76AD-4983-B2A6-35FF5D496205";
shapes = (
{
closed = 1;
nodes = (
(611,0,l),
(611,56,l),
(385,56,ls),
(215,56,o),
(127,160,o),
(127,345,cs),
(127,529,o),
(216,634,o),
(381,634,cs),
(400,634,l),
(400,690,l),
(378,690,ls),
(180,690,o),
(66,561,o),
(66,345,cs),
(66,128,o),
(179,0,o),
(383,0,cs)
);
}
);
width = 666;
}
);
metricLeft = "=|theCarrier-canadian";
metricRight = "=|neCarrier-canadian";
note = uni1607;
unicode = 5639;
},
{
color = 9;
glyphname = "muCarrier-canadian";
lastChange = "2023-01-13 15:54:47 +0000";
layers = (
{
layerId = "C6C6CC8B-76AD-4983-B2A6-35FF5D496205";
shapes = (
{
closed = 1;
nodes = (
(347,-13,o),
(409,40,o),
(431,134,c),
(408,134,l),
(433,39,o),
(494,-13,o),
(578,-13,cs),
(691,-13,o),
(760,69,o),
(760,207,cs),
(760,388,l),
(700,388,l),
(700,209,ls),
(700,101,o),
(655,43,o),
(575,43,cs),
(497,43,o),
(448,103,o),
(448,208,cs),
(448,388,l),
(390,388,l),
(390,208,ls),
(390,100,o),
(342,43,o),
(263,43,cs),
(182,43,o),
(135,100,o),
(135,209,cs),
(135,690,l),
(75,690,l),
(75,209,ls),
(75,68,o),
(146,-13,o),
(260,-13,cs)
);
}
);
width = 835;
}
);
metricLeft = "guCarrier-canadian";
metricRight = "=|";
note = uni1608;
unicode = 5640;
},
{
color = 9;
glyphname = "moCarrier-canadian";
lastChange = "2023-01-13 15:54:47 +0000";
layers = (
{
layerId = "C6C6CC8B-76AD-4983-B2A6-35FF5D496205";
shapes = (
{
closed = 1;
nodes = (
(760,0,l),
(760,482,ls),
(760,621,o),
(690,702,o),
(577,702,cs),
(492,702,o),
(430,650,o),
(407,555,c),
(430,555,l),
(406,651,o),
(345,702,o),
(259,702,cs),
(145,702,o),
(75,621,o),
(75,483,cs),
(75,301,l),
(135,301,l),
(135,481,ls),
(135,588,o),
(181,646,o),
(262,646,cs),
(341,646,o),
(389,586,o),
(389,482,cs),
(389,301,l),
(447,301,l),
(447,482,ls),
(447,587,o),
(496,646,o),
(574,646,cs),
(655,646,o),
(700,588,o),
(700,481,cs),
(700,0,l)
);
}
);
width = 835;
}
);
metricLeft = "=|muCarrier-canadian";
metricRight = "guCarrier-canadian";
note = uni1609;
unicode = 5641;
},
{
color = 9;
glyphname = "meCarrier-canadian";
lastChange = "2023-01-13 15:54:43 +0000";
layers = (
{
layerId = "C6C6CC8B-76AD-4983-B2A6-35FF5D496205";
shapes = (
{
closed = 1;
nodes = (
(393,0,ls),
(529,0,o),
(601,67,o),
(601,182,cs),
(601,266,o),
(552,329,o),
(471,354,c),
(471,336,l),
(553,358,o),
(601,419,o),
(601,506,cs),
(601,622,o),
(528,690,o),
(393,690,cs),
(55,690,l),
(55,638,l),
(384,638,ls),
(490,638,o),
(539,592,o),
(539,505,cs),
(539,418,o),
(484,371,o),
(385,371,cs),
(277,371,l),
(277,320,l),
(386,320,ls),
(485,320,o),
(539,270,o),
(539,184,cs),
(539,98,o),
(490,52,o),
(384,52,cs),
(277,52,l),
(277,0,l)
);
}
);
width = 677;
}
);
metricLeft = "neCarrier-canadian";
metricRight = "geCarrier-canadian";
note = uni160A;
unicode = 5642;
},
{
color = 9;
glyphname = "meeCarrier-canadian";
lastChange = "2023-01-13 15:54:43 +0000";
layers = (
{
layerId = "C6C6CC8B-76AD-4983-B2A6-35FF5D496205";
shapes = (
{
closed = 1;
nodes = (
(393,0,ls),
(529,0,o),
(601,67,o),
(601,182,cs),
(601,266,o),
(551,329,o),
(471,353,c),
(471,336,l),
(553,358,o),
(601,419,o),
(601,506,cs),
(601,622,o),
(528,690,o),
(393,690,cs),
(55,690,l),
(55,638,l),
(384,638,ls),
(490,638,o),
(539,591,o),
(539,504,cs),
(539,417,o),
(485,370,o),
(386,370,cs),
(322,370,l),
(322,458,l),
(277,458,l),
(277,233,l),
(322,233,l),
(322,320,l),
(387,320,ls),
(486,320,o),
(539,270,o),
(539,184,cs),
(539,98,o),
(490,52,o),
(384,52,cs),
(277,52,l),
(277,0,l)
);
}
);
width = 677;
}
);
metricLeft = "neCarrier-canadian";
metricRight = "geCarrier-canadian";
note = uni160B;
unicode = 5643;
},
{
color = 9;
glyphname = "miCarrier-canadian";
lastChange = "2023-01-13 15:54:43 +0000";
layers = (
{
layerId = "C6C6CC8B-76AD-4983-B2A6-35FF5D496205";
shapes = (
{
closed = 1;
nodes = (
(393,0,ls),
(529,0,o),
(601,67,o),
(601,182,cs),
(601,266,o),
(551,329,o),
(471,353,c),
(471,336,l),
(553,358,o),
(601,419,o),
(601,506,cs),
(601,622,o),
(528,690,o),
(393,690,cs),
(55,690,l),
(55,638,l),
(384,638,ls),
(490,638,o),
(539,591,o),
(539,504,cs),
(539,417,o),
(485,370,o),
(389,370,cs),
(330,370,l),
(363,353,l),
(360,385,o),
(333,411,o),
(299,411,cs),
(264,411,o),
(236,382,o),
(236,346,cs),
(236,310,o),
(264,280,o),
(299,280,cs),
(333,280,o),
(359,306,o),
(363,338,c),
(329,320,l),
(390,320,ls),
(486,320,o),
(539,270,o),
(539,184,cs),
(539,98,o),
(490,52,o),
(384,52,cs),
(277,52,l),
(277,0,l)
);
}
);
width = 677;
}
);
metricLeft = "neCarrier-canadian";
metricRight = "geCarrier-canadian";
note = uni160C;
unicode = 5644;
},
{
color = 9;
glyphname = "maCarrier-canadian";
lastChange = "2023-01-13 15:54:43 +0000";
layers = (
{
layerId = "C6C6CC8B-76AD-4983-B2A6-35FF5D496205";
shapes = (
{
closed = 1;
nodes = (
(622,0,l),
(622,52,l),
(294,52,ls),
(188,52,o),
(138,97,o),
(138,184,cs),
(138,270,o),
(192,319,o),
(291,319,cs),
(400,319,l),
(400,371,l),
(292,371,ls),
(193,371,o),
(138,418,o),
(138,505,cs),
(138,591,o),
(187,638,o),
(294,638,cs),
(400,638,l),
(400,690,l),
(284,690,ls),
(149,690,o),
(76,622,o),
(76,506,cs),
(76,420,o),
(126,359,o),
(206,337,c),
(206,355,l),
(126,331,o),
(76,266,o),
(76,182,cs),
(76,67,o),
(149,0,o),
(284,0,cs)
);
}
);
width = 677;
}
);
metricLeft = "=|geCarrier-canadian";
metricRight = "=|neCarrier-canadian";
note = uni160D;
unicode = 5645;
},
{
color = 9;
glyphname = "yuCarrier-canadian";
lastChange = "2023-01-13 15:54:43 +0000";
layers = (
{
layerId = "C6C6CC8B-76AD-4983-B2A6-35FF5D496205";
shapes = (
{
closed = 1;
nodes = (
(547,-13,o),
(654,121,o),
(654,393,cs),
(654,602,o),
(588,702,o),
(473,702,cs),
(378,702,o),
(315,628,o),
(315,507,cs),
(315,388,o),
(376,314,o),
(475,315,cs),
(492,315,o),
(510,317,o),
(522,323,c),
(522,372,l),
(513,369,o),
(500,366,o),
(481,366,cs),
(406,366,o),
(370,417,o),
(370,509,cs),
(370,598,o),
(407,650,o),
(472,650,cs),
(554,650,o),
(594,577,o),
(594,394,cs),
(594,144,o),
(509,44,o),
(358,44,cs),
(217,44,o),
(135,127,o),
(135,297,cs),
(135,690,l),
(73,690,l),
(73,295,ls),
(73,94,o),
(184,-13,o),
(355,-13,cs)
);
}
);
width = 727;
}
);
metricLeft = "te-canadian";
metricRight = "te-canadian";
note = uni160E;
unicode = 5646;
},
{
color = 9;
glyphname = "yoCarrier-canadian";
lastChange = "2023-01-13 15:54:43 +0000";
layers = (
{
layerId = "C6C6CC8B-76AD-4983-B2A6-35FF5D496205";
shapes = (
{
closed = 1;
nodes = (
(350,-13,o),
(412,62,o),
(412,183,cs),
(412,301,o),
(351,375,o),
(251,375,cs),
(236,375,o),
(216,373,o),
(205,367,c),
(205,318,l),
(214,321,o),
(226,324,o),
(245,324,cs),
(321,324,o),
(357,272,o),
(357,181,cs),
(357,92,o),
(321,40,o),
(255,40,cs),
(174,40,o),
(132,113,o),
(132,296,cs),
(132,546,o),
(217,645,o),
(369,645,cs),
(509,645,o),
(592,563,o),
(592,393,cs),
(592,0,l),
(654,0,l),
(654,395,ls),
(654,596,o),
(544,702,o),
(371,702,cs),
(180,702,o),
(73,569,o),
(73,297,cs),
(73,88,o),
(138,-13,o),
(254,-13,cs)
);
}
);
width = 727;
}
);
metricLeft = "te-canadian";
metricRight = "te-canadian";
note = uni160F;
unicode = 5647;
},
{
color = 9;
glyphname = "yeCarrier-canadian";
lastChange = "2023-01-13 15:54:43 +0000";
layers = (
{
layerId = "C6C6CC8B-76AD-4983-B2A6-35FF5D496205";
shapes = (
{
closed = 1;
nodes = (
(498,-13,o),
(603,128,o),
(603,344,cs),
(603,563,o),
(490,690,o),
(272,690,cs),
(83,690,l),
(83,634,l),
(275,634,ls),
(454,634,o),
(542,530,o),
(542,342,cs),
(542,156,o),
(468,42,o),
(307,42,cs),
(176,42,o),
(123,117,o),
(123,207,cs),
(123,298,o),
(163,350,o),
(227,350,cs),
(294,350,o),
(329,298,o),
(329,214,cs),
(329,183,o),
(327,165,o),
(323,144,c),
(373,144,l),
(379,171,o),
(381,186,o),
(381,219,cs),
(381,327,o),
(324,400,o),
(227,400,cs),
(129,400,o),
(67,326,o),
(67,207,cs),
(67,89,o),
(145,-13,o),
(306,-13,cs)
);
}
);
width = 669;
}
);
metricRight = "theCarrier-canadian";
note = uni1610;
unicode = 5648;
},
{
color = 9;
glyphname = "yeeCarrier-canadian";
lastChange = "2023-01-13 15:54:43 +0000";
layers = (
{
layerId = "C6C6CC8B-76AD-4983-B2A6-35FF5D496205";
shapes = (
{
closed = 1;
nodes = (
(498,-13,o),
(603,128,o),
(603,344,cs),
(603,563,o),
(490,690,o),
(272,690,cs),
(83,690,l),
(83,634,l),
(275,634,ls),
(454,634,o),
(542,530,o),
(542,342,cs),
(542,156,o),
(468,42,o),
(306,42,cs),
(176,42,o),
(123,115,o),
(123,213,cs),
(123,298,o),
(161,350,o),
(219,350,cs),
(280,350,o),
(316,301,o),
(316,221,cs),
(316,174,l),
(355,174,l),
(355,502,l),
(316,502,l),
(316,290,l),
(326,290,l),
(315,361,o),
(272,400,o),
(209,400,cs),
(126,400,o),
(67,327,o),
(67,213,cs),
(67,87,o),
(144,-13,o),
(306,-13,cs)
);
}
);
width = 669;
}
);
metricRight = "theCarrier-canadian";
metricWidth = "yeCarrier-canadian";
note = uni1611;
unicode = 5649;
},
{
color = 9;
glyphname = "yiCarrier-canadian";
lastChange = "2023-01-13 15:54:43 +0000";
layers = (
{
layerId = "C6C6CC8B-76AD-4983-B2A6-35FF5D496205";
shapes = (
{
closed = 1;
nodes = (
(498,-13,o),
(603,128,o),
(603,344,cs),
(603,563,o),
(490,690,o),
(272,690,cs),
(83,690,l),
(83,634,l),
(275,634,ls),
(454,634,o),
(542,530,o),
(542,342,cs),
(542,156,o),
(468,42,o),
(309,42,cs),
(176,42,o),
(123,112,o),
(123,194,cs),
(123,279,o),
(165,326,o),
(237,325,c),
(212,340,l),
(214,310,o),
(241,285,o),
(272,285,cs),
(307,285,o),
(332,313,o),
(332,346,cs),
(332,380,o),
(307,405,o),
(272,405,cs),
(247,405,o),
(227,390,o),
(218,371,c),
(125,365,o),
(67,297,o),
(67,191,cs),
(67,85,o),
(145,-13,o),
(306,-13,cs)
);
}
);
width = 669;
}
);
metricRight = "theCarrier-canadian";
metricWidth = "yeCarrier-canadian";
note = uni1612;
unicode = 5650;
},
{
color = 9;
glyphname = "yaCarrier-canadian";
lastChange = "2023-01-13 15:54:47 +0000";
layers = (
{
layerId = "C6C6CC8B-76AD-4983-B2A6-35FF5D496205";
shapes = (
{
closed = 1;
nodes = (
(586,0,l),
(586,56,l),
(394,56,ls),
(214,56,o),
(127,159,o),
(127,348,cs),
(127,534,o),
(202,648,o),
(365,648,cs),
(494,648,o),
(547,573,o),
(547,483,cs),
(547,391,o),
(506,340,o),
(441,340,cs),
(376,340,o),
(340,392,o),
(340,475,cs),
(340,507,o),
(343,525,o),
(347,546,c),
(297,546,l),
(291,519,o),
(288,503,o),
(288,470,cs),
(288,362,o),
(346,290,o),
(441,290,cs),
(539,290,o),
(602,364,o),
(602,483,cs),
(602,601,o),
(525,702,o),
(365,702,cs),
(171,702,o),
(66,561,o),
(66,346,cs),
(66,127,o),
(180,0,o),
(397,0,cs)
);
}
);
width = 669;
}
);
metricLeft = "=|theCarrier-canadian";
metricRight = "=|yeCarrier-canadian";
note = uni1613;
unicode = 5651;
},
{
color = 9;
glyphname = "juCarrier-canadian";
lastChange = "2023-01-13 15:54:43 +0000";
layers = (
{
layerId = "C6C6CC8B-76AD-4983-B2A6-35FF5D496205";
shapes = (
{
closed = 1;
nodes = (
(531,-13,o),
(622,79,o),
(622,218,cs),
(622,326,o),
(560,400,o),
(464,400,cs),
(368,400,o),
(308,327,o),
(308,219,cs),
(308,186,o),
(311,170,o),
(317,144,c),
(367,144,l),
(363,164,o),
(360,184,o),
(360,214,cs),
(360,298,o),
(399,350,o),
(464,350,cs),
(528,350,o),
(567,298,o),
(567,217,cs),
(567,108,o),
(502,42,o),
(373,42,cs),
(220,42,o),
(137,133,o),
(137,306,cs),
(137,528,o),
(277,634,o),
(523,634,cs),
(606,634,l),
(606,690,l),
(68,690,l),
(68,635,l),
(400,635,l),
(468,661,l),
(222,661,o),
(76,530,o),
(76,304,cs),
(76,108,o),
(189,-13,o),
(371,-13,cs)
);
}
);
width = 689;
}
);
metricRight = "=|yeCarrier-canadian";
note = uni1614;
unicode = 5652;
},
{
color = 9;
glyphname = "juSayisi-canadian";
lastChange = "2023-01-13 15:54:43 +0000";
layers = (
{
anchors = (
{
name = top_center_can;
pos = (352,690);
}
);
layerId = "C6C6CC8B-76AD-4983-B2A6-35FF5D496205";
shapes = (
{
closed = 1;
nodes = (
(499,-13,o),
(613,108,o),
(613,304,cs),
(613,530,o),
(468,661,o),
(221,661,c),
(290,635,l),
(622,635,l),
(622,690,l),
(83,690,l),
(83,634,l),
(166,634,ls),
(412,634,o),
(553,528,o),
(553,306,cs),
(553,133,o),
(469,42,o),
(316,42,cs),
(187,42,o),
(123,108,o),
(123,217,cs),
(123,298,o),
(161,350,o),
(226,350,cs),
(291,350,o),
(329,298,o),
(329,214,cs),
(329,184,o),
(327,164,o),
(323,144,c),
(373,144,l),
(379,170,o),
(381,186,o),
(381,219,cs),
(381,327,o),
(321,400,o),
(226,400,cs),
(128,400,o),
(67,326,o),
(67,218,cs),
(67,79,o),
(157,-13,o),
(319,-13,cs)
);
}
);
width = 690;
}
);
metricLeft = "yeCarrier-canadian";
metricRight = "=|juCarrier-canadian";
note = uni1615;
unicode = 5653;
},
{
color = 9;
glyphname = "joCarrier-canadian";
lastChange = "2023-01-13 15:54:43 +0000";
layers = (
{
layerId = "C6C6CC8B-76AD-4983-B2A6-35FF5D496205";
shapes = (
{
closed = 1;
nodes = (
(622,0,l),
(622,55,l),
(290,55,l),
(221,29,l),
(468,29,o),
(613,159,o),
(613,385,cs),
(613,582,o),
(499,702,o),
(319,702,cs),
(157,702,o),
(67,611,o),
(67,471,cs),
(67,364,o),
(128,290,o),
(226,290,cs),
(321,290,o),
(381,362,o),
(381,470,cs),
(381,503,o),
(379,520,o),
(373,546,c),
(323,546,l),
(327,526,o),
(329,506,o),
(329,475,cs),
(329,392,o),
(291,340,o),
(226,340,cs),
(161,340,o),
(123,392,o),
(123,472,cs),
(123,582,o),
(187,648,o),
(316,648,cs),
(469,648,o),
(553,556,o),
(553,384,cs),
(553,161,o),
(412,56,o),
(166,56,cs),
(83,56,l),
(83,0,l)
);
}
);
width = 690;
}
);
metricLeft = "yeCarrier-canadian";
metricRight = "=|juCarrier-canadian";
note = uni1616;
unicode = 5654;
},
{
color = 9;
glyphname = "jeCarrier-canadian";
lastChange = "2023-01-13 15:54:43 +0000";
layers = (
{
layerId = "C6C6CC8B-76AD-4983-B2A6-35FF5D496205";
shapes = (
{
closed = 1;
nodes = (
(596,-13,o),
(662,88,o),
(662,297,cs),
(662,566,o),
(553,702,o),
(384,702,cs),
(218,702,o),
(127,582,o),
(123,354,c),
(142,379,l),
(142,690,l),
(80,690,l),
(80,0,l),
(142,0,l),
(142,274,ls),
(142,531,o),
(223,645,o),
(378,645,cs),
(516,645,o),
(602,540,o),
(602,296,cs),
(602,113,o),
(561,40,o),
(480,40,cs),
(414,40,o),
(377,92,o),
(377,181,cs),
(377,272,o),
(413,324,o),
(490,324,cs),
(508,324,o),
(520,321,o),
(529,318,c),
(529,367,l),
(518,373,o),
(498,375,o),
(484,375,cs),
(384,375,o),
(322,301,o),
(322,183,cs),
(322,62,o),
(385,-13,o),
(481,-13,cs)
);
}
);
width = 735;
}
);
metricLeft = "nunavuth-canadian";
metricRight = "te-canadian";
note = uni1617;
unicode = 5655;
},
{
color = 9;
glyphname = "jeeCarrier-canadian";
lastChange = "2023-01-13 15:54:43 +0000";
layers = (
{
layerId = "C6C6CC8B-76AD-4983-B2A6-35FF5D496205";
shapes = (
{
closed = 1;
nodes = (
(596,-13,o),
(662,88,o),
(662,297,cs),
(662,566,o),
(553,702,o),
(384,702,cs),
(251,702,o),
(165,627,o),
(134,480,c),
(142,472,l),
(142,690,l),
(80,690,l),
(80,0,l),
(142,0,l),
(142,274,ls),
(142,531,o),
(223,645,o),
(378,645,cs),
(516,645,o),
(602,540,o),
(602,296,cs),
(602,118,o),
(560,40,o),
(472,40,cs),
(402,40,o),
(362,95,o),
(362,185,cs),
(362,272,o),
(395,317,o),
(449,329,c),
(449,237,l),
(487,237,l),
(487,454,l),
(449,454,l),
(449,368,l),
(375,355,o),
(322,293,o),
(322,181,cs),
(322,61,o),
(384,-13,o),
(479,-13,cs)
);
}
);
width = 735;
}
);
metricLeft = "nunavuth-canadian";
metricRight = "jeCarrier-canadian";
note = uni1618;
unicode = 5656;
},
{
color = 9;
glyphname = "jiCarrier-canadian";
lastChange = "2023-01-13 15:54:43 +0000";
layers = (
{
layerId = "C6C6CC8B-76AD-4983-B2A6-35FF5D496205";
shapes = (
{
closed = 1;
nodes = (
(596,-13,o),
(662,88,o),
(662,297,cs),
(662,566,o),
(553,702,o),
(384,702,cs),
(251,702,o),
(165,627,o),
(134,480,c),
(142,473,l),
(142,690,l),
(80,690,l),
(80,0,l),
(142,0,l),
(142,274,ls),
(142,531,o),
(223,645,o),
(378,645,cs),
(516,645,o),
(602,540,o),
(602,296,cs),
(602,118,o),
(560,40,o),
(472,40,cs),
(402,40,o),
(362,95,o),
(362,185,cs),
(362,250,o),
(381,288,o),
(412,308,c),
(420,295,o),
(435,285,o),
(452,285,cs),
(486,285,o),
(511,313,o),
(511,346,cs),
(511,380,o),
(486,405,o),
(451,405,cs),
(415,405,o),
(391,375,o),
(393,342,c),
(350,315,o),
(322,262,o),
(322,181,cs),
(322,61,o),
(384,-13,o),
(479,-13,cs)
);
}
);
width = 735;
}
);
metricLeft = "nunavuth-canadian";
metricRight = "jeCarrier-canadian";
note = uni1619;
unicode = 5657;
},
{
color = 9;
glyphname = "jiSayisi-canadian";
lastChange = "2023-01-13 15:54:43 +0000";
layers = (
{
layerId = "C6C6CC8B-76AD-4983-B2A6-35FF5D496205";
shapes = (
{
closed = 1;
nodes = (
(553,-13,o),
(662,124,o),
(662,393,cs),
(662,602,o),
(596,702,o),
(481,702,cs),
(385,702,o),
(322,628,o),
(322,507,cs),
(322,388,o),
(384,315,o),
(484,315,cs),
(498,315,o),
(518,317,o),
(529,323,c),
(529,372,l),
(520,369,o),
(508,366,o),
(490,366,cs),
(413,366,o),
(377,417,o),
(377,509,cs),
(377,598,o),
(414,650,o),
(479,650,cs),
(560,650,o),
(602,577,o),
(602,394,cs),
(602,150,o),
(516,44,o),
(378,44,cs),
(223,44,o),
(142,158,o),
(142,415,cs),
(142,690,l),
(80,690,l),
(80,0,l),
(142,0,l),
(142,311,l),
(123,336,l),
(127,107,o),
(218,-13,o),
(384,-13,cs)
);
}
);
width = 735;
}
);
metricLeft = "nunavuth-canadian";
metricRight = "jeCarrier-canadian";
note = uni161A;
unicode = 5658;
},
{
color = 9;
glyphname = "jaCarrier-canadian";
lastChange = "2023-01-13 15:54:43 +0000";
layers = (
{
anchors = (
{
name = top_center_can;
pos = (359,690);
}
);
layerId = "C6C6CC8B-76AD-4983-B2A6-35FF5D496205";
shapes = (
{
closed = 1;
nodes = (
(516,-13,o),
(608,107,o),
(611,336,c),
(593,311,l),
(593,0,l),
(654,0,l),
(654,690,l),
(592,690,l),
(592,415,ls),
(592,158,o),
(512,44,o),
(357,44,cs),
(219,44,o),
(132,150,o),
(132,394,cs),
(132,577,o),
(174,650,o),
(255,650,cs),
(320,650,o),
(357,598,o),
(357,509,cs),
(357,417,o),
(321,366,o),
(244,366,cs),
(226,366,o),
(214,369,o),
(205,372,c),
(205,323,l),
(216,317,o),
(236,315,o),
(251,315,cs),
(351,315,o),
(412,388,o),
(412,507,cs),
(412,628,o),
(350,702,o),
(254,702,cs),
(138,702,o),
(73,602,o),
(73,393,cs),
(73,124,o),
(182,-13,o),
(350,-13,cs)
);
}
);
width = 734;
}
);
metricLeft = "=|jeCarrier-canadian";
metricRight = "nunavuth-canadian";
note = uni161B;
unicode = 5659;
},
{
color = 9;
glyphname = "jjuCarrier-canadian";
lastChange = "2023-01-13 15:54:47 +0000";
layers = (
{
layerId = "C6C6CC8B-76AD-4983-B2A6-35FF5D496205";
shapes = (
{
closed = 1;
nodes = (
(530,-13,o),
(609,89,o),
(609,207,cs),
(609,326,o),
(546,400,o),
(448,400,cs),
(352,400,o),
(294,327,o),
(294,219,cs),
(294,187,o),
(297,170,o),
(302,144,c),
(353,144,l),
(349,164,o),
(346,184,o),
(346,214,cs),
(346,298,o),
(382,350,o),
(447,350,cs),
(511,350,o),
(553,297,o),
(553,208,cs),
(553,116,o),
(497,42,o),
(369,42,cs),
(212,42,o),
(134,148,o),
(134,315,cs),
(134,523,o),
(248,634,o),
(467,634,cs),
(592,634,l),
(592,690,l),
(467,690,ls),
(340,690,o),
(242,655,o),
(177,591,c),
(66,702,l),
(25,662,l),
(139,549,l),
(95,490,o),
(72,411,o),
(72,316,cs),
(72,122,o),
(181,-13,o),
(368,-13,cs)
);
}
);
width = 676;
}
);
metricRight = "=|yeCarrier-canadian";
note = uni161C;
unicode = 5660;
},
{
color = 9;
glyphname = "jjoCarrier-canadian";
lastChange = "2023-01-13 15:54:43 +0000";
layers = (
{
layerId = "C6C6CC8B-76AD-4983-B2A6-35FF5D496205";
shapes = (
{
closed = 1;
nodes = (
(650,28,l),
(537,141,l),
(581,200,o),
(603,279,o),
(603,374,cs),
(603,568,o),
(496,702,o),
(308,702,cs),
(147,702,o),
(67,601,o),
(67,482,cs),
(67,364,o),
(129,290,o),
(227,290,cs),
(325,290,o),
(382,362,o),
(382,470,cs),
(382,502,o),
(380,520,o),
(374,546,c),
(323,546,l),
(327,526,o),
(329,506,o),
(329,475,cs),
(329,392,o),
(294,340,o),
(228,340,cs),
(165,340,o),
(123,393,o),
(123,482,cs),
(123,574,o),
(177,648,o),
(308,648,cs),
(464,648,o),
(542,542,o),
(542,375,cs),
(542,167,o),
(427,56,o),
(209,56,cs),
(83,56,l),
(83,0,l),
(210,0,ls),
(335,0,o),
(434,35,o),
(498,99,c),
(610,-13,l)
);
}
);
width = 675;
}
);
metricLeft = "yeCarrier-canadian";
metricRight = "=|jjuCarrier-canadian";
note = uni161D;
unicode = 5661;
},
{
color = 9;
glyphname = "jjeCarrier-canadian";
lastChange = "2023-01-13 15:54:43 +0000";
layers = (
{
layerId = "C6C6CC8B-76AD-4983-B2A6-35FF5D496205";
shapes = (
{
closed = 1;
nodes = (
(601,-13,o),
(666,88,o),
(666,297,cs),
(666,569,o),
(561,702,o),
(372,702,cs),
(285,702,o),
(214,669,o),
(164,610,c),
(71,702,l),
(31,661,l),
(132,561,l),
(101,506,o),
(85,435,o),
(85,348,cs),
(85,0,l),
(147,0,l),
(147,348,ls),
(147,545,o),
(229,645,o),
(372,645,cs),
(521,645,o),
(606,546,o),
(606,296,cs),
(606,113,o),
(565,40,o),
(484,40,cs),
(418,40,o),
(382,92,o),
(382,181,cs),
(382,272,o),
(417,324,o),
(493,324,cs),
(512,324,o),
(525,321,o),
(534,318,c),
(534,367,l),
(523,373,o),
(503,375,o),
(487,375,cs),
(387,375,o),
(327,301,o),
(327,183,cs),
(327,62,o),
(389,-13,o),
(485,-13,cs)
);
}
);
width = 739;
}
);
metricRight = "jeCarrier-canadian";
note = uni161E;
unicode = 5662;
},
{
color = 9;
glyphname = "jjeeCarrier-canadian";
lastChange = "2023-01-13 15:54:43 +0000";
layers = (
{
layerId = "C6C6CC8B-76AD-4983-B2A6-35FF5D496205";
shapes = (
{
closed = 1;
nodes = (
(601,-13,o),
(666,88,o),
(666,297,cs),
(666,569,o),
(561,702,o),
(372,702,cs),
(285,702,o),
(214,669,o),
(164,610,c),
(71,702,l),
(31,661,l),
(132,561,l),
(101,506,o),
(85,435,o),
(85,348,cs),
(85,0,l),
(147,0,l),
(147,348,ls),
(147,545,o),
(229,645,o),
(372,645,cs),
(521,645,o),
(606,546,o),
(606,296,cs),
(606,118,o),
(564,40,o),
(476,40,cs),
(406,40,o),
(366,95,o),
(366,185,cs),
(366,270,o),
(398,315,o),
(448,327,c),
(448,237,l),
(487,237,l),
(487,453,l),
(448,453,l),
(448,368,l),
(377,355,o),
(327,290,o),
(327,181,cs),
(327,61,o),
(388,-13,o),
(484,-13,cs)
);
}
);
width = 739;
}
);
metricLeft = "jjeCarrier-canadian";
metricRight = "jeCarrier-canadian";
note = uni161F;
unicode = 5663;
},
{
color = 9;
glyphname = "jjiCarrier-canadian";
lastChange = "2023-01-13 15:54:43 +0000";
layers = (
{
layerId = "C6C6CC8B-76AD-4983-B2A6-35FF5D496205";
shapes = (
{
closed = 1;
nodes = (
(601,-13,o),
(666,88,o),
(666,297,cs),
(666,569,o),
(561,702,o),
(372,702,cs),
(285,702,o),
(214,669,o),
(164,610,c),
(71,702,l),
(31,661,l),
(132,561,l),
(101,506,o),
(85,435,o),
(85,348,cs),
(85,0,l),
(147,0,l),
(147,348,ls),
(147,545,o),
(229,645,o),
(372,645,cs),
(521,645,o),
(606,546,o),
(606,296,cs),
(606,118,o),
(564,40,o),
(476,40,cs),
(406,40,o),
(366,95,o),
(366,185,cs),
(366,253,o),
(387,293,o),
(420,311,c),
(429,297,o),
(445,285,o),
(464,285,cs),
(497,285,o),
(523,313,o),
(523,346,cs),
(523,380,o),
(497,405,o),
(464,405,cs),
(430,405,o),
(406,378,o),
(406,348,c),
(357,323,o),
(327,267,o),
(327,181,cs),
(327,61,o),
(388,-13,o),
(484,-13,cs)
);
}
);
width = 739;
}
);
metricLeft = "jjeCarrier-canadian";
metricRight = "jeCarrier-canadian";
note = uni1620;
unicode = 5664;
},
{
color = 9;
glyphname = "jjaCarrier-canadian";
lastChange = "2023-01-13 15:54:43 +0000";
layers = (
{
layerId = "C6C6CC8B-76AD-4983-B2A6-35FF5D496205";
shapes = (
{
closed = 1;
nodes = (
(453,-13,o),
(525,20,o),
(575,80,c),
(668,-13,l),
(708,29,l),
(607,128,l),
(638,184,o),
(654,255,o),
(654,342,cs),
(654,690,l),
(592,690,l),
(592,342,ls),
(592,145,o),
(509,44,o),
(367,44,cs),
(217,44,o),
(132,144,o),
(132,394,cs),
(132,577,o),
(174,650,o),
(255,650,cs),
(321,650,o),
(357,598,o),
(357,509,cs),
(357,417,o),
(321,366,o),
(245,366,cs),
(226,366,o),
(214,369,o),
(205,372,c),
(205,323,l),
(216,317,o),
(236,315,o),
(251,315,cs),
(351,315,o),
(412,388,o),
(412,507,cs),
(412,628,o),
(350,702,o),
(254,702,cs),
(138,702,o),
(73,602,o),
(73,393,cs),
(73,121,o),
(178,-13,o),
(366,-13,cs)
);
}
);
width = 739;
}
);
metricLeft = "=|jeCarrier-canadian";
metricRight = "=|jjeCarrier-canadian";
note = uni1621;
unicode = 5665;
},
{
color = 9;
glyphname = "luCarrier-canadian";
lastChange = "2023-01-13 15:54:47 +0000";
layers = (
{
layerId = "C6C6CC8B-76AD-4983-B2A6-35FF5D496205";
shapes = (
{
closed = 1;
nodes = (
(511,-13,o),
(614,88,o),
(614,282,cs),
(614,690,l),
(553,690,l),
(553,280,ls),
(553,120,o),
(474,44,o),
(352,44,cs),
(208,44,o),
(134,147,o),
(134,326,cs),
(134,525,o),
(215,632,o),
(374,639,c),
(374,690,l),
(64,690,l),
(64,638,l),
(285,638,l),
(320,659,l),
(174,643,o),
(72,539,o),
(72,318,cs),
(72,112,o),
(172,-13,o),
(350,-13,cs)
);
}
);
width = 687;
}
);
metricRight = "te-canadian";
note = uni1622;
unicode = 5666;
},
{
color = 9;
glyphname = "loCarrier-canadian";
lastChange = "2023-01-13 15:54:43 +0000";
layers = (
{
layerId = "C6C6CC8B-76AD-4983-B2A6-35FF5D496205";
shapes = (
{
closed = 1;
nodes = (
(135,0,l),
(135,410,ls),
(135,570,o),
(213,645,o),
(337,645,cs),
(480,645,o),
(554,543,o),
(554,364,cs),
(554,165,o),
(472,58,o),
(313,51,c),
(313,0,l),
(624,0,l),
(624,52,l),
(403,52,l),
(368,31,l),
(514,46,o),
(615,151,o),
(615,372,cs),
(615,578,o),
(516,702,o),
(337,702,cs),
(177,702,o),
(73,602,o),
(73,408,cs),
(73,0,l)
);
}
);
width = 688;
}
);
metricLeft = "te-canadian";
metricRight = "=|luCarrier-canadian";
note = uni1623;
unicode = 5667;
},
{
color = 9;
glyphname = "leCarrier-canadian";
lastChange = "2023-01-13 15:54:47 +0000";
layers = (
{
anchors = (
{
name = middle_center_can;
pos = (331,346);
}
);
layerId = "C6C6CC8B-76AD-4983-B2A6-35FF5D496205";
shapes = (
{
closed = 1;
nodes = (
(273,0,ls),
(486,0,o),
(597,128,o),
(597,357,cs),
(597,579,o),
(494,702,o),
(342,702,cs),
(220,702,o),
(144,618,o),
(124,503,c),
(132,503,l),
(132,690,l),
(76,690,l),
(76,385,l),
(128,385,l),
(132,541,o),
(205,645,o),
(330,645,cs),
(456,645,o),
(535,548,o),
(535,356,cs),
(535,161,o),
(449,56,o),
(273,56,cs),
(76,56,l),
(76,0,l)
);
}
);
width = 663;
}
);
metricRight = "theCarrier-canadian";
note = uni1624;
unicode = 5668;
},
{
color = 9;
glyphname = "laCarrier-canadian";
lastChange = "2023-01-13 15:54:47 +0000";
layers = (
{
layerId = "C6C6CC8B-76AD-4983-B2A6-35FF5D496205";
shapes = (
{
closed = 1;
nodes = (
(586,0,l),
(586,56,l),
(388,56,ls),
(213,56,o),
(127,161,o),
(127,356,cs),
(127,548,o),
(208,645,o),
(333,645,cs),
(459,645,o),
(530,541,o),
(534,385,c),
(586,385,l),
(586,690,l),
(530,690,l),
(530,503,l),
(539,503,l),
(519,618,o),
(442,702,o),
(322,702,cs),
(170,702,o),
(66,579,o),
(66,357,cs),
(66,128,o),
(177,0,o),
(389,0,cs)
);
}
);
width = 662;
}
);
metricLeft = "=|theCarrier-canadian";
metricRight = "=|leCarrier-canadian";
note = uni1627;
unicode = 5671;
},
{
color = 1;
glyphname = "dluCarrier-canadian";
lastChange = "2023-01-13 15:54:43 +0000";
layers = (
{
layerId = "C6C6CC8B-76AD-4983-B2A6-35FF5D496205";
shapes = (
{
closed = 1;
nodes = (
(516,-13,o),
(615,112,o),
(615,318,cs),
(615,512,o),
(538,616,o),
(425,647,c),
(413,641,l),
(614,641,l),
(614,557,l),
(663,557,l),
(663,773,l),
(614,773,l),
(614,690,l),
(313,690,l),
(313,639,l),
(472,632,o),
(554,525,o),
(554,326,cs),
(554,147,o),
(480,44,o),
(342,44,cs),
(213,44,o),
(135,122,o),
(135,282,cs),
(135,690,l),
(73,690,l),
(73,285,ls),
(73,90,o),
(177,-13,o),
(341,-13,cs)
);
}
);
width = 720;
}
);
metricLeft = "te-canadian";
note = uni1628;
unicode = 5672;
},
{
color = 9;
glyphname = "dloCarrier-canadian";
lastChange = "2023-01-13 15:54:43 +0000";
layers = (
{
layerId = "C6C6CC8B-76AD-4983-B2A6-35FF5D496205";
shapes = (
{
closed = 1;
nodes = (
(663,-83,l),
(663,132,l),
(614,132,l),
(614,48,l),
(413,48,l),
(425,43,l),
(538,73,o),
(615,178,o),
(615,372,cs),
(615,578,o),
(516,702,o),
(343,702,cs),
(175,702,o),
(73,600,o),
(73,405,cs),
(73,0,l),
(135,0,l),
(135,408,ls),
(135,568,o),
(213,645,o),
(342,645,cs),
(480,645,o),
(554,543,o),
(554,364,cs),
(554,165,o),
(472,58,o),
(313,51,c),
(313,0,l),
(614,0,l),
(614,-83,l)
);
}
);
width = 720;
}
);
metricLeft = "te-canadian";
metricRight = "dluCarrier-canadian";
note = uni1629;
unicode = 5673;
},
{
color = 9;
glyphname = "dleCarrier-canadian";
lastChange = "2023-01-13 15:54:43 +0000";
layers = (
{
anchors = (
{
name = middle_center_can;
pos = (342,346);
}
);
layerId = "C6C6CC8B-76AD-4983-B2A6-35FF5D496205";
shapes = (
{
closed = 1;
nodes = (
(284,0,ls),
(496,0,o),
(607,128,o),
(607,357,cs),
(607,579,o),
(503,702,o),
(353,702,cs),
(238,702,o),
(157,629,o),
(128,509,c),
(135,502,l),
(135,703,l),
(213,703,l),
(213,750,l),
(10,750,l),
(10,703,l),
(87,703,l),
(87,385,l),
(139,385,l),
(143,541,o),
(215,645,o),
(341,645,cs),
(467,645,o),
(546,548,o),
(546,356,cs),
(546,161,o),
(460,56,o),
(284,56,cs),
(87,56,l),
(87,0,l)
);
}
);
width = 673;
}
);
metricRight = "theCarrier-canadian";
note = uni162A;
unicode = 5674;
},
{
color = 9;
glyphname = "dlaCarrier-canadian";
lastChange = "2023-01-13 15:54:47 +0000";
layers = (
{
layerId = "C6C6CC8B-76AD-4983-B2A6-35FF5D496205";
shapes = (
{
closed = 1;
nodes = (
(586,0,l),
(586,56,l),
(388,56,ls),
(214,56,o),
(127,158,o),
(127,356,cs),
(127,548,o),
(207,645,o),
(331,645,cs),
(458,645,o),
(530,541,o),
(534,385,c),
(586,385,l),
(586,703,l),
(664,703,l),
(664,750,l),
(461,750,l),
(461,703,l),
(538,703,l),
(538,502,l),
(545,509,l),
(516,629,o),
(436,702,o),
(321,702,cs),
(169,702,o),
(66,579,o),
(66,357,cs),
(66,127,o),
(179,0,o),
(389,0,cs)
);
}
);
width = 674;
}
);
metricLeft = "=|theCarrier-canadian";
metricRight = "=|dleCarrier-canadian";
note = uni162D;
unicode = 5677;
},
{
color = 9;
glyphname = "lhuCarrier-canadian";
lastChange = "2023-01-13 15:54:47 +0000";
layers = (
{
layerId = "C6C6CC8B-76AD-4983-B2A6-35FF5D496205";
shapes = (
{
closed = 1;
nodes = (
(554,-13,o),
(655,111,o),
(655,323,cs),
(655,525,o),
(566,625,o),
(450,659,c),
(469,637,l),
(664,637,l),
(664,690,l),
(422,690,l),
(422,639,l),
(519,609,o),
(593,513,o),
(593,330,cs),
(593,142,o),
(518,44,o),
(363,44,cs),
(210,44,o),
(134,142,o),
(134,330,cs),
(134,513,o),
(210,609,o),
(305,639,c),
(305,690,l),
(64,690,l),
(64,637,l),
(258,637,l),
(277,659,l),
(161,625,o),
(72,526,o),
(72,323,cs),
(72,111,o),
(174,-13,o),
(363,-13,cs)
);
}
);
width = 728;
}
);
metricLeft = "luCarrier-canadian";
metricRight = "=|";
note = uni162E;
unicode = 5678;
},
{
color = 9;
glyphname = "lhoCarrier-canadian";
lastChange = "2023-01-13 15:54:47 +0000";
layers = (
{
layerId = "C6C6CC8B-76AD-4983-B2A6-35FF5D496205";
shapes = (
{
closed = 1;
nodes = (
(305,0,l),
(305,51,l),
(209,81,o),
(134,177,o),
(134,359,cs),
(134,548,o),
(210,645,o),
(363,645,cs),
(518,645,o),
(593,548,o),
(593,359,cs),
(593,177,o),
(518,81,o),
(422,51,c),
(422,0,l),
(664,0,l),
(664,53,l),
(469,53,l),
(449,31,l),
(566,65,o),
(655,164,o),
(655,367,cs),
(655,579,o),
(554,702,o),
(363,702,cs),
(173,702,o),
(72,579,o),
(72,367,cs),
(72,165,o),
(161,65,o),
(277,31,c),
(258,53,l),
(64,53,l),
(64,0,l)
);
}
);
width = 728;
}
);
metricLeft = "luCarrier-canadian";
metricRight = "=|";
note = uni162F;
unicode = 5679;
},
{
color = 9;
glyphname = "lheCarrier-canadian";
lastChange = "2023-01-13 15:54:47 +0000";
layers = (
{
anchors = (
{
name = middle_center_can;
pos = (350,345);
}
);
layerId = "C6C6CC8B-76AD-4983-B2A6-35FF5D496205";
shapes = (
{
closed = 1;
nodes = (
(519,-13,o),
(628,111,o),
(628,345,cs),
(628,579,o),
(519,702,o),
(358,702,cs),
(231,702,o),
(153,621,o),
(130,521,c),
(136,521,l),
(136,690,l),
(80,690,l),
(80,419,l),
(132,419,l),
(143,544,o),
(213,645,o),
(349,645,cs),
(476,645,o),
(566,548,o),
(566,345,cs),
(566,142,o),
(481,44,o),
(349,44,cs),
(213,44,o),
(143,146,o),
(132,270,c),
(80,270,l),
(80,0,l),
(136,0,l),
(136,169,l),
(130,169,l),
(153,69,o),
(231,-13,o),
(358,-13,cs)
);
}
);
width = 694;
}
);
metricLeft = "nunavuth-canadian";
metricRight = "theCarrier-canadian";
note = uni1630;
unicode = 5680;
},
{
color = 9;
glyphname = "lhaCarrier-canadian";
lastChange = "2023-01-13 15:54:47 +0000";
layers = (
{
layerId = "C6C6CC8B-76AD-4983-B2A6-35FF5D496205";
shapes = (
{
closed = 1;
nodes = (
(463,-13,o),
(541,69,o),
(563,169,c),
(557,169,l),
(557,0,l),
(613,0,l),
(613,270,l),
(561,270,l),
(551,146,o),
(480,44,o),
(345,44,cs),
(217,44,o),
(127,142,o),
(127,345,cs),
(127,548,o),
(212,645,o),
(345,645,cs),
(480,645,o),
(551,544,o),
(561,419,c),
(613,419,l),
(613,690,l),
(557,690,l),
(557,521,l),
(563,521,l),
(541,621,o),
(463,702,o),
(335,702,cs),
(175,702,o),
(66,579,o),
(66,345,cs),
(66,111,o),
(175,-13,o),
(335,-13,cs)
);
}
);
width = 693;
}
);
metricLeft = "=|theCarrier-canadian";
metricRight = "nunavuth-canadian";
note = uni1633;
unicode = 5683;
},
{
color = 9;
glyphname = "tlhuCarrier-canadian";
lastChange = "2023-01-13 15:54:43 +0000";
layers = (
{
layerId = "C6C6CC8B-76AD-4983-B2A6-35FF5D496205";
shapes = (
{
closed = 1;
nodes = (
(554,-13,o),
(655,111,o),
(655,323,cs),
(655,506,o),
(582,606,o),
(485,648,c),
(471,641,l),
(654,641,l),
(654,557,l),
(702,557,l),
(702,773,l),
(654,773,l),
(654,690,l),
(422,690,l),
(422,639,l),
(519,609,o),
(593,513,o),
(593,330,cs),
(593,142,o),
(518,44,o),
(363,44,cs),
(210,44,o),
(134,142,o),
(134,330,cs),
(134,513,o),
(209,609,o),
(305,639,c),
(305,690,l),
(64,690,l),
(64,637,l),
(249,637,l),
(235,644,l),
(141,601,o),
(72,502,o),
(72,323,cs),
(72,111,o),
(174,-13,o),
(363,-13,cs)
);
}
);
width = 749;
}
);
metricLeft = "lhuCarrier-canadian";
note = uni1634;
unicode = 5684;
},
{
color = 9;
glyphname = "tlhoCarrier-canadian";
lastChange = "2023-01-13 15:54:47 +0000";
layers = (
{
layerId = "C6C6CC8B-76AD-4983-B2A6-35FF5D496205";
shapes = (
{
closed = 1;
nodes = (
(95,-83,l),
(95,0,l),
(327,0,l),
(327,51,l),
(231,81,o),
(156,177,o),
(156,359,cs),
(156,548,o),
(231,645,o),
(385,645,cs),
(539,645,o),
(615,548,o),
(615,359,cs),
(615,177,o),
(540,81,o),
(443,51,c),
(443,0,l),
(685,0,l),
(685,53,l),
(499,53,l),
(514,45,l),
(608,89,o),
(676,187,o),
(676,367,cs),
(676,579,o),
(576,702,o),
(385,702,cs),
(195,702,o),
(94,579,o),
(94,367,cs),
(94,184,o),
(167,84,o),
(265,42,c),
(278,48,l),
(95,48,l),
(95,132,l),
(47,132,l),
(47,-83,l)
);
}
);
width = 749;
}
);
metricLeft = "=|tlhuCarrier-canadian";
metricRight = "lhuCarrier-canadian";
note = uni1635;
unicode = 5685;
},
{
color = 9;
glyphname = "tlheCarrier-canadian";
lastChange = "2023-01-13 15:54:43 +0000";
layers = (
{
anchors = (
{
name = middle_center_can;
pos = (356,345);
}
);
layerId = "C6C6CC8B-76AD-4983-B2A6-35FF5D496205";
shapes = (
{
closed = 1;
nodes = (
(526,-13,o),
(634,111,o),
(634,345,cs),
(634,579,o),
(526,702,o),
(365,702,cs),
(242,702,o),
(158,625,o),
(128,518,c),
(135,510,l),
(135,703,l),
(213,703,l),
(213,750,l),
(10,750,l),
(10,703,l),
(87,703,l),
(87,419,l),
(139,419,l),
(150,544,o),
(219,645,o),
(355,645,cs),
(482,645,o),
(573,549,o),
(573,345,cs),
(573,142,o),
(482,44,o),
(355,44,cs),
(219,44,o),
(150,146,o),
(139,270,c),
(87,270,l),
(87,0,l),
(143,0,l),
(143,176,l),
(138,164,l),
(161,70,o),
(240,-13,o),
(365,-13,cs)
);
}
);
width = 700;
}
);
metricLeft = "dleCarrier-canadian";
metricRight = "theCarrier-canadian";
note = uni1636;
unicode = 5686;
},
{
color = 9;
glyphname = "tlhaCarrier-canadian";
lastChange = "2023-01-13 15:54:47 +0000";
layers = (
{
layerId = "C6C6CC8B-76AD-4983-B2A6-35FF5D496205";
shapes = (
{
closed = 1;
nodes = (
(461,-13,o),
(540,66,o),
(562,165,c),
(557,177,l),
(557,0,l),
(613,0,l),
(613,270,l),
(561,270,l),
(551,146,o),
(480,44,o),
(345,44,cs),
(217,44,o),
(127,142,o),
(127,345,cs),
(127,549,o),
(212,645,o),
(345,645,cs),
(480,645,o),
(551,544,o),
(561,419,c),
(613,419,l),
(613,703,l),
(691,703,l),
(691,750,l),
(487,750,l),
(487,703,l),
(564,703,l),
(564,509,l),
(572,517,l),
(542,628,o),
(459,702,o),
(335,702,cs),
(175,702,o),
(66,579,o),
(66,345,cs),
(66,111,o),
(175,-13,o),
(335,-13,cs)
);
}
);
width = 701;
}
);
metricLeft = "=|theCarrier-canadian";
metricRight = "=|dleCarrier-canadian";
note = uni1639;
unicode = 5689;
},
{
color = 9;
glyphname = "tluCarrier-canadian";
lastChange = "2023-01-13 15:54:43 +0000";
layers = (
{
layerId = "C6C6CC8B-76AD-4983-B2A6-35FF5D496205";
shapes = (
{
closed = 1;
nodes = (
(345,-13,o),
(404,37,o),
(426,129,c),
(410,129,l),
(433,37,o),
(491,-13,o),
(570,-13,cs),
(692,-13,o),
(764,78,o),
(764,288,cs),
(764,506,o),
(694,611,o),
(587,648,c),
(574,641,l),
(763,641,l),
(763,557,l),
(811,557,l),
(811,773,l),
(763,773,l),
(763,690,l),
(476,690,l),
(476,639,l),
(626,635,o),
(702,525,o),
(702,291,cs),
(702,109,o),
(653,43,o),
(566,43,cs),
(496,43,o),
(447,101,o),
(447,217,cs),
(447,298,l),
(388,298,l),
(388,217,ls),
(388,101,o),
(340,43,o),
(270,43,cs),
(184,43,o),
(134,109,o),
(134,291,cs),
(134,525,o),
(211,635,o),
(359,639,c),
(359,690,l),
(64,690,l),
(64,637,l),
(255,637,l),
(242,644,l),
(140,607,o),
(72,501,o),
(72,288,cs),
(72,78,o),
(144,-13,o),
(267,-13,cs)
);
}
);
width = 858;
}
);
metricRight = "tlhuCarrier-canadian";
note = uni163A;
unicode = 5690;
},
{
color = 1;
glyphname = "tloCarrier-canadian";
lastChange = "2023-01-13 15:54:43 +0000";
layers = (
{
layerId = "C6C6CC8B-76AD-4983-B2A6-35FF5D496205";
shapes = (
{
closed = 1;
nodes = (
(811,-83,l),
(811,132,l),
(763,132,l),
(763,48,l),
(574,48,l),
(587,42,l),
(694,78,o),
(764,184,o),
(764,402,cs),
(764,611,o),
(692,702,o),
(570,702,cs),
(491,702,o),
(433,653,o),
(410,560,c),
(426,560,l),
(404,653,o),
(345,702,o),
(267,702,cs),
(144,702,o),
(72,611,o),
(72,402,cs),
(72,188,o),
(140,83,o),
(242,45,c),
(255,53,l),
(64,53,l),
(64,0,l),
(359,0,l),
(359,51,l),
(211,55,o),
(134,165,o),
(134,399,cs),
(134,581,o),
(184,646,o),
(270,646,cs),
(340,646,o),
(388,588,o),
(388,472,cs),
(388,391,l),
(447,391,l),
(447,472,ls),
(447,588,o),
(496,646,o),
(566,646,cs),
(653,646,o),
(702,581,o),
(702,399,cs),
(702,165,o),
(626,55,o),
(476,51,c),
(476,0,l),
(763,0,l),
(763,-83,l)
);
}
);
width = 858;
}
);
metricLeft = "tluCarrier-canadian";
metricRight = "tlhuCarrier-canadian";
note = uni163B;
unicode = 5691;
},
{
color = 9;
glyphname = "tleCarrier-canadian";
lastChange = "2023-01-13 15:54:43 +0000";
layers = (
{
anchors = (
{
name = middle_center_can;
pos = (270,345);
}
);
layerId = "C6C6CC8B-76AD-4983-B2A6-35FF5D496205";
shapes = (
{
closed = 1;
nodes = (
(554,-13,o),
(629,68,o),
(629,182,cs),
(629,268,o),
(580,332,o),
(491,352,c),
(491,338,l),
(580,356,o),
(629,421,o),
(629,508,cs),
(629,622,o),
(554,702,o),
(396,702,cs),
(243,702,o),
(158,631,o),
(128,529,c),
(135,519,l),
(135,703,l),
(213,703,l),
(213,750,l),
(10,750,l),
(10,703,l),
(87,703,l),
(87,419,l),
(139,419,l),
(143,552,o),
(213,646,o),
(385,646,cs),
(514,646,o),
(568,591,o),
(568,503,cs),
(568,419,o),
(511,372,o),
(411,372,cs),
(369,372,l),
(369,319,l),
(411,319,ls),
(515,319,o),
(568,270,o),
(568,186,cs),
(568,99,o),
(509,43,o),
(385,43,cs),
(213,43,o),
(143,138,o),
(139,270,c),
(87,270,l),
(87,0,l),
(143,0,l),
(143,162,l),
(135,152,l),
(166,55,o),
(246,-13,o),
(396,-13,cs)
);
}
);
width = 705;
}
);
metricLeft = "dleCarrier-canadian";
metricRight = "geCarrier-canadian";
note = uni163C;
unicode = 5692;
},
{
color = 9;
glyphname = "tlaCarrier-canadian";
lastChange = "2023-01-13 15:54:43 +0000";
layers = (
{
layerId = "C6C6CC8B-76AD-4983-B2A6-35FF5D496205";
shapes = (
{
closed = 1;
nodes = (
(460,-13,o),
(539,55,o),
(571,152,c),
(563,162,l),
(563,0,l),
(618,0,l),
(618,270,l),
(567,270,l),
(562,138,o),
(493,43,o),
(321,43,cs),
(197,43,o),
(138,99,o),
(138,186,cs),
(138,270,o),
(191,319,o),
(295,319,cs),
(355,319,l),
(355,372,l),
(295,372,ls),
(195,372,o),
(138,419,o),
(138,503,cs),
(138,591,o),
(192,646,o),
(320,646,cs),
(493,646,o),
(562,552,o),
(567,419,c),
(618,419,l),
(618,703,l),
(696,703,l),
(696,750,l),
(493,750,l),
(493,703,l),
(571,703,l),
(571,519,l),
(577,529,l),
(547,631,o),
(463,702,o),
(309,702,cs),
(151,702,o),
(76,622,o),
(76,508,cs),
(76,421,o),
(126,356,o),
(214,338,c),
(214,352,l),
(127,332,o),
(76,268,o),
(76,182,cs),
(76,68,o),
(151,-13,o),
(309,-13,cs)
);
}
);
width = 706;
}
);
metricLeft = "=|geCarrier-canadian";
metricRight = "=|dleCarrier-canadian";
note = uni163F;
unicode = 5695;
},
{
color = 9;
glyphname = "zuCarrier-canadian";
lastChange = "2023-01-13 15:54:43 +0000";
layers = (
{
layerId = "C6C6CC8B-76AD-4983-B2A6-35FF5D496205";
shapes = (
{
closed = 1;
nodes = (
(541,-13,o),
(652,87,o),
(652,241,cs),
(652,365,o),
(554,490,o),
(554,569,cs),
(554,604,o),
(570,636,o),
(630,636,cs),
(661,636,l),
(661,690,l),
(618,690,ls),
(530,690,o),
(494,641,o),
(494,575,cs),
(494,482,o),
(590,367,o),
(590,248,cs),
(590,121,o),
(506,44,o),
(360,44,cs),
(215,44,o),
(131,121,o),
(131,248,cs),
(131,367,o),
(228,482,o),
(228,575,cs),
(228,641,o),
(191,690,o),
(103,690,cs),
(61,690,l),
(61,636,l),
(92,636,ls),
(152,636,o),
(168,604,o),
(168,569,cs),
(168,490,o),
(70,365,o),
(70,241,cs),
(70,87,o),
(181,-13,o),
(360,-13,cs)
);
}
);
width = 722;
}
);
metricRight = "=|";
note = uni1640;
unicode = 5696;
},
{
color = 9;
glyphname = "zoCarrier-canadian";
lastChange = "2023-01-13 15:54:43 +0000";
layers = (
{
layerId = "C6C6CC8B-76AD-4983-B2A6-35FF5D496205";
shapes = (
{
closed = 1;
nodes = (
(103,0,ls),
(191,0,o),
(228,48,o),
(228,115,cs),
(228,208,o),
(131,323,o),
(131,441,cs),
(131,569,o),
(215,645,o),
(361,645,cs),
(507,645,o),
(590,569,o),
(590,441,cs),
(590,323,o),
(494,208,o),
(494,115,cs),
(494,48,o),
(530,0,o),
(618,0,cs),
(661,0,l),
(661,54,l),
(631,54,ls),
(570,54,o),
(554,86,o),
(554,121,cs),
(554,200,o),
(652,325,o),
(652,449,cs),
(652,603,o),
(542,702,o),
(361,702,cs),
(181,702,o),
(70,603,o),
(70,449,cs),
(70,325,o),
(168,200,o),
(168,121,cs),
(168,86,o),
(152,54,o),
(92,54,cs),
(61,54,l),
(61,0,l)
);
}
);
width = 722;
}
);
metricLeft = "zuCarrier-canadian";
metricRight = "zuCarrier-canadian";
note = uni1641;
unicode = 5697;
},
